<mxfile host="Electron" agent="Mozilla/5.0 (Windows NT 10.0; Win64; x64) AppleWebKit/537.36 (KHTML, like Gecko) draw.io/26.0.9 Chrome/128.0.6613.186 Electron/32.2.5 Safari/537.36" version="26.0.9" pages="3">
  <diagram id="ggZbkwtFKMa5KvpFs9o1" name="Top Level">
    <mxGraphModel dx="1313" dy="786" grid="1" gridSize="10" guides="1" tooltips="1" connect="1" arrows="1" fold="1" page="1" pageScale="1" pageWidth="6000" pageHeight="6000" math="0" shadow="0">
      <root>
        <mxCell id="0" />
        <mxCell id="1" parent="0" />
        <mxCell id="jvAKZ0HL3v9La-zUdgxE-61" value="" style="rounded=0;whiteSpace=wrap;html=1;fillColor=#dae8fc;strokeColor=#6c8ebf;" parent="1" vertex="1">
          <mxGeometry x="1160" y="840" width="1860" height="2260" as="geometry" />
        </mxCell>
        <mxCell id="6wX9RSOuYod8_HCyn5d8-9" value="" style="group" parent="1" vertex="1" connectable="0">
          <mxGeometry x="1340" y="1105" width="140" height="95" as="geometry" />
        </mxCell>
        <mxCell id="6wX9RSOuYod8_HCyn5d8-10" value="" style="group" parent="6wX9RSOuYod8_HCyn5d8-9" vertex="1" connectable="0">
          <mxGeometry y="15" width="140" height="80" as="geometry" />
        </mxCell>
        <mxCell id="6wX9RSOuYod8_HCyn5d8-11" value="&lt;font style=&quot;font-size: 20px;&quot;&gt;Data_Reg&lt;/font&gt;" style="whiteSpace=wrap;html=1;aspect=fixed;" parent="6wX9RSOuYod8_HCyn5d8-10" vertex="1">
          <mxGeometry y="-60" width="140" height="140" as="geometry" />
        </mxCell>
        <mxCell id="6wX9RSOuYod8_HCyn5d8-12" value="" style="triangle;whiteSpace=wrap;html=1;" parent="6wX9RSOuYod8_HCyn5d8-10" vertex="1">
          <mxGeometry y="50" width="10" height="20" as="geometry" />
        </mxCell>
        <mxCell id="6wX9RSOuYod8_HCyn5d8-13" value="rst_n" style="text;html=1;align=center;verticalAlign=middle;whiteSpace=wrap;rounded=0;" parent="6wX9RSOuYod8_HCyn5d8-10" vertex="1">
          <mxGeometry y="30" width="30" height="20" as="geometry" />
        </mxCell>
        <mxCell id="6wX9RSOuYod8_HCyn5d8-15" value="&lt;font style=&quot;font-size: 16px;&quot;&gt;D&lt;/font&gt;" style="text;html=1;align=center;verticalAlign=middle;whiteSpace=wrap;rounded=0;" parent="6wX9RSOuYod8_HCyn5d8-10" vertex="1">
          <mxGeometry x="10" y="-35" width="10" height="10" as="geometry" />
        </mxCell>
        <mxCell id="6wX9RSOuYod8_HCyn5d8-16" value="&lt;font style=&quot;font-size: 16px;&quot;&gt;Q&lt;/font&gt;" style="text;html=1;align=center;verticalAlign=middle;whiteSpace=wrap;rounded=0;" parent="1" vertex="1">
          <mxGeometry x="1460" y="1085" width="10" height="10" as="geometry" />
        </mxCell>
        <mxCell id="6wX9RSOuYod8_HCyn5d8-33" value="&lt;font style=&quot;font-size: 20px;&quot;&gt;Parity_Gen&lt;/font&gt;" style="rounded=0;whiteSpace=wrap;html=1;" parent="1" vertex="1">
          <mxGeometry x="2025" y="1303" width="170" height="130" as="geometry" />
        </mxCell>
        <mxCell id="6wX9RSOuYod8_HCyn5d8-35" value="" style="rounded=0;whiteSpace=wrap;html=1;" parent="1" vertex="1">
          <mxGeometry x="2260" y="1060" width="10" height="130" as="geometry" />
        </mxCell>
        <mxCell id="6wX9RSOuYod8_HCyn5d8-53" value="" style="endArrow=none;html=1;rounded=0;" parent="1" edge="1">
          <mxGeometry width="50" height="50" relative="1" as="geometry">
            <mxPoint x="1480" y="1095" as="sourcePoint" />
            <mxPoint x="1510" y="1095" as="targetPoint" />
          </mxGeometry>
        </mxCell>
        <mxCell id="6wX9RSOuYod8_HCyn5d8-55" value="" style="endArrow=classic;html=1;rounded=0;entryX=0.003;entryY=0.38;entryDx=0;entryDy=0;entryPerimeter=0;" parent="1" edge="1">
          <mxGeometry width="50" height="50" relative="1" as="geometry">
            <mxPoint x="1959.49" y="1350" as="sourcePoint" />
            <mxPoint x="2024.9999999999998" y="1350.4" as="targetPoint" />
          </mxGeometry>
        </mxCell>
        <mxCell id="6wX9RSOuYod8_HCyn5d8-57" value="" style="endArrow=classic;html=1;rounded=0;" parent="1" edge="1">
          <mxGeometry width="50" height="50" relative="1" as="geometry">
            <mxPoint x="1505" y="1094.71" as="sourcePoint" />
            <mxPoint x="1770" y="1095" as="targetPoint" />
          </mxGeometry>
        </mxCell>
        <mxCell id="6wX9RSOuYod8_HCyn5d8-58" style="edgeStyle=orthogonalEdgeStyle;rounded=0;orthogonalLoop=1;jettySize=auto;html=1;entryX=0.033;entryY=0.81;entryDx=0;entryDy=0;entryPerimeter=0;" parent="1" source="6wX9RSOuYod8_HCyn5d8-33" target="6wX9RSOuYod8_HCyn5d8-35" edge="1">
          <mxGeometry relative="1" as="geometry">
            <Array as="points">
              <mxPoint x="2140" y="1350" />
              <mxPoint x="2140" y="1165" />
            </Array>
          </mxGeometry>
        </mxCell>
        <UserObject label="" link="data:page/id,f9JpHKTll7esbQ5uf-dy" id="6wX9RSOuYod8_HCyn5d8-67">
          <mxCell style="group" parent="1" vertex="1" connectable="0">
            <mxGeometry x="2470" y="1060" width="190" height="160" as="geometry" />
          </mxCell>
        </UserObject>
        <mxCell id="6wX9RSOuYod8_HCyn5d8-60" value="" style="group" parent="6wX9RSOuYod8_HCyn5d8-67" vertex="1" connectable="0">
          <mxGeometry y="80" width="190" height="80" as="geometry" />
        </mxCell>
        <UserObject label="&lt;font style=&quot;font-size: 20px;&quot;&gt;Shift_Reg&lt;/font&gt;" link="data:page/id,f9JpHKTll7esbQ5uf-dy" id="6wX9RSOuYod8_HCyn5d8-61">
          <mxCell style="whiteSpace=wrap;html=1;aspect=fixed;" parent="6wX9RSOuYod8_HCyn5d8-60" vertex="1">
            <mxGeometry y="-110" width="190" height="190" as="geometry" />
          </mxCell>
        </UserObject>
        <mxCell id="6wX9RSOuYod8_HCyn5d8-62" value="" style="triangle;whiteSpace=wrap;html=1;" parent="6wX9RSOuYod8_HCyn5d8-60" vertex="1">
          <mxGeometry y="50" width="10" height="20" as="geometry" />
        </mxCell>
        <mxCell id="6wX9RSOuYod8_HCyn5d8-63" value="rst_n" style="text;html=1;align=center;verticalAlign=middle;whiteSpace=wrap;rounded=0;" parent="6wX9RSOuYod8_HCyn5d8-60" vertex="1">
          <mxGeometry y="30" width="30" height="20" as="geometry" />
        </mxCell>
        <mxCell id="6wX9RSOuYod8_HCyn5d8-64" value="en" style="text;html=1;align=center;verticalAlign=middle;whiteSpace=wrap;rounded=0;" parent="6wX9RSOuYod8_HCyn5d8-60" vertex="1">
          <mxGeometry y="20" width="20" height="10" as="geometry" />
        </mxCell>
        <mxCell id="6wX9RSOuYod8_HCyn5d8-66" value="&lt;font style=&quot;font-size: 16px;&quot;&gt;Q&lt;/font&gt;" style="text;html=1;align=center;verticalAlign=middle;whiteSpace=wrap;rounded=0;" parent="6wX9RSOuYod8_HCyn5d8-60" vertex="1">
          <mxGeometry x="170" y="-80" width="10" height="10" as="geometry" />
        </mxCell>
        <mxCell id="6wX9RSOuYod8_HCyn5d8-65" value="&lt;font style=&quot;font-size: 16px;&quot;&gt;D&lt;/font&gt;" style="text;html=1;align=center;verticalAlign=middle;whiteSpace=wrap;rounded=0;" parent="6wX9RSOuYod8_HCyn5d8-67" vertex="1">
          <mxGeometry x="10" width="10" height="10" as="geometry" />
        </mxCell>
        <mxCell id="6wX9RSOuYod8_HCyn5d8-68" style="edgeStyle=orthogonalEdgeStyle;rounded=0;orthogonalLoop=1;jettySize=auto;html=1;entryX=-0.833;entryY=0.878;entryDx=0;entryDy=0;entryPerimeter=0;" parent="1" source="6wX9RSOuYod8_HCyn5d8-35" target="6wX9RSOuYod8_HCyn5d8-65" edge="1">
          <mxGeometry relative="1" as="geometry" />
        </mxCell>
        <mxCell id="6wX9RSOuYod8_HCyn5d8-77" value="" style="group" parent="1" vertex="1" connectable="0">
          <mxGeometry x="2860" y="1190" width="20" height="120" as="geometry" />
        </mxCell>
        <mxCell id="6wX9RSOuYod8_HCyn5d8-78" value="" style="shape=trapezoid;perimeter=trapezoidPerimeter;whiteSpace=wrap;html=1;fixedSize=1;direction=south;" parent="6wX9RSOuYod8_HCyn5d8-77" vertex="1">
          <mxGeometry width="20" height="120" as="geometry" />
        </mxCell>
        <mxCell id="6wX9RSOuYod8_HCyn5d8-79" value="0" style="text;html=1;align=center;verticalAlign=middle;whiteSpace=wrap;rounded=0;" parent="6wX9RSOuYod8_HCyn5d8-77" vertex="1">
          <mxGeometry y="20" width="20" height="30" as="geometry" />
        </mxCell>
        <mxCell id="6wX9RSOuYod8_HCyn5d8-80" value="1" style="text;html=1;align=center;verticalAlign=middle;whiteSpace=wrap;rounded=0;" parent="6wX9RSOuYod8_HCyn5d8-77" vertex="1">
          <mxGeometry y="70" width="20" height="30" as="geometry" />
        </mxCell>
        <mxCell id="6wX9RSOuYod8_HCyn5d8-81" value="" style="group" parent="1" vertex="1" connectable="0">
          <mxGeometry x="2860" y="1190" width="20" height="120" as="geometry" />
        </mxCell>
        <mxCell id="6wX9RSOuYod8_HCyn5d8-88" style="edgeStyle=orthogonalEdgeStyle;rounded=0;orthogonalLoop=1;jettySize=auto;html=1;" parent="6wX9RSOuYod8_HCyn5d8-81" source="6wX9RSOuYod8_HCyn5d8-82" edge="1">
          <mxGeometry relative="1" as="geometry">
            <mxPoint x="300" y="60" as="targetPoint" />
          </mxGeometry>
        </mxCell>
        <mxCell id="6wX9RSOuYod8_HCyn5d8-82" value="" style="shape=trapezoid;perimeter=trapezoidPerimeter;whiteSpace=wrap;html=1;fixedSize=1;direction=south;" parent="6wX9RSOuYod8_HCyn5d8-81" vertex="1">
          <mxGeometry width="20" height="120" as="geometry" />
        </mxCell>
        <mxCell id="6wX9RSOuYod8_HCyn5d8-83" value="&lt;font style=&quot;font-size: 14px;&quot;&gt;0&lt;/font&gt;" style="text;html=1;align=center;verticalAlign=middle;whiteSpace=wrap;rounded=0;" parent="6wX9RSOuYod8_HCyn5d8-81" vertex="1">
          <mxGeometry y="20" width="20" height="30" as="geometry" />
        </mxCell>
        <mxCell id="6wX9RSOuYod8_HCyn5d8-84" value="&lt;font style=&quot;font-size: 14px;&quot;&gt;1&lt;/font&gt;" style="text;html=1;align=center;verticalAlign=middle;whiteSpace=wrap;rounded=0;" parent="6wX9RSOuYod8_HCyn5d8-81" vertex="1">
          <mxGeometry y="70" width="20" height="30" as="geometry" />
        </mxCell>
        <mxCell id="6wX9RSOuYod8_HCyn5d8-85" style="edgeStyle=orthogonalEdgeStyle;rounded=0;orthogonalLoop=1;jettySize=auto;html=1;entryX=0;entryY=0.5;entryDx=0;entryDy=0;" parent="1" source="6wX9RSOuYod8_HCyn5d8-61" target="6wX9RSOuYod8_HCyn5d8-84" edge="1">
          <mxGeometry relative="1" as="geometry">
            <Array as="points">
              <mxPoint x="2760" y="1070" />
              <mxPoint x="2760" y="1275" />
            </Array>
          </mxGeometry>
        </mxCell>
        <mxCell id="6wX9RSOuYod8_HCyn5d8-86" value="&lt;font style=&quot;font-size: 20px;&quot;&gt;1&lt;/font&gt;" style="text;html=1;align=center;verticalAlign=middle;resizable=0;points=[];autosize=1;strokeColor=none;fillColor=none;" parent="1" vertex="1">
          <mxGeometry x="2790" y="1200" width="30" height="40" as="geometry" />
        </mxCell>
        <mxCell id="6wX9RSOuYod8_HCyn5d8-87" value="" style="endArrow=classic;html=1;rounded=0;entryX=0;entryY=0.5;entryDx=0;entryDy=0;exitX=0.902;exitY=0.62;exitDx=0;exitDy=0;exitPerimeter=0;" parent="1" source="6wX9RSOuYod8_HCyn5d8-86" target="6wX9RSOuYod8_HCyn5d8-83" edge="1">
          <mxGeometry width="50" height="50" relative="1" as="geometry">
            <mxPoint x="2810" y="1224" as="sourcePoint" />
            <mxPoint x="2860" y="1170" as="targetPoint" />
          </mxGeometry>
        </mxCell>
        <mxCell id="6wX9RSOuYod8_HCyn5d8-89" value="&lt;font style=&quot;font-size: 20px;&quot;&gt;data&lt;/font&gt;" style="text;html=1;align=center;verticalAlign=middle;resizable=0;points=[];autosize=1;strokeColor=none;fillColor=none;" parent="1" vertex="1">
          <mxGeometry x="1580" y="1058" width="60" height="40" as="geometry" />
        </mxCell>
        <mxCell id="6wX9RSOuYod8_HCyn5d8-90" value="" style="endArrow=none;html=1;rounded=0;exitX=0.869;exitY=1.122;exitDx=0;exitDy=0;exitPerimeter=0;" parent="1" source="6wX9RSOuYod8_HCyn5d8-89" edge="1">
          <mxGeometry width="50" height="50" relative="1" as="geometry">
            <mxPoint x="1630" y="1105" as="sourcePoint" />
            <mxPoint x="1650" y="1085" as="targetPoint" />
          </mxGeometry>
        </mxCell>
        <mxCell id="6wX9RSOuYod8_HCyn5d8-91" value="&lt;font style=&quot;font-size: 20px;&quot;&gt;8&lt;/font&gt;" style="text;html=1;align=center;verticalAlign=middle;resizable=0;points=[];autosize=1;strokeColor=none;fillColor=none;" parent="1" vertex="1">
          <mxGeometry x="1625" y="1098" width="30" height="40" as="geometry" />
        </mxCell>
        <mxCell id="_ncBwZEa-9cTrV1o3mGe-1" value="" style="endArrow=none;html=1;rounded=0;exitX=0.869;exitY=1.122;exitDx=0;exitDy=0;exitPerimeter=0;" parent="1" edge="1">
          <mxGeometry width="50" height="50" relative="1" as="geometry">
            <mxPoint x="2320" y="1133" as="sourcePoint" />
            <mxPoint x="2338" y="1115" as="targetPoint" />
          </mxGeometry>
        </mxCell>
        <mxCell id="_ncBwZEa-9cTrV1o3mGe-2" value="&lt;font style=&quot;font-size: 20px;&quot;&gt;9&lt;/font&gt;" style="text;html=1;align=center;verticalAlign=middle;resizable=0;points=[];autosize=1;strokeColor=none;fillColor=none;" parent="1" vertex="1">
          <mxGeometry x="2320" y="1080" width="30" height="40" as="geometry" />
        </mxCell>
        <mxCell id="_ncBwZEa-9cTrV1o3mGe-3" value="" style="endArrow=classic;html=1;rounded=0;entryX=0;entryY=0.25;entryDx=0;entryDy=0;exitX=1;exitY=0.625;exitDx=0;exitDy=0;exitPerimeter=0;" parent="1" source="_ncBwZEa-9cTrV1o3mGe-4" target="6wX9RSOuYod8_HCyn5d8-11" edge="1">
          <mxGeometry width="50" height="50" relative="1" as="geometry">
            <mxPoint x="1080" y="1095" as="sourcePoint" />
            <mxPoint x="1260" y="1088" as="targetPoint" />
          </mxGeometry>
        </mxCell>
        <mxCell id="_ncBwZEa-9cTrV1o3mGe-4" value="&lt;font style=&quot;font-size: 20px;&quot;&gt;raw_data&lt;/font&gt;" style="text;html=1;align=center;verticalAlign=middle;resizable=0;points=[];autosize=1;strokeColor=none;fillColor=none;" parent="1" vertex="1">
          <mxGeometry x="960" y="1070" width="110" height="40" as="geometry" />
        </mxCell>
        <mxCell id="_ncBwZEa-9cTrV1o3mGe-5" value="" style="endArrow=none;html=1;rounded=0;exitX=0.869;exitY=1.122;exitDx=0;exitDy=0;exitPerimeter=0;" parent="1" edge="1">
          <mxGeometry width="50" height="50" relative="1" as="geometry">
            <mxPoint x="1240" y="1103" as="sourcePoint" />
            <mxPoint x="1258" y="1085" as="targetPoint" />
          </mxGeometry>
        </mxCell>
        <mxCell id="_ncBwZEa-9cTrV1o3mGe-6" value="&lt;font style=&quot;font-size: 20px;&quot;&gt;8&lt;/font&gt;" style="text;html=1;align=center;verticalAlign=middle;resizable=0;points=[];autosize=1;strokeColor=none;fillColor=none;" parent="1" vertex="1">
          <mxGeometry x="1240" y="1050" width="30" height="40" as="geometry" />
        </mxCell>
        <mxCell id="_ncBwZEa-9cTrV1o3mGe-7" value="" style="group" parent="1" vertex="1" connectable="0">
          <mxGeometry x="1350" y="1585" width="180" height="175" as="geometry" />
        </mxCell>
        <mxCell id="_ncBwZEa-9cTrV1o3mGe-8" value="" style="group" parent="_ncBwZEa-9cTrV1o3mGe-7" vertex="1" connectable="0">
          <mxGeometry y="27.63157894736842" width="180" height="147.3684210526316" as="geometry" />
        </mxCell>
        <mxCell id="_ncBwZEa-9cTrV1o3mGe-9" value="&lt;font style=&quot;font-size: 20px;&quot;&gt;Baud_Reg&lt;/font&gt;" style="whiteSpace=wrap;html=1;aspect=fixed;" parent="_ncBwZEa-9cTrV1o3mGe-8" vertex="1">
          <mxGeometry y="-36.206896551724135" width="179.364" height="179.364" as="geometry" />
        </mxCell>
        <mxCell id="_ncBwZEa-9cTrV1o3mGe-10" value="" style="triangle;whiteSpace=wrap;html=1;" parent="_ncBwZEa-9cTrV1o3mGe-8" vertex="1">
          <mxGeometry y="92.10526315789474" width="18" height="36.8421052631579" as="geometry" />
        </mxCell>
        <mxCell id="_ncBwZEa-9cTrV1o3mGe-11" value="rst_n" style="text;html=1;align=center;verticalAlign=middle;whiteSpace=wrap;rounded=0;" parent="_ncBwZEa-9cTrV1o3mGe-8" vertex="1">
          <mxGeometry y="55.26315789473684" width="54" height="36.8421052631579" as="geometry" />
        </mxCell>
        <mxCell id="_ncBwZEa-9cTrV1o3mGe-12" value="en" style="text;html=1;align=center;verticalAlign=middle;whiteSpace=wrap;rounded=0;" parent="_ncBwZEa-9cTrV1o3mGe-8" vertex="1">
          <mxGeometry y="36.8421052631579" width="36" height="18.42105263157895" as="geometry" />
        </mxCell>
        <mxCell id="_ncBwZEa-9cTrV1o3mGe-13" value="&lt;font style=&quot;font-size: 16px;&quot;&gt;D&lt;/font&gt;" style="text;html=1;align=center;verticalAlign=middle;whiteSpace=wrap;rounded=0;" parent="_ncBwZEa-9cTrV1o3mGe-8" vertex="1">
          <mxGeometry x="18" y="-18.42105263157895" width="18" height="18.42105263157895" as="geometry" />
        </mxCell>
        <mxCell id="_ncBwZEa-9cTrV1o3mGe-14" value="&lt;font style=&quot;font-size: 16px;&quot;&gt;Q&lt;/font&gt;" style="text;html=1;align=center;verticalAlign=middle;whiteSpace=wrap;rounded=0;" parent="_ncBwZEa-9cTrV1o3mGe-7" vertex="1">
          <mxGeometry x="136.79999999999998" width="18" height="36.8421052631579" as="geometry" />
        </mxCell>
        <mxCell id="_ncBwZEa-9cTrV1o3mGe-15" value="&lt;font style=&quot;font-size: 20px;&quot;&gt;parity_bit&lt;/font&gt;" style="text;html=1;align=center;verticalAlign=middle;resizable=0;points=[];autosize=1;strokeColor=none;fillColor=none;" parent="1" vertex="1">
          <mxGeometry x="2140" y="1240" width="100" height="40" as="geometry" />
        </mxCell>
        <mxCell id="_ncBwZEa-9cTrV1o3mGe-17" value="" style="endArrow=classic;html=1;rounded=0;entryX=0;entryY=0.25;entryDx=0;entryDy=0;" parent="1" edge="1">
          <mxGeometry width="50" height="50" relative="1" as="geometry">
            <mxPoint x="1090" y="1600" as="sourcePoint" />
            <mxPoint x="1350" y="1600" as="targetPoint" />
          </mxGeometry>
        </mxCell>
        <mxCell id="_ncBwZEa-9cTrV1o3mGe-18" value="" style="endArrow=none;html=1;rounded=0;exitX=0.869;exitY=1.122;exitDx=0;exitDy=0;exitPerimeter=0;" parent="1" edge="1">
          <mxGeometry width="50" height="50" relative="1" as="geometry">
            <mxPoint x="1250" y="1608" as="sourcePoint" />
            <mxPoint x="1268" y="1590" as="targetPoint" />
          </mxGeometry>
        </mxCell>
        <mxCell id="_ncBwZEa-9cTrV1o3mGe-19" value="&lt;span style=&quot;font-size: 20px;&quot;&gt;14&lt;/span&gt;" style="text;html=1;align=center;verticalAlign=middle;resizable=0;points=[];autosize=1;strokeColor=none;fillColor=none;" parent="1" vertex="1">
          <mxGeometry x="1240" y="1555" width="50" height="40" as="geometry" />
        </mxCell>
        <mxCell id="_ncBwZEa-9cTrV1o3mGe-20" value="&lt;font style=&quot;font-size: 20px;&quot;&gt;baud_divisor&lt;/font&gt;" style="text;html=1;align=center;verticalAlign=middle;resizable=0;points=[];autosize=1;strokeColor=none;fillColor=none;" parent="1" vertex="1">
          <mxGeometry x="940" y="1578" width="140" height="40" as="geometry" />
        </mxCell>
        <mxCell id="_ncBwZEa-9cTrV1o3mGe-32" value="" style="group" parent="1" vertex="1" connectable="0">
          <mxGeometry x="1590" y="1805" width="470" height="350" as="geometry" />
        </mxCell>
        <mxCell id="_ncBwZEa-9cTrV1o3mGe-21" value="" style="group" parent="_ncBwZEa-9cTrV1o3mGe-32" vertex="1" connectable="0">
          <mxGeometry x="160" y="95" width="260" height="255" as="geometry" />
        </mxCell>
        <mxCell id="_ncBwZEa-9cTrV1o3mGe-22" value="" style="group" parent="_ncBwZEa-9cTrV1o3mGe-21" vertex="1" connectable="0">
          <mxGeometry y="40.26315789473684" width="260" height="214.73684210526318" as="geometry" />
        </mxCell>
        <mxCell id="_ncBwZEa-9cTrV1o3mGe-23" value="&lt;font style=&quot;font-size: 20px;&quot;&gt;Baud_Counter&lt;/font&gt;" style="whiteSpace=wrap;html=1;aspect=fixed;" parent="_ncBwZEa-9cTrV1o3mGe-22" vertex="1">
          <mxGeometry y="-53.684210526315795" width="248.02631578947373" height="248.02631578947373" as="geometry" />
        </mxCell>
        <mxCell id="_ncBwZEa-9cTrV1o3mGe-24" value="" style="triangle;whiteSpace=wrap;html=1;" parent="_ncBwZEa-9cTrV1o3mGe-22" vertex="1">
          <mxGeometry y="134.21" width="26" height="45.79" as="geometry" />
        </mxCell>
        <mxCell id="_ncBwZEa-9cTrV1o3mGe-25" value="reset" style="text;html=1;align=center;verticalAlign=middle;whiteSpace=wrap;rounded=0;" parent="_ncBwZEa-9cTrV1o3mGe-22" vertex="1">
          <mxGeometry y="80.53" width="70" height="53.68" as="geometry" />
        </mxCell>
        <mxCell id="_ncBwZEa-9cTrV1o3mGe-26" value="en" style="text;html=1;align=center;verticalAlign=middle;whiteSpace=wrap;rounded=0;" parent="_ncBwZEa-9cTrV1o3mGe-22" vertex="1">
          <mxGeometry y="53.684210526315795" width="52" height="26.842105263157897" as="geometry" />
        </mxCell>
        <mxCell id="_ncBwZEa-9cTrV1o3mGe-27" value="&lt;font style=&quot;font-size: 16px;&quot;&gt;D&lt;/font&gt;" style="text;html=1;align=center;verticalAlign=middle;whiteSpace=wrap;rounded=0;" parent="_ncBwZEa-9cTrV1o3mGe-22" vertex="1">
          <mxGeometry x="26" y="-26.842105263157897" width="26" height="26.842105263157897" as="geometry" />
        </mxCell>
        <mxCell id="_ncBwZEa-9cTrV1o3mGe-28" value="&lt;font style=&quot;font-size: 16px;&quot;&gt;Q&lt;/font&gt;" style="text;html=1;align=center;verticalAlign=middle;whiteSpace=wrap;rounded=0;" parent="_ncBwZEa-9cTrV1o3mGe-21" vertex="1">
          <mxGeometry x="197.6" width="26" height="53.684210526315795" as="geometry" />
        </mxCell>
        <mxCell id="_ncBwZEa-9cTrV1o3mGe-29" value="&lt;font style=&quot;font-size: 24px;&quot;&gt;+&lt;/font&gt;" style="ellipse;whiteSpace=wrap;html=1;aspect=fixed;" parent="_ncBwZEa-9cTrV1o3mGe-32" vertex="1">
          <mxGeometry x="20" y="80" width="80" height="80" as="geometry" />
        </mxCell>
        <mxCell id="_ncBwZEa-9cTrV1o3mGe-30" style="edgeStyle=orthogonalEdgeStyle;rounded=0;orthogonalLoop=1;jettySize=auto;html=1;entryX=0.04;entryY=0.155;entryDx=0;entryDy=0;entryPerimeter=0;" parent="_ncBwZEa-9cTrV1o3mGe-32" source="_ncBwZEa-9cTrV1o3mGe-29" target="_ncBwZEa-9cTrV1o3mGe-23" edge="1">
          <mxGeometry relative="1" as="geometry" />
        </mxCell>
        <mxCell id="_ncBwZEa-9cTrV1o3mGe-31" style="edgeStyle=orthogonalEdgeStyle;rounded=0;orthogonalLoop=1;jettySize=auto;html=1;entryX=0;entryY=0.5;entryDx=0;entryDy=0;exitX=1;exitY=0.5;exitDx=0;exitDy=0;" parent="_ncBwZEa-9cTrV1o3mGe-32" source="_ncBwZEa-9cTrV1o3mGe-28" target="_ncBwZEa-9cTrV1o3mGe-29" edge="1">
          <mxGeometry relative="1" as="geometry">
            <Array as="points">
              <mxPoint x="470" y="122" />
              <mxPoint x="470" />
              <mxPoint />
              <mxPoint y="120" />
            </Array>
          </mxGeometry>
        </mxCell>
        <mxCell id="_ncBwZEa-9cTrV1o3mGe-52" style="edgeStyle=orthogonalEdgeStyle;rounded=0;orthogonalLoop=1;jettySize=auto;html=1;" parent="1" source="_ncBwZEa-9cTrV1o3mGe-33" target="_ncBwZEa-9cTrV1o3mGe-39" edge="1">
          <mxGeometry relative="1" as="geometry">
            <mxPoint x="2120" y="2345" as="targetPoint" />
            <Array as="points">
              <mxPoint x="2119" y="1635" />
            </Array>
          </mxGeometry>
        </mxCell>
        <mxCell id="_ncBwZEa-9cTrV1o3mGe-33" value="&lt;font style=&quot;font-size: 22px;&quot;&gt;==&lt;/font&gt;" style="ellipse;whiteSpace=wrap;html=1;aspect=fixed;" parent="1" vertex="1">
          <mxGeometry x="1820" y="1595" width="80" height="80" as="geometry" />
        </mxCell>
        <mxCell id="_ncBwZEa-9cTrV1o3mGe-34" style="edgeStyle=orthogonalEdgeStyle;rounded=0;orthogonalLoop=1;jettySize=auto;html=1;entryX=0.5;entryY=0;entryDx=0;entryDy=0;" parent="1" source="_ncBwZEa-9cTrV1o3mGe-9" target="_ncBwZEa-9cTrV1o3mGe-33" edge="1">
          <mxGeometry relative="1" as="geometry">
            <Array as="points">
              <mxPoint x="1675" y="1605" />
              <mxPoint x="1675" y="1556" />
              <mxPoint x="1860" y="1556" />
            </Array>
          </mxGeometry>
        </mxCell>
        <mxCell id="_ncBwZEa-9cTrV1o3mGe-35" value="" style="endArrow=classic;html=1;rounded=0;entryX=0.5;entryY=1;entryDx=0;entryDy=0;" parent="1" source="_ncBwZEa-9cTrV1o3mGe-38" target="_ncBwZEa-9cTrV1o3mGe-33" edge="1">
          <mxGeometry width="50" height="50" relative="1" as="geometry">
            <mxPoint x="1860" y="1805" as="sourcePoint" />
            <mxPoint x="1940" y="1715" as="targetPoint" />
          </mxGeometry>
        </mxCell>
        <mxCell id="_ncBwZEa-9cTrV1o3mGe-38" value="" style="shape=ellipse;fillColor=#000000;strokeColor=none;html=1;sketch=0;" parent="1" vertex="1">
          <mxGeometry x="1855" y="1800" width="10" height="10" as="geometry" />
        </mxCell>
        <mxCell id="_ncBwZEa-9cTrV1o3mGe-51" value="" style="group" parent="1" vertex="1" connectable="0">
          <mxGeometry x="1750" y="2565" width="1174" height="310" as="geometry" />
        </mxCell>
        <mxCell id="_ncBwZEa-9cTrV1o3mGe-39" value="&lt;font style=&quot;font-size: 32px;&quot;&gt;Controller&lt;/font&gt;" style="rounded=0;whiteSpace=wrap;html=1;" parent="_ncBwZEa-9cTrV1o3mGe-51" vertex="1">
          <mxGeometry x="19" width="1155" height="310" as="geometry" />
        </mxCell>
        <mxCell id="_ncBwZEa-9cTrV1o3mGe-48" value="" style="triangle;whiteSpace=wrap;html=1;" parent="_ncBwZEa-9cTrV1o3mGe-51" vertex="1">
          <mxGeometry x="19" y="260" width="30" height="30" as="geometry" />
        </mxCell>
        <mxCell id="_ncBwZEa-9cTrV1o3mGe-50" value="rst_n" style="text;html=1;align=center;verticalAlign=middle;whiteSpace=wrap;rounded=0;" parent="_ncBwZEa-9cTrV1o3mGe-51" vertex="1">
          <mxGeometry y="200" width="78" height="53.684210526315795" as="geometry" />
        </mxCell>
        <mxCell id="_ncBwZEa-9cTrV1o3mGe-53" style="edgeStyle=orthogonalEdgeStyle;rounded=0;orthogonalLoop=1;jettySize=auto;html=1;entryX=0;entryY=0.75;entryDx=0;entryDy=0;" parent="1" source="_ncBwZEa-9cTrV1o3mGe-39" target="6wX9RSOuYod8_HCyn5d8-64" edge="1">
          <mxGeometry relative="1" as="geometry">
            <Array as="points">
              <mxPoint x="2180" y="1555" />
              <mxPoint x="2430" y="1555" />
              <mxPoint x="2430" y="1168" />
            </Array>
          </mxGeometry>
        </mxCell>
        <mxCell id="_ncBwZEa-9cTrV1o3mGe-54" value="" style="group" parent="1" vertex="1" connectable="0">
          <mxGeometry x="1490" y="2255" width="210" height="220" as="geometry" />
        </mxCell>
        <mxCell id="_ncBwZEa-9cTrV1o3mGe-55" value="" style="group" parent="_ncBwZEa-9cTrV1o3mGe-54" vertex="1" connectable="0">
          <mxGeometry y="34.73684210526316" width="210" height="185.26315789473685" as="geometry" />
        </mxCell>
        <mxCell id="_ncBwZEa-9cTrV1o3mGe-56" value="&lt;font style=&quot;font-size: 20px;&quot;&gt;Control_Reg&lt;/font&gt;" style="whiteSpace=wrap;html=1;aspect=fixed;" parent="_ncBwZEa-9cTrV1o3mGe-55" vertex="1">
          <mxGeometry y="-46.31578947368421" width="203.3103448275862" height="203.3103448275862" as="geometry" />
        </mxCell>
        <mxCell id="_ncBwZEa-9cTrV1o3mGe-57" value="" style="triangle;whiteSpace=wrap;html=1;" parent="_ncBwZEa-9cTrV1o3mGe-55" vertex="1">
          <mxGeometry y="100" width="21" height="41.58" as="geometry" />
        </mxCell>
        <mxCell id="_ncBwZEa-9cTrV1o3mGe-58" value="rst_n" style="text;html=1;align=center;verticalAlign=middle;whiteSpace=wrap;rounded=0;" parent="_ncBwZEa-9cTrV1o3mGe-55" vertex="1">
          <mxGeometry y="69.47368421052632" width="63.00000000000001" height="46.31578947368421" as="geometry" />
        </mxCell>
        <mxCell id="_ncBwZEa-9cTrV1o3mGe-59" value="en" style="text;html=1;align=center;verticalAlign=middle;whiteSpace=wrap;rounded=0;" parent="_ncBwZEa-9cTrV1o3mGe-55" vertex="1">
          <mxGeometry y="46.31578947368421" width="42" height="23.157894736842106" as="geometry" />
        </mxCell>
        <mxCell id="_ncBwZEa-9cTrV1o3mGe-60" value="&lt;font style=&quot;font-size: 16px;&quot;&gt;D&lt;/font&gt;" style="text;html=1;align=center;verticalAlign=middle;whiteSpace=wrap;rounded=0;" parent="_ncBwZEa-9cTrV1o3mGe-55" vertex="1">
          <mxGeometry x="21" y="-23.157894736842106" width="21" height="23.157894736842106" as="geometry" />
        </mxCell>
        <mxCell id="_ncBwZEa-9cTrV1o3mGe-61" value="&lt;font style=&quot;font-size: 16px;&quot;&gt;Q&lt;/font&gt;" style="text;html=1;align=center;verticalAlign=middle;whiteSpace=wrap;rounded=0;" parent="_ncBwZEa-9cTrV1o3mGe-54" vertex="1">
          <mxGeometry x="159.6" width="21" height="46.31578947368421" as="geometry" />
        </mxCell>
        <mxCell id="_ncBwZEa-9cTrV1o3mGe-62" value="" style="rounded=0;whiteSpace=wrap;html=1;" parent="1" vertex="1">
          <mxGeometry x="1370" y="2215" width="10" height="140" as="geometry" />
        </mxCell>
        <mxCell id="_ncBwZEa-9cTrV1o3mGe-63" value="" style="endArrow=classic;html=1;rounded=0;entryX=0;entryY=0.143;entryDx=0;entryDy=0;entryPerimeter=0;" parent="1" source="_ncBwZEa-9cTrV1o3mGe-69" target="_ncBwZEa-9cTrV1o3mGe-62" edge="1">
          <mxGeometry width="50" height="50" relative="1" as="geometry">
            <mxPoint x="1180" y="2235" as="sourcePoint" />
            <mxPoint x="1280" y="2235" as="targetPoint" />
          </mxGeometry>
        </mxCell>
        <mxCell id="_ncBwZEa-9cTrV1o3mGe-64" value="" style="endArrow=classic;html=1;rounded=0;entryX=0;entryY=0.143;entryDx=0;entryDy=0;entryPerimeter=0;exitX=1.045;exitY=0.475;exitDx=0;exitDy=0;exitPerimeter=0;" parent="1" source="_ncBwZEa-9cTrV1o3mGe-71" edge="1">
          <mxGeometry width="50" height="50" relative="1" as="geometry">
            <mxPoint x="1180" y="2284.17" as="sourcePoint" />
            <mxPoint x="1370" y="2284.17" as="targetPoint" />
          </mxGeometry>
        </mxCell>
        <mxCell id="_ncBwZEa-9cTrV1o3mGe-65" value="" style="endArrow=classic;html=1;rounded=0;entryX=0;entryY=0.143;entryDx=0;entryDy=0;entryPerimeter=0;exitX=1.017;exitY=0.488;exitDx=0;exitDy=0;exitPerimeter=0;" parent="1" source="_ncBwZEa-9cTrV1o3mGe-72" edge="1">
          <mxGeometry width="50" height="50" relative="1" as="geometry">
            <mxPoint x="1180" y="2335" as="sourcePoint" />
            <mxPoint x="1370" y="2335" as="targetPoint" />
          </mxGeometry>
        </mxCell>
        <mxCell id="_ncBwZEa-9cTrV1o3mGe-66" style="edgeStyle=orthogonalEdgeStyle;rounded=0;orthogonalLoop=1;jettySize=auto;html=1;entryX=0.033;entryY=0.183;entryDx=0;entryDy=0;entryPerimeter=0;" parent="1" source="_ncBwZEa-9cTrV1o3mGe-62" target="_ncBwZEa-9cTrV1o3mGe-56" edge="1">
          <mxGeometry relative="1" as="geometry">
            <Array as="points">
              <mxPoint x="1435" y="2281" />
            </Array>
          </mxGeometry>
        </mxCell>
        <mxCell id="_ncBwZEa-9cTrV1o3mGe-67" value="" style="endArrow=none;html=1;rounded=0;exitX=0.869;exitY=1.122;exitDx=0;exitDy=0;exitPerimeter=0;" parent="1" edge="1">
          <mxGeometry width="50" height="50" relative="1" as="geometry">
            <mxPoint x="1420" y="2294" as="sourcePoint" />
            <mxPoint x="1450" y="2265" as="targetPoint" />
          </mxGeometry>
        </mxCell>
        <mxCell id="_ncBwZEa-9cTrV1o3mGe-68" value="&lt;font style=&quot;font-size: 20px;&quot;&gt;3&lt;/font&gt;" style="text;html=1;align=center;verticalAlign=middle;resizable=0;points=[];autosize=1;strokeColor=none;fillColor=none;" parent="1" vertex="1">
          <mxGeometry x="1430" y="2230" width="30" height="40" as="geometry" />
        </mxCell>
        <mxCell id="_ncBwZEa-9cTrV1o3mGe-69" value="&lt;font style=&quot;font-size: 20px;&quot;&gt;Tx_en&lt;/font&gt;" style="text;html=1;align=center;verticalAlign=middle;resizable=0;points=[];autosize=1;strokeColor=none;fillColor=none;" parent="1" vertex="1">
          <mxGeometry x="980" y="2215" width="80" height="40" as="geometry" />
        </mxCell>
        <mxCell id="_ncBwZEa-9cTrV1o3mGe-71" value="&lt;font style=&quot;font-size: 20px;&quot;&gt;Two_stop&lt;/font&gt;" style="text;html=1;align=center;verticalAlign=middle;resizable=0;points=[];autosize=1;strokeColor=none;fillColor=none;" parent="1" vertex="1">
          <mxGeometry x="955" y="2265" width="110" height="40" as="geometry" />
        </mxCell>
        <mxCell id="_ncBwZEa-9cTrV1o3mGe-72" value="&lt;font style=&quot;font-size: 20px;&quot;&gt;Odd_parity&lt;/font&gt;" style="text;html=1;align=center;verticalAlign=middle;resizable=0;points=[];autosize=1;strokeColor=none;fillColor=none;" parent="1" vertex="1">
          <mxGeometry x="950" y="2315" width="120" height="40" as="geometry" />
        </mxCell>
        <mxCell id="_ncBwZEa-9cTrV1o3mGe-73" value="" style="rounded=0;whiteSpace=wrap;html=1;" parent="1" vertex="1">
          <mxGeometry x="1770" y="2215" width="10" height="140" as="geometry" />
        </mxCell>
        <mxCell id="_ncBwZEa-9cTrV1o3mGe-74" style="edgeStyle=orthogonalEdgeStyle;rounded=0;orthogonalLoop=1;jettySize=auto;html=1;entryX=-0.038;entryY=0.449;entryDx=0;entryDy=0;entryPerimeter=0;" parent="1" source="_ncBwZEa-9cTrV1o3mGe-61" target="_ncBwZEa-9cTrV1o3mGe-73" edge="1">
          <mxGeometry relative="1" as="geometry" />
        </mxCell>
        <mxCell id="_ncBwZEa-9cTrV1o3mGe-75" value="" style="endArrow=none;html=1;rounded=0;exitX=0.869;exitY=1.122;exitDx=0;exitDy=0;exitPerimeter=0;" parent="1" edge="1">
          <mxGeometry width="50" height="50" relative="1" as="geometry">
            <mxPoint x="1710" y="2294" as="sourcePoint" />
            <mxPoint x="1740" y="2265" as="targetPoint" />
          </mxGeometry>
        </mxCell>
        <mxCell id="_ncBwZEa-9cTrV1o3mGe-76" value="&lt;font style=&quot;font-size: 20px;&quot;&gt;3&lt;/font&gt;" style="text;html=1;align=center;verticalAlign=middle;resizable=0;points=[];autosize=1;strokeColor=none;fillColor=none;" parent="1" vertex="1">
          <mxGeometry x="1720" y="2230" width="30" height="40" as="geometry" />
        </mxCell>
        <mxCell id="x9bZWF7ZNE7OkXFcOwQj-1" value="" style="endArrow=none;html=1;rounded=0;" parent="1" edge="1">
          <mxGeometry width="50" height="50" relative="1" as="geometry">
            <mxPoint x="1780" y="2245" as="sourcePoint" />
            <mxPoint x="1840" y="2245" as="targetPoint" />
          </mxGeometry>
        </mxCell>
        <mxCell id="x9bZWF7ZNE7OkXFcOwQj-3" value="" style="endArrow=none;html=1;rounded=0;" parent="1" edge="1">
          <mxGeometry width="50" height="50" relative="1" as="geometry">
            <mxPoint x="1780" y="2284.52" as="sourcePoint" />
            <mxPoint x="2380" y="2285" as="targetPoint" />
          </mxGeometry>
        </mxCell>
        <mxCell id="x9bZWF7ZNE7OkXFcOwQj-4" value="" style="endArrow=none;html=1;rounded=0;" parent="1" edge="1">
          <mxGeometry width="50" height="50" relative="1" as="geometry">
            <mxPoint x="1780" y="2325" as="sourcePoint" />
            <mxPoint x="1840" y="2325" as="targetPoint" />
          </mxGeometry>
        </mxCell>
        <mxCell id="x9bZWF7ZNE7OkXFcOwQj-5" value="" style="endArrow=classic;html=1;rounded=0;" parent="1" edge="1">
          <mxGeometry width="50" height="50" relative="1" as="geometry">
            <mxPoint x="1840" y="2325" as="sourcePoint" />
            <mxPoint x="1840" y="2565" as="targetPoint" />
          </mxGeometry>
        </mxCell>
        <mxCell id="x9bZWF7ZNE7OkXFcOwQj-6" value="&lt;font style=&quot;font-size: 20px;&quot;&gt;Tx_en_r&lt;/font&gt;" style="text;html=1;align=center;verticalAlign=middle;resizable=0;points=[];autosize=1;strokeColor=none;fillColor=none;" parent="1" vertex="1">
          <mxGeometry x="1840" y="2445" width="100" height="40" as="geometry" />
        </mxCell>
        <mxCell id="x9bZWF7ZNE7OkXFcOwQj-8" value="" style="endArrow=none;html=1;rounded=0;" parent="1" edge="1">
          <mxGeometry width="50" height="50" relative="1" as="geometry">
            <mxPoint x="1840" y="2245" as="sourcePoint" />
            <mxPoint x="1840" y="2185" as="targetPoint" />
          </mxGeometry>
        </mxCell>
        <mxCell id="x9bZWF7ZNE7OkXFcOwQj-12" value="&lt;font style=&quot;font-size: 20px;&quot;&gt;Odd_parity_r&lt;/font&gt;" style="text;html=1;align=center;verticalAlign=middle;resizable=0;points=[];autosize=1;strokeColor=none;fillColor=none;" parent="1" vertex="1">
          <mxGeometry x="1830" y="2218" width="140" height="40" as="geometry" />
        </mxCell>
        <mxCell id="x9bZWF7ZNE7OkXFcOwQj-13" value="&lt;font style=&quot;font-size: 20px;&quot;&gt;shift_en&lt;/font&gt;" style="text;html=1;align=center;verticalAlign=middle;resizable=0;points=[];autosize=1;strokeColor=none;fillColor=none;" parent="1" vertex="1">
          <mxGeometry x="2440" y="1270" width="90" height="40" as="geometry" />
        </mxCell>
        <mxCell id="x9bZWF7ZNE7OkXFcOwQj-27" value="" style="group" parent="1" vertex="1" connectable="0">
          <mxGeometry x="2370" y="2155" width="20" height="120" as="geometry" />
        </mxCell>
        <mxCell id="x9bZWF7ZNE7OkXFcOwQj-28" value="" style="shape=trapezoid;perimeter=trapezoidPerimeter;whiteSpace=wrap;html=1;fixedSize=1;direction=south;" parent="x9bZWF7ZNE7OkXFcOwQj-27" vertex="1">
          <mxGeometry width="20" height="120" as="geometry" />
        </mxCell>
        <mxCell id="x9bZWF7ZNE7OkXFcOwQj-29" value="&lt;font style=&quot;font-size: 14px;&quot;&gt;0&lt;/font&gt;" style="text;html=1;align=center;verticalAlign=middle;whiteSpace=wrap;rounded=0;" parent="x9bZWF7ZNE7OkXFcOwQj-27" vertex="1">
          <mxGeometry y="20" width="20" height="30" as="geometry" />
        </mxCell>
        <mxCell id="x9bZWF7ZNE7OkXFcOwQj-30" value="&lt;font style=&quot;font-size: 14px;&quot;&gt;1&lt;/font&gt;" style="text;html=1;align=center;verticalAlign=middle;whiteSpace=wrap;rounded=0;" parent="x9bZWF7ZNE7OkXFcOwQj-27" vertex="1">
          <mxGeometry y="70" width="20" height="30" as="geometry" />
        </mxCell>
        <mxCell id="x9bZWF7ZNE7OkXFcOwQj-31" value="" style="endArrow=classic;html=1;rounded=0;entryX=1;entryY=0.5;entryDx=0;entryDy=0;" parent="x9bZWF7ZNE7OkXFcOwQj-27" target="x9bZWF7ZNE7OkXFcOwQj-28" edge="1">
          <mxGeometry width="50" height="50" relative="1" as="geometry">
            <mxPoint x="10" y="130" as="sourcePoint" />
            <mxPoint x="60" y="80" as="targetPoint" />
          </mxGeometry>
        </mxCell>
        <mxCell id="x9bZWF7ZNE7OkXFcOwQj-33" value="" style="endArrow=classic;html=1;rounded=0;" parent="1" edge="1">
          <mxGeometry width="50" height="50" relative="1" as="geometry">
            <mxPoint x="2290" y="2190" as="sourcePoint" />
            <mxPoint x="2370" y="2190" as="targetPoint" />
          </mxGeometry>
        </mxCell>
        <mxCell id="x9bZWF7ZNE7OkXFcOwQj-34" value="&lt;font style=&quot;font-size: 20px;&quot;&gt;11&lt;/font&gt;" style="text;html=1;align=center;verticalAlign=middle;resizable=0;points=[];autosize=1;strokeColor=none;fillColor=none;" parent="1" vertex="1">
          <mxGeometry x="2250" y="2168" width="40" height="40" as="geometry" />
        </mxCell>
        <mxCell id="x9bZWF7ZNE7OkXFcOwQj-35" value="" style="endArrow=classic;html=1;rounded=0;" parent="1" edge="1">
          <mxGeometry width="50" height="50" relative="1" as="geometry">
            <mxPoint x="2290" y="2238" as="sourcePoint" />
            <mxPoint x="2370" y="2238" as="targetPoint" />
          </mxGeometry>
        </mxCell>
        <mxCell id="x9bZWF7ZNE7OkXFcOwQj-36" value="&lt;font style=&quot;font-size: 20px;&quot;&gt;12&lt;/font&gt;" style="text;html=1;align=center;verticalAlign=middle;resizable=0;points=[];autosize=1;strokeColor=none;fillColor=none;" parent="1" vertex="1">
          <mxGeometry x="2245" y="2218" width="50" height="40" as="geometry" />
        </mxCell>
        <mxCell id="x9bZWF7ZNE7OkXFcOwQj-60" style="edgeStyle=orthogonalEdgeStyle;rounded=0;orthogonalLoop=1;jettySize=auto;html=1;" parent="1" source="x9bZWF7ZNE7OkXFcOwQj-37" edge="1">
          <mxGeometry relative="1" as="geometry">
            <mxPoint x="2550" y="2565" as="targetPoint" />
          </mxGeometry>
        </mxCell>
        <mxCell id="x9bZWF7ZNE7OkXFcOwQj-37" value="&lt;font style=&quot;font-size: 22px;&quot;&gt;==&lt;/font&gt;" style="ellipse;whiteSpace=wrap;html=1;aspect=fixed;" parent="1" vertex="1">
          <mxGeometry x="2450" y="2295" width="80" height="80" as="geometry" />
        </mxCell>
        <mxCell id="x9bZWF7ZNE7OkXFcOwQj-39" style="edgeStyle=orthogonalEdgeStyle;rounded=0;orthogonalLoop=1;jettySize=auto;html=1;entryX=0.5;entryY=1;entryDx=0;entryDy=0;" parent="1" source="x9bZWF7ZNE7OkXFcOwQj-28" target="x9bZWF7ZNE7OkXFcOwQj-37" edge="1">
          <mxGeometry relative="1" as="geometry">
            <Array as="points">
              <mxPoint x="2410" y="2215" />
              <mxPoint x="2410" y="2435" />
              <mxPoint x="2490" y="2435" />
            </Array>
          </mxGeometry>
        </mxCell>
        <mxCell id="x9bZWF7ZNE7OkXFcOwQj-40" value="" style="group" parent="1" vertex="1" connectable="0">
          <mxGeometry x="2240" y="1760" width="475" height="350" as="geometry" />
        </mxCell>
        <mxCell id="x9bZWF7ZNE7OkXFcOwQj-41" value="" style="group" parent="x9bZWF7ZNE7OkXFcOwQj-40" vertex="1" connectable="0">
          <mxGeometry x="160" y="95" width="260" height="255" as="geometry" />
        </mxCell>
        <mxCell id="x9bZWF7ZNE7OkXFcOwQj-42" value="" style="group" parent="x9bZWF7ZNE7OkXFcOwQj-41" vertex="1" connectable="0">
          <mxGeometry y="40.26315789473684" width="260" height="214.73684210526318" as="geometry" />
        </mxCell>
        <mxCell id="x9bZWF7ZNE7OkXFcOwQj-43" value="&lt;font style=&quot;font-size: 20px;&quot;&gt;Bit_Counter&lt;/font&gt;" style="whiteSpace=wrap;html=1;aspect=fixed;" parent="x9bZWF7ZNE7OkXFcOwQj-42" vertex="1">
          <mxGeometry y="-53.684210526315795" width="248.02631578947373" height="248.02631578947373" as="geometry" />
        </mxCell>
        <mxCell id="x9bZWF7ZNE7OkXFcOwQj-44" value="" style="triangle;whiteSpace=wrap;html=1;" parent="x9bZWF7ZNE7OkXFcOwQj-42" vertex="1">
          <mxGeometry y="134.21" width="26" height="45.79" as="geometry" />
        </mxCell>
        <mxCell id="x9bZWF7ZNE7OkXFcOwQj-45" value="reset" style="text;html=1;align=center;verticalAlign=middle;whiteSpace=wrap;rounded=0;" parent="x9bZWF7ZNE7OkXFcOwQj-42" vertex="1">
          <mxGeometry y="80.53" width="60" height="53.68" as="geometry" />
        </mxCell>
        <mxCell id="x9bZWF7ZNE7OkXFcOwQj-46" value="en" style="text;html=1;align=center;verticalAlign=middle;whiteSpace=wrap;rounded=0;" parent="x9bZWF7ZNE7OkXFcOwQj-42" vertex="1">
          <mxGeometry y="53.684210526315795" width="52" height="26.842105263157897" as="geometry" />
        </mxCell>
        <mxCell id="x9bZWF7ZNE7OkXFcOwQj-47" value="&lt;font style=&quot;font-size: 16px;&quot;&gt;D&lt;/font&gt;" style="text;html=1;align=center;verticalAlign=middle;whiteSpace=wrap;rounded=0;" parent="x9bZWF7ZNE7OkXFcOwQj-42" vertex="1">
          <mxGeometry x="26" y="-26.842105263157897" width="26" height="26.842105263157897" as="geometry" />
        </mxCell>
        <mxCell id="x9bZWF7ZNE7OkXFcOwQj-48" value="&lt;font style=&quot;font-size: 16px;&quot;&gt;Q&lt;/font&gt;" style="text;html=1;align=center;verticalAlign=middle;whiteSpace=wrap;rounded=0;" parent="x9bZWF7ZNE7OkXFcOwQj-41" vertex="1">
          <mxGeometry x="197.6" width="26" height="53.684210526315795" as="geometry" />
        </mxCell>
        <mxCell id="x9bZWF7ZNE7OkXFcOwQj-49" value="&lt;font style=&quot;font-size: 24px;&quot;&gt;+&lt;/font&gt;" style="ellipse;whiteSpace=wrap;html=1;aspect=fixed;" parent="x9bZWF7ZNE7OkXFcOwQj-40" vertex="1">
          <mxGeometry x="20" y="80" width="80" height="80" as="geometry" />
        </mxCell>
        <mxCell id="x9bZWF7ZNE7OkXFcOwQj-50" style="edgeStyle=orthogonalEdgeStyle;rounded=0;orthogonalLoop=1;jettySize=auto;html=1;entryX=0.04;entryY=0.155;entryDx=0;entryDy=0;entryPerimeter=0;" parent="x9bZWF7ZNE7OkXFcOwQj-40" source="x9bZWF7ZNE7OkXFcOwQj-49" target="x9bZWF7ZNE7OkXFcOwQj-43" edge="1">
          <mxGeometry relative="1" as="geometry" />
        </mxCell>
        <mxCell id="x9bZWF7ZNE7OkXFcOwQj-51" style="edgeStyle=orthogonalEdgeStyle;rounded=0;orthogonalLoop=1;jettySize=auto;html=1;entryX=0;entryY=0.5;entryDx=0;entryDy=0;exitX=1;exitY=0.5;exitDx=0;exitDy=0;" parent="x9bZWF7ZNE7OkXFcOwQj-40" source="x9bZWF7ZNE7OkXFcOwQj-48" target="x9bZWF7ZNE7OkXFcOwQj-49" edge="1">
          <mxGeometry relative="1" as="geometry">
            <Array as="points">
              <mxPoint x="470" y="122" />
              <mxPoint x="470" />
              <mxPoint />
              <mxPoint y="120" />
            </Array>
          </mxGeometry>
        </mxCell>
        <mxCell id="x9bZWF7ZNE7OkXFcOwQj-56" value="" style="endArrow=none;html=1;rounded=0;" parent="x9bZWF7ZNE7OkXFcOwQj-40" target="oTuPl_SHIkAHztkOATzS-3" edge="1">
          <mxGeometry width="50" height="50" relative="1" as="geometry">
            <mxPoint x="470" y="445" as="sourcePoint" />
            <mxPoint x="470" y="120" as="targetPoint" />
          </mxGeometry>
        </mxCell>
        <mxCell id="oTuPl_SHIkAHztkOATzS-3" value="" style="shape=ellipse;fillColor=#000000;strokeColor=none;html=1;sketch=0;" parent="x9bZWF7ZNE7OkXFcOwQj-40" vertex="1">
          <mxGeometry x="465" y="115" width="10" height="10" as="geometry" />
        </mxCell>
        <mxCell id="x9bZWF7ZNE7OkXFcOwQj-57" value="" style="endArrow=none;html=1;rounded=0;" parent="1" target="5zZxHuOXzXMfIDeEadyb-32" edge="1">
          <mxGeometry width="50" height="50" relative="1" as="geometry">
            <mxPoint x="2490" y="2205" as="sourcePoint" />
            <mxPoint x="2710" y="2205" as="targetPoint" />
          </mxGeometry>
        </mxCell>
        <mxCell id="x9bZWF7ZNE7OkXFcOwQj-58" value="" style="endArrow=classic;html=1;rounded=0;entryX=0.5;entryY=0;entryDx=0;entryDy=0;" parent="1" target="x9bZWF7ZNE7OkXFcOwQj-37" edge="1">
          <mxGeometry width="50" height="50" relative="1" as="geometry">
            <mxPoint x="2490" y="2205" as="sourcePoint" />
            <mxPoint x="2540" y="2155" as="targetPoint" />
          </mxGeometry>
        </mxCell>
        <mxCell id="oTuPl_SHIkAHztkOATzS-4" value="&lt;font style=&quot;font-size: 20px;&quot;&gt;baud_divisor_r&lt;/font&gt;" style="text;html=1;align=center;verticalAlign=middle;resizable=0;points=[];autosize=1;strokeColor=none;fillColor=none;" parent="1" vertex="1">
          <mxGeometry x="1670" y="1515" width="150" height="40" as="geometry" />
        </mxCell>
        <mxCell id="oTuPl_SHIkAHztkOATzS-5" value="&lt;font style=&quot;font-size: 20px;&quot;&gt;baud_count&lt;/font&gt;" style="text;html=1;align=center;verticalAlign=middle;resizable=0;points=[];autosize=1;strokeColor=none;fillColor=none;" parent="1" vertex="1">
          <mxGeometry x="1855" y="1720" width="130" height="40" as="geometry" />
        </mxCell>
        <mxCell id="oTuPl_SHIkAHztkOATzS-6" value="&lt;font style=&quot;font-size: 20px;&quot;&gt;bit_count&lt;/font&gt;" style="text;html=1;align=center;verticalAlign=middle;resizable=0;points=[];autosize=1;strokeColor=none;fillColor=none;" parent="1" vertex="1">
          <mxGeometry x="2400" y="1713" width="100" height="40" as="geometry" />
        </mxCell>
        <mxCell id="oTuPl_SHIkAHztkOATzS-8" value="" style="group" parent="1" vertex="1" connectable="0">
          <mxGeometry x="1770" y="1080" width="160" height="150" as="geometry" />
        </mxCell>
        <mxCell id="oTuPl_SHIkAHztkOATzS-9" value="" style="group" parent="oTuPl_SHIkAHztkOATzS-8" vertex="1" connectable="0">
          <mxGeometry y="23.68421052631579" width="160" height="126.31578947368422" as="geometry" />
        </mxCell>
        <mxCell id="oTuPl_SHIkAHztkOATzS-10" value="&lt;font style=&quot;font-size: 20px;&quot;&gt;Tx_FIFO&lt;/font&gt;" style="whiteSpace=wrap;html=1;aspect=fixed;" parent="oTuPl_SHIkAHztkOATzS-9" vertex="1">
          <mxGeometry y="-31.578947368421055" width="157.89473684210526" height="157.89473684210526" as="geometry" />
        </mxCell>
        <mxCell id="oTuPl_SHIkAHztkOATzS-11" value="" style="triangle;whiteSpace=wrap;html=1;" parent="oTuPl_SHIkAHztkOATzS-9" vertex="1">
          <mxGeometry y="78.94736842105263" width="16" height="31.578947368421055" as="geometry" />
        </mxCell>
        <mxCell id="oTuPl_SHIkAHztkOATzS-12" value="reset" style="text;html=1;align=center;verticalAlign=middle;whiteSpace=wrap;rounded=0;" parent="oTuPl_SHIkAHztkOATzS-9" vertex="1">
          <mxGeometry y="47.36842105263158" width="48" height="31.578947368421055" as="geometry" />
        </mxCell>
        <mxCell id="oTuPl_SHIkAHztkOATzS-13" value="en" style="text;html=1;align=center;verticalAlign=middle;whiteSpace=wrap;rounded=0;" parent="oTuPl_SHIkAHztkOATzS-9" vertex="1">
          <mxGeometry y="31.578947368421055" width="32" height="15.789473684210527" as="geometry" />
        </mxCell>
        <mxCell id="oTuPl_SHIkAHztkOATzS-14" value="&lt;font style=&quot;font-size: 16px;&quot;&gt;D&lt;/font&gt;" style="text;html=1;align=center;verticalAlign=middle;whiteSpace=wrap;rounded=0;" parent="oTuPl_SHIkAHztkOATzS-9" vertex="1">
          <mxGeometry x="16" y="-15.789473684210527" width="16" height="15.789473684210527" as="geometry" />
        </mxCell>
        <mxCell id="oTuPl_SHIkAHztkOATzS-15" value="&lt;font style=&quot;font-size: 16px;&quot;&gt;Q&lt;/font&gt;" style="text;html=1;align=center;verticalAlign=middle;whiteSpace=wrap;rounded=0;" parent="oTuPl_SHIkAHztkOATzS-8" vertex="1">
          <mxGeometry x="121.60000000000001" width="16" height="31.578947368421055" as="geometry" />
        </mxCell>
        <mxCell id="oTuPl_SHIkAHztkOATzS-16" style="edgeStyle=orthogonalEdgeStyle;rounded=0;orthogonalLoop=1;jettySize=auto;html=1;entryX=0;entryY=0.25;entryDx=0;entryDy=0;" parent="1" source="6wX9RSOuYod8_HCyn5d8-56" target="6wX9RSOuYod8_HCyn5d8-35" edge="1">
          <mxGeometry relative="1" as="geometry">
            <Array as="points">
              <mxPoint x="2094" y="1093" />
            </Array>
          </mxGeometry>
        </mxCell>
        <mxCell id="oTuPl_SHIkAHztkOATzS-18" value="" style="endArrow=none;html=1;rounded=0;exitX=0.869;exitY=1.122;exitDx=0;exitDy=0;exitPerimeter=0;" parent="1" edge="1">
          <mxGeometry width="50" height="50" relative="1" as="geometry">
            <mxPoint x="2067" y="1103" as="sourcePoint" />
            <mxPoint x="2085" y="1085" as="targetPoint" />
          </mxGeometry>
        </mxCell>
        <mxCell id="oTuPl_SHIkAHztkOATzS-19" value="&lt;font style=&quot;font-size: 20px;&quot;&gt;8&lt;/font&gt;" style="text;html=1;align=center;verticalAlign=middle;resizable=0;points=[];autosize=1;strokeColor=none;fillColor=none;" parent="1" vertex="1">
          <mxGeometry x="2060" y="1098" width="30" height="40" as="geometry" />
        </mxCell>
        <mxCell id="Zj1SA48FQViOhUGAzQv7-1" value="&lt;font style=&quot;font-size: 20px;&quot;&gt;baud_eq&lt;/font&gt;" style="text;html=1;align=center;verticalAlign=middle;resizable=0;points=[];autosize=1;strokeColor=none;fillColor=none;" parent="1" vertex="1">
          <mxGeometry x="2025" y="2463" width="100" height="40" as="geometry" />
        </mxCell>
        <mxCell id="Zj1SA48FQViOhUGAzQv7-2" value="&lt;font style=&quot;font-size: 20px;&quot;&gt;bit_eq&lt;/font&gt;" style="text;html=1;align=center;verticalAlign=middle;resizable=0;points=[];autosize=1;strokeColor=none;fillColor=none;" parent="1" vertex="1">
          <mxGeometry x="2550" y="2463" width="80" height="40" as="geometry" />
        </mxCell>
        <mxCell id="jvAKZ0HL3v9La-zUdgxE-1" style="edgeStyle=orthogonalEdgeStyle;rounded=0;orthogonalLoop=1;jettySize=auto;html=1;entryX=0.427;entryY=0.975;entryDx=0;entryDy=0;entryPerimeter=0;" parent="1" source="5zZxHuOXzXMfIDeEadyb-22" target="6wX9RSOuYod8_HCyn5d8-61" edge="1">
          <mxGeometry relative="1" as="geometry">
            <mxPoint x="2740" y="2567" as="sourcePoint" />
            <Array as="points">
              <mxPoint x="2740" y="2567" />
              <mxPoint x="2740" y="1250" />
              <mxPoint x="2551" y="1250" />
            </Array>
          </mxGeometry>
        </mxCell>
        <mxCell id="jvAKZ0HL3v9La-zUdgxE-3" style="edgeStyle=orthogonalEdgeStyle;rounded=0;orthogonalLoop=1;jettySize=auto;html=1;" parent="1" edge="1">
          <mxGeometry relative="1" as="geometry">
            <mxPoint x="2870" y="2150" as="sourcePoint" />
            <mxPoint x="2870" y="1300" as="targetPoint" />
            <Array as="points">
              <mxPoint x="2870" y="2460" />
              <mxPoint x="2870" y="2460" />
            </Array>
          </mxGeometry>
        </mxCell>
        <mxCell id="jvAKZ0HL3v9La-zUdgxE-4" value="&lt;font style=&quot;font-size: 20px;&quot;&gt;Tx_sel&lt;/font&gt;" style="text;html=1;align=center;verticalAlign=middle;resizable=0;points=[];autosize=1;strokeColor=none;fillColor=none;" parent="1" vertex="1">
          <mxGeometry x="2870" y="1350" width="80" height="40" as="geometry" />
        </mxCell>
        <mxCell id="jvAKZ0HL3v9La-zUdgxE-5" style="edgeStyle=orthogonalEdgeStyle;rounded=0;orthogonalLoop=1;jettySize=auto;html=1;entryX=0;entryY=0.5;entryDx=0;entryDy=0;exitX=0.214;exitY=0.005;exitDx=0;exitDy=0;exitPerimeter=0;" parent="1" source="jvAKZ0HL3v9La-zUdgxE-18" target="x9bZWF7ZNE7OkXFcOwQj-46" edge="1">
          <mxGeometry relative="1" as="geometry">
            <mxPoint x="2017" y="2580" as="sourcePoint" />
            <Array as="points">
              <mxPoint x="2015" y="2190" />
              <mxPoint x="2015" y="1962" />
            </Array>
          </mxGeometry>
        </mxCell>
        <mxCell id="jvAKZ0HL3v9La-zUdgxE-6" value="&lt;font style=&quot;font-size: 20px;&quot;&gt;count_en&lt;/font&gt;" style="text;html=1;align=center;verticalAlign=middle;resizable=0;points=[];autosize=1;strokeColor=none;fillColor=none;" parent="1" vertex="1">
          <mxGeometry x="1915" y="2363" width="110" height="40" as="geometry" />
        </mxCell>
        <mxCell id="jvAKZ0HL3v9La-zUdgxE-17" value="" style="edgeStyle=orthogonalEdgeStyle;rounded=0;orthogonalLoop=1;jettySize=auto;html=1;entryX=0;entryY=0.5;entryDx=0;entryDy=0;exitX=0.214;exitY=0.005;exitDx=0;exitDy=0;exitPerimeter=0;" parent="1" source="_ncBwZEa-9cTrV1o3mGe-39" target="jvAKZ0HL3v9La-zUdgxE-18" edge="1">
          <mxGeometry relative="1" as="geometry">
            <mxPoint x="2016" y="2567" as="sourcePoint" />
            <mxPoint x="2400" y="1962" as="targetPoint" />
            <Array as="points">
              <mxPoint x="2016" y="2195" />
            </Array>
          </mxGeometry>
        </mxCell>
        <mxCell id="jvAKZ0HL3v9La-zUdgxE-18" value="" style="shape=ellipse;fillColor=#000000;strokeColor=none;html=1;sketch=0;" parent="1" vertex="1">
          <mxGeometry x="2010" y="2190" width="10" height="10" as="geometry" />
        </mxCell>
        <mxCell id="jvAKZ0HL3v9La-zUdgxE-20" style="edgeStyle=orthogonalEdgeStyle;rounded=0;orthogonalLoop=1;jettySize=auto;html=1;entryX=0.002;entryY=0.479;entryDx=0;entryDy=0;entryPerimeter=0;" parent="1" source="jvAKZ0HL3v9La-zUdgxE-18" target="_ncBwZEa-9cTrV1o3mGe-23" edge="1">
          <mxGeometry relative="1" as="geometry" />
        </mxCell>
        <mxCell id="jvAKZ0HL3v9La-zUdgxE-25" style="edgeStyle=orthogonalEdgeStyle;rounded=0;orthogonalLoop=1;jettySize=auto;html=1;entryX=0;entryY=0.5;entryDx=0;entryDy=0;" parent="1" source="jvAKZ0HL3v9La-zUdgxE-21" target="_ncBwZEa-9cTrV1o3mGe-25" edge="1">
          <mxGeometry relative="1" as="geometry" />
        </mxCell>
        <mxCell id="jvAKZ0HL3v9La-zUdgxE-21" value="" style="shape=xor;whiteSpace=wrap;html=1;" parent="1" vertex="1">
          <mxGeometry x="1420" y="1995" width="60" height="80" as="geometry" />
        </mxCell>
        <mxCell id="jvAKZ0HL3v9La-zUdgxE-23" value="&lt;font style=&quot;font-size: 20px;&quot;&gt;rst_n&lt;/font&gt;" style="text;html=1;align=center;verticalAlign=middle;resizable=0;points=[];autosize=1;strokeColor=none;fillColor=none;" parent="1" vertex="1">
          <mxGeometry x="970" y="2040" width="70" height="40" as="geometry" />
        </mxCell>
        <mxCell id="jvAKZ0HL3v9La-zUdgxE-24" style="edgeStyle=orthogonalEdgeStyle;rounded=0;orthogonalLoop=1;jettySize=auto;html=1;entryX=0.175;entryY=0.25;entryDx=0;entryDy=0;entryPerimeter=0;exitX=1;exitY=0.5;exitDx=0;exitDy=0;" parent="1" source="_ncBwZEa-9cTrV1o3mGe-33" target="jvAKZ0HL3v9La-zUdgxE-21" edge="1">
          <mxGeometry relative="1" as="geometry">
            <Array as="points">
              <mxPoint x="1990" y="1635" />
              <mxPoint x="1990" y="1790" />
              <mxPoint x="1360" y="1790" />
              <mxPoint x="1360" y="2015" />
            </Array>
          </mxGeometry>
        </mxCell>
        <mxCell id="jvAKZ0HL3v9La-zUdgxE-28" value="" style="endArrow=none;html=1;rounded=0;" parent="1" source="jvAKZ0HL3v9La-zUdgxE-33" edge="1">
          <mxGeometry width="50" height="50" relative="1" as="geometry">
            <mxPoint x="1150" y="2060" as="sourcePoint" />
            <mxPoint x="1390" y="2060" as="targetPoint" />
          </mxGeometry>
        </mxCell>
        <mxCell id="jvAKZ0HL3v9La-zUdgxE-29" value="" style="endArrow=classic;html=1;rounded=0;entryX=0.125;entryY=0.819;entryDx=0;entryDy=0;entryPerimeter=0;" parent="1" target="jvAKZ0HL3v9La-zUdgxE-21" edge="1">
          <mxGeometry width="50" height="50" relative="1" as="geometry">
            <mxPoint x="1390" y="2060" as="sourcePoint" />
            <mxPoint x="1440" y="2010" as="targetPoint" />
          </mxGeometry>
        </mxCell>
        <mxCell id="jvAKZ0HL3v9La-zUdgxE-32" value="" style="endArrow=none;html=1;rounded=0;" parent="1" target="jvAKZ0HL3v9La-zUdgxE-33" edge="1">
          <mxGeometry width="50" height="50" relative="1" as="geometry">
            <mxPoint x="1050" y="2060" as="sourcePoint" />
            <mxPoint x="1390" y="2060" as="targetPoint" />
          </mxGeometry>
        </mxCell>
        <mxCell id="jvAKZ0HL3v9La-zUdgxE-33" value="" style="shape=ellipse;fillColor=#000000;strokeColor=none;html=1;sketch=0;" parent="1" vertex="1">
          <mxGeometry x="1250" y="2055" width="10" height="10" as="geometry" />
        </mxCell>
        <mxCell id="jvAKZ0HL3v9La-zUdgxE-60" style="edgeStyle=orthogonalEdgeStyle;rounded=0;orthogonalLoop=1;jettySize=auto;html=1;entryX=0;entryY=0.5;entryDx=0;entryDy=0;" parent="1" source="jvAKZ0HL3v9La-zUdgxE-41" target="x9bZWF7ZNE7OkXFcOwQj-45" edge="1">
          <mxGeometry relative="1" as="geometry" />
        </mxCell>
        <mxCell id="jvAKZ0HL3v9La-zUdgxE-41" value="" style="shape=xor;whiteSpace=wrap;html=1;" parent="1" vertex="1">
          <mxGeometry x="2230" y="2055" width="60" height="80" as="geometry" />
        </mxCell>
        <mxCell id="jvAKZ0HL3v9La-zUdgxE-42" style="edgeStyle=orthogonalEdgeStyle;rounded=0;orthogonalLoop=1;jettySize=auto;html=1;entryX=0.175;entryY=0.25;entryDx=0;entryDy=0;entryPerimeter=0;" parent="1" source="jvAKZ0HL3v9La-zUdgxE-33" target="jvAKZ0HL3v9La-zUdgxE-41" edge="1">
          <mxGeometry relative="1" as="geometry">
            <Array as="points">
              <mxPoint x="1255" y="2160" />
              <mxPoint x="2150" y="2160" />
              <mxPoint x="2150" y="2075" />
            </Array>
          </mxGeometry>
        </mxCell>
        <mxCell id="jvAKZ0HL3v9La-zUdgxE-43" style="edgeStyle=orthogonalEdgeStyle;rounded=0;orthogonalLoop=1;jettySize=auto;html=1;entryX=0.175;entryY=0.75;entryDx=0;entryDy=0;entryPerimeter=0;exitX=1;exitY=0.5;exitDx=0;exitDy=0;" parent="1" source="x9bZWF7ZNE7OkXFcOwQj-37" target="jvAKZ0HL3v9La-zUdgxE-41" edge="1">
          <mxGeometry relative="1" as="geometry">
            <Array as="points">
              <mxPoint x="2530" y="2150" />
              <mxPoint x="2190" y="2150" />
              <mxPoint x="2190" y="2115" />
            </Array>
          </mxGeometry>
        </mxCell>
        <mxCell id="jvAKZ0HL3v9La-zUdgxE-44" value="" style="group" parent="1" vertex="1" connectable="0">
          <mxGeometry x="1240" y="1618" width="70" height="80" as="geometry" />
        </mxCell>
        <mxCell id="jvAKZ0HL3v9La-zUdgxE-45" value="" style="triangle;whiteSpace=wrap;html=1;" parent="jvAKZ0HL3v9La-zUdgxE-44" vertex="1">
          <mxGeometry width="60" height="80" as="geometry" />
        </mxCell>
        <mxCell id="jvAKZ0HL3v9La-zUdgxE-46" value="" style="ellipse;whiteSpace=wrap;html=1;aspect=fixed;" parent="jvAKZ0HL3v9La-zUdgxE-44" vertex="1">
          <mxGeometry x="60" y="35" width="10" height="10" as="geometry" />
        </mxCell>
        <mxCell id="jvAKZ0HL3v9La-zUdgxE-47" style="edgeStyle=orthogonalEdgeStyle;rounded=0;orthogonalLoop=1;jettySize=auto;html=1;entryX=0;entryY=0.5;entryDx=0;entryDy=0;" parent="1" source="jvAKZ0HL3v9La-zUdgxE-46" target="_ncBwZEa-9cTrV1o3mGe-12" edge="1">
          <mxGeometry relative="1" as="geometry" />
        </mxCell>
        <mxCell id="jvAKZ0HL3v9La-zUdgxE-48" value="" style="endArrow=none;html=1;rounded=0;exitX=0.48;exitY=0.44;exitDx=0;exitDy=0;exitPerimeter=0;" parent="1" source="jvAKZ0HL3v9La-zUdgxE-50" edge="1">
          <mxGeometry width="50" height="50" relative="1" as="geometry">
            <mxPoint x="2820" y="2508" as="sourcePoint" />
            <mxPoint x="2870" y="2458" as="targetPoint" />
          </mxGeometry>
        </mxCell>
        <mxCell id="jvAKZ0HL3v9La-zUdgxE-49" value="" style="endArrow=none;html=1;rounded=0;exitX=0.953;exitY=0.001;exitDx=0;exitDy=0;exitPerimeter=0;" parent="1" source="_ncBwZEa-9cTrV1o3mGe-39" target="jvAKZ0HL3v9La-zUdgxE-50" edge="1">
          <mxGeometry width="50" height="50" relative="1" as="geometry">
            <mxPoint x="2870" y="2565" as="sourcePoint" />
            <mxPoint x="2870" y="2458" as="targetPoint" />
          </mxGeometry>
        </mxCell>
        <mxCell id="jvAKZ0HL3v9La-zUdgxE-50" value="" style="shape=ellipse;fillColor=#000000;strokeColor=none;html=1;sketch=0;" parent="1" vertex="1">
          <mxGeometry x="2865" y="2525" width="10" height="10" as="geometry" />
        </mxCell>
        <mxCell id="jvAKZ0HL3v9La-zUdgxE-57" value="" style="edgeStyle=orthogonalEdgeStyle;rounded=0;orthogonalLoop=1;jettySize=auto;html=1;entryX=0;entryY=0.5;entryDx=0;entryDy=0;" parent="1" source="ETBQHb7iqJyo9wx1KDRp-6" target="jvAKZ0HL3v9La-zUdgxE-45" edge="1">
          <mxGeometry relative="1" as="geometry">
            <mxPoint x="2875" y="2530" as="sourcePoint" />
            <mxPoint x="1215" y="1658" as="targetPoint" />
            <Array as="points">
              <mxPoint x="1220" y="2072" />
              <mxPoint x="1195" y="2072" />
              <mxPoint x="1195" y="1658" />
            </Array>
          </mxGeometry>
        </mxCell>
        <mxCell id="jvAKZ0HL3v9La-zUdgxE-65" value="&lt;font style=&quot;font-size: 20px;&quot;&gt;Two_stop_r&lt;/font&gt;" style="text;html=1;align=center;verticalAlign=middle;whiteSpace=wrap;rounded=0;" parent="1" vertex="1">
          <mxGeometry x="2250" y="2285" width="60" height="30" as="geometry" />
        </mxCell>
        <mxCell id="jvAKZ0HL3v9La-zUdgxE-66" value="&lt;font style=&quot;font-size: 20px;&quot;&gt;fifo_data&lt;/font&gt;" style="text;html=1;align=center;verticalAlign=middle;whiteSpace=wrap;rounded=0;" parent="1" vertex="1">
          <mxGeometry x="2040" y="1060" width="60" height="30" as="geometry" />
        </mxCell>
        <mxCell id="jvAKZ0HL3v9La-zUdgxE-67" value="&lt;font style=&quot;font-size: 52px;&quot;&gt;&lt;b&gt;Top Level Diagram&lt;/b&gt;&lt;/font&gt;" style="text;html=1;align=center;verticalAlign=middle;whiteSpace=wrap;rounded=0;" parent="1" vertex="1">
          <mxGeometry x="1850" y="910" width="530" height="30" as="geometry" />
        </mxCell>
        <mxCell id="jvAKZ0HL3v9La-zUdgxE-68" value="&lt;font style=&quot;font-size: 20px;&quot;&gt;Tx_out&lt;/font&gt;" style="text;html=1;align=center;verticalAlign=middle;resizable=0;points=[];autosize=1;strokeColor=none;fillColor=none;" parent="1" vertex="1">
          <mxGeometry x="3175" y="1230" width="80" height="40" as="geometry" />
        </mxCell>
        <mxCell id="X8mFRkG9n6baa7eKajfy-1" value="&lt;font style=&quot;font-size: 20px;&quot;&gt;load_en&lt;/font&gt;" style="text;html=1;align=center;verticalAlign=middle;whiteSpace=wrap;rounded=0;" parent="1" vertex="1">
          <mxGeometry x="2600" y="1270" width="60" height="30" as="geometry" />
        </mxCell>
        <mxCell id="6wX9RSOuYod8_HCyn5d8-54" value="" style="endArrow=none;html=1;rounded=0;" parent="1" edge="1">
          <mxGeometry width="50" height="50" relative="1" as="geometry">
            <mxPoint x="1960" y="1350" as="sourcePoint" />
            <mxPoint x="1960" y="1095" as="targetPoint" />
          </mxGeometry>
        </mxCell>
        <mxCell id="ZlKhmF5g-ezkM-AYfyqX-2" value="" style="edgeStyle=orthogonalEdgeStyle;rounded=0;orthogonalLoop=1;jettySize=auto;html=1;entryX=0.5;entryY=1;entryDx=0;entryDy=0;" parent="1" source="oTuPl_SHIkAHztkOATzS-10" target="6wX9RSOuYod8_HCyn5d8-56" edge="1">
          <mxGeometry relative="1" as="geometry">
            <mxPoint x="1928" y="1092" as="sourcePoint" />
            <mxPoint x="2260" y="1093" as="targetPoint" />
            <Array as="points">
              <mxPoint x="1961" y="1093" />
            </Array>
          </mxGeometry>
        </mxCell>
        <mxCell id="6wX9RSOuYod8_HCyn5d8-56" value="" style="shape=ellipse;fillColor=#000000;strokeColor=none;html=1;sketch=0;" parent="1" vertex="1">
          <mxGeometry x="1955.6" y="1087.89" width="10" height="10" as="geometry" />
        </mxCell>
        <mxCell id="ZlKhmF5g-ezkM-AYfyqX-3" value="" style="endArrow=none;html=1;rounded=0;" parent="1" edge="1">
          <mxGeometry width="50" height="50" relative="1" as="geometry">
            <mxPoint x="1840" y="2185" as="sourcePoint" />
            <mxPoint x="2140" y="2185" as="targetPoint" />
          </mxGeometry>
        </mxCell>
        <mxCell id="ZlKhmF5g-ezkM-AYfyqX-4" value="" style="endArrow=none;html=1;rounded=0;entryX=0.527;entryY=0.491;entryDx=0;entryDy=0;entryPerimeter=0;" parent="1" target="jvAKZ0HL3v9La-zUdgxE-61" edge="1">
          <mxGeometry width="50" height="50" relative="1" as="geometry">
            <mxPoint x="2140" y="2185" as="sourcePoint" />
            <mxPoint x="2140" y="2100" as="targetPoint" />
          </mxGeometry>
        </mxCell>
        <mxCell id="ZlKhmF5g-ezkM-AYfyqX-5" value="" style="endArrow=classic;html=1;rounded=0;entryX=0.697;entryY=0.932;entryDx=0;entryDy=0;entryPerimeter=0;" parent="1" target="6wX9RSOuYod8_HCyn5d8-33" edge="1">
          <mxGeometry width="50" height="50" relative="1" as="geometry">
            <mxPoint x="2140" y="1950" as="sourcePoint" />
            <mxPoint x="2190" y="1900" as="targetPoint" />
          </mxGeometry>
        </mxCell>
        <mxCell id="ETBQHb7iqJyo9wx1KDRp-1" value="" style="group" parent="1" vertex="1" connectable="0">
          <mxGeometry x="1340" y="2431" width="70" height="80" as="geometry" />
        </mxCell>
        <mxCell id="ETBQHb7iqJyo9wx1KDRp-2" value="" style="triangle;whiteSpace=wrap;html=1;" parent="ETBQHb7iqJyo9wx1KDRp-1" vertex="1">
          <mxGeometry width="60" height="80" as="geometry" />
        </mxCell>
        <mxCell id="ETBQHb7iqJyo9wx1KDRp-3" value="" style="ellipse;whiteSpace=wrap;html=1;aspect=fixed;" parent="ETBQHb7iqJyo9wx1KDRp-1" vertex="1">
          <mxGeometry x="60" y="35" width="10" height="10" as="geometry" />
        </mxCell>
        <mxCell id="ETBQHb7iqJyo9wx1KDRp-4" style="edgeStyle=orthogonalEdgeStyle;rounded=0;orthogonalLoop=1;jettySize=auto;html=1;" parent="1" source="ETBQHb7iqJyo9wx1KDRp-3" edge="1">
          <mxGeometry relative="1" as="geometry">
            <mxPoint x="1490" y="2350" as="targetPoint" />
            <Array as="points">
              <mxPoint x="1450" y="2471" />
              <mxPoint x="1450" y="2350" />
              <mxPoint x="1490" y="2350" />
            </Array>
          </mxGeometry>
        </mxCell>
        <mxCell id="ETBQHb7iqJyo9wx1KDRp-5" value="" style="edgeStyle=orthogonalEdgeStyle;rounded=0;orthogonalLoop=1;jettySize=auto;html=1;entryX=0;entryY=0.5;entryDx=0;entryDy=0;" parent="1" source="jvAKZ0HL3v9La-zUdgxE-50" target="ETBQHb7iqJyo9wx1KDRp-6" edge="1">
          <mxGeometry relative="1" as="geometry">
            <mxPoint x="2875" y="2530" as="sourcePoint" />
            <mxPoint x="1215" y="1658" as="targetPoint" />
            <Array as="points">
              <mxPoint x="2970" y="2530" />
              <mxPoint x="2970" y="2960" />
              <mxPoint x="1220" y="2960" />
            </Array>
          </mxGeometry>
        </mxCell>
        <mxCell id="ETBQHb7iqJyo9wx1KDRp-8" style="edgeStyle=orthogonalEdgeStyle;rounded=0;orthogonalLoop=1;jettySize=auto;html=1;entryX=0;entryY=0.5;entryDx=0;entryDy=0;" parent="1" source="ETBQHb7iqJyo9wx1KDRp-6" target="ETBQHb7iqJyo9wx1KDRp-2" edge="1">
          <mxGeometry relative="1" as="geometry" />
        </mxCell>
        <mxCell id="ETBQHb7iqJyo9wx1KDRp-6" value="" style="shape=ellipse;fillColor=#000000;strokeColor=none;html=1;sketch=0;" parent="1" vertex="1">
          <mxGeometry x="1215" y="2478" width="10" height="10" as="geometry" />
        </mxCell>
        <mxCell id="5zZxHuOXzXMfIDeEadyb-2" value="" style="group" parent="1" vertex="1" connectable="0">
          <mxGeometry x="1580" y="1310" width="220" height="210" as="geometry" />
        </mxCell>
        <mxCell id="5zZxHuOXzXMfIDeEadyb-3" value="" style="group" parent="5zZxHuOXzXMfIDeEadyb-2" vertex="1" connectable="0">
          <mxGeometry y="33.15789473684211" width="220.00000000000003" height="176.84210526315792" as="geometry" />
        </mxCell>
        <mxCell id="5zZxHuOXzXMfIDeEadyb-4" value="&lt;font style=&quot;font-size: 20px;&quot;&gt;FIFO_EMPTY&lt;/font&gt;" style="whiteSpace=wrap;html=1;aspect=fixed;" parent="5zZxHuOXzXMfIDeEadyb-3" vertex="1">
          <mxGeometry y="-44.21" width="186.31" height="186.31" as="geometry" />
        </mxCell>
        <mxCell id="5zZxHuOXzXMfIDeEadyb-5" value="" style="triangle;whiteSpace=wrap;html=1;" parent="5zZxHuOXzXMfIDeEadyb-3" vertex="1">
          <mxGeometry y="110" width="20" height="21.06" as="geometry" />
        </mxCell>
        <mxCell id="5zZxHuOXzXMfIDeEadyb-6" value="reset" style="text;html=1;align=center;verticalAlign=middle;whiteSpace=wrap;rounded=0;" parent="5zZxHuOXzXMfIDeEadyb-3" vertex="1">
          <mxGeometry y="66.32" width="50" height="44.21" as="geometry" />
        </mxCell>
        <mxCell id="5zZxHuOXzXMfIDeEadyb-7" value="en" style="text;html=1;align=center;verticalAlign=middle;whiteSpace=wrap;rounded=0;" parent="5zZxHuOXzXMfIDeEadyb-3" vertex="1">
          <mxGeometry y="44.21" width="40" height="22.11" as="geometry" />
        </mxCell>
        <mxCell id="5zZxHuOXzXMfIDeEadyb-8" value="&lt;font style=&quot;font-size: 16px;&quot;&gt;D&lt;/font&gt;" style="text;html=1;align=center;verticalAlign=middle;whiteSpace=wrap;rounded=0;" parent="5zZxHuOXzXMfIDeEadyb-3" vertex="1">
          <mxGeometry x="22" y="-22.10526315789474" width="22" height="22.10526315789474" as="geometry" />
        </mxCell>
        <mxCell id="5zZxHuOXzXMfIDeEadyb-9" value="&lt;font style=&quot;font-size: 16px;&quot;&gt;Q&lt;/font&gt;" style="text;html=1;align=center;verticalAlign=middle;whiteSpace=wrap;rounded=0;" parent="5zZxHuOXzXMfIDeEadyb-3" vertex="1">
          <mxGeometry x="150" y="-33.15789473684208" width="22" height="44.21052631578948" as="geometry" />
        </mxCell>
        <mxCell id="5zZxHuOXzXMfIDeEadyb-13" style="edgeStyle=orthogonalEdgeStyle;rounded=0;orthogonalLoop=1;jettySize=auto;html=1;entryX=0;entryY=0.5;entryDx=0;entryDy=0;" parent="1" source="5zZxHuOXzXMfIDeEadyb-19" target="oTuPl_SHIkAHztkOATzS-13" edge="1">
          <mxGeometry relative="1" as="geometry">
            <Array as="points">
              <mxPoint x="1230" y="1240" />
              <mxPoint x="1520" y="1240" />
              <mxPoint x="1520" y="1143" />
            </Array>
          </mxGeometry>
        </mxCell>
        <mxCell id="5zZxHuOXzXMfIDeEadyb-15" value="&lt;font style=&quot;font-size: 20px;&quot;&gt;fifo_load&lt;/font&gt;" style="text;html=1;align=center;verticalAlign=middle;whiteSpace=wrap;rounded=0;" parent="1" vertex="1">
          <mxGeometry x="1610" y="1140" width="60" height="30" as="geometry" />
        </mxCell>
        <mxCell id="5zZxHuOXzXMfIDeEadyb-17" style="edgeStyle=orthogonalEdgeStyle;rounded=0;orthogonalLoop=1;jettySize=auto;html=1;entryX=0;entryY=0.5;entryDx=0;entryDy=0;" parent="1" source="5zZxHuOXzXMfIDeEadyb-16" target="5zZxHuOXzXMfIDeEadyb-8" edge="1">
          <mxGeometry relative="1" as="geometry" />
        </mxCell>
        <mxCell id="5zZxHuOXzXMfIDeEadyb-16" value="&lt;span style=&quot;font-size: 20px;&quot;&gt;0&lt;/span&gt;" style="text;html=1;align=center;verticalAlign=middle;whiteSpace=wrap;rounded=0;" parent="1" vertex="1">
          <mxGeometry x="1460" y="1317.11" width="60" height="30" as="geometry" />
        </mxCell>
        <mxCell id="5zZxHuOXzXMfIDeEadyb-18" value="" style="edgeStyle=orthogonalEdgeStyle;rounded=0;orthogonalLoop=1;jettySize=auto;html=1;entryX=0;entryY=0.5;entryDx=0;entryDy=0;" parent="1" source="_ncBwZEa-9cTrV1o3mGe-39" target="5zZxHuOXzXMfIDeEadyb-19" edge="1">
          <mxGeometry relative="1" as="geometry">
            <mxPoint x="1769" y="2720" as="sourcePoint" />
            <mxPoint x="1770" y="1143" as="targetPoint" />
            <Array as="points">
              <mxPoint x="1230" y="2720" />
            </Array>
          </mxGeometry>
        </mxCell>
        <mxCell id="5zZxHuOXzXMfIDeEadyb-19" value="" style="shape=ellipse;fillColor=#000000;strokeColor=none;html=1;sketch=0;" parent="1" vertex="1">
          <mxGeometry x="1225" y="1393.42" width="10" height="10" as="geometry" />
        </mxCell>
        <mxCell id="5zZxHuOXzXMfIDeEadyb-20" style="edgeStyle=orthogonalEdgeStyle;rounded=0;orthogonalLoop=1;jettySize=auto;html=1;entryX=0;entryY=0.5;entryDx=0;entryDy=0;" parent="1" source="5zZxHuOXzXMfIDeEadyb-19" target="5zZxHuOXzXMfIDeEadyb-7" edge="1">
          <mxGeometry relative="1" as="geometry" />
        </mxCell>
        <mxCell id="5zZxHuOXzXMfIDeEadyb-23" style="edgeStyle=orthogonalEdgeStyle;rounded=0;orthogonalLoop=1;jettySize=auto;html=1;entryX=0;entryY=0.5;entryDx=0;entryDy=0;" parent="1" source="5zZxHuOXzXMfIDeEadyb-27" target="5zZxHuOXzXMfIDeEadyb-6" edge="1">
          <mxGeometry relative="1" as="geometry" />
        </mxCell>
        <mxCell id="5zZxHuOXzXMfIDeEadyb-22" value="" style="shape=ellipse;fillColor=#000000;strokeColor=none;html=1;sketch=0;" parent="1" vertex="1">
          <mxGeometry x="2735" y="1495" width="10" height="10" as="geometry" />
        </mxCell>
        <mxCell id="5zZxHuOXzXMfIDeEadyb-26" value="" style="edgeStyle=orthogonalEdgeStyle;rounded=0;orthogonalLoop=1;jettySize=auto;html=1;entryX=0;entryY=0.5;entryDx=0;entryDy=0;" parent="1" source="5zZxHuOXzXMfIDeEadyb-22" target="5zZxHuOXzXMfIDeEadyb-27" edge="1">
          <mxGeometry relative="1" as="geometry">
            <mxPoint x="2735" y="1500" as="sourcePoint" />
            <mxPoint x="1580" y="1432" as="targetPoint" />
            <Array as="points">
              <mxPoint x="2285" y="1500" />
              <mxPoint x="2285" y="1495" />
            </Array>
          </mxGeometry>
        </mxCell>
        <mxCell id="5zZxHuOXzXMfIDeEadyb-28" style="edgeStyle=orthogonalEdgeStyle;rounded=0;orthogonalLoop=1;jettySize=auto;html=1;entryX=0;entryY=0.5;entryDx=0;entryDy=0;" parent="1" source="5zZxHuOXzXMfIDeEadyb-27" target="oTuPl_SHIkAHztkOATzS-12" edge="1">
          <mxGeometry relative="1" as="geometry">
            <Array as="points">
              <mxPoint x="1830" y="1280" />
              <mxPoint x="1740" y="1280" />
              <mxPoint x="1740" y="1167" />
            </Array>
          </mxGeometry>
        </mxCell>
        <mxCell id="5zZxHuOXzXMfIDeEadyb-27" value="" style="shape=ellipse;fillColor=#000000;strokeColor=none;html=1;sketch=0;" parent="1" vertex="1">
          <mxGeometry x="1825" y="1490" width="10" height="10" as="geometry" />
        </mxCell>
        <mxCell id="5zZxHuOXzXMfIDeEadyb-29" style="edgeStyle=orthogonalEdgeStyle;rounded=0;orthogonalLoop=1;jettySize=auto;html=1;exitX=1;exitY=0.5;exitDx=0;exitDy=0;" parent="1" source="5zZxHuOXzXMfIDeEadyb-9" edge="1">
          <mxGeometry relative="1" as="geometry">
            <mxPoint x="2200" y="2575" as="targetPoint" />
            <Array as="points">
              <mxPoint x="1752" y="1330" />
              <mxPoint x="1800" y="1330" />
              <mxPoint x="1800" y="1460" />
              <mxPoint x="2200" y="1460" />
            </Array>
          </mxGeometry>
        </mxCell>
        <mxCell id="5zZxHuOXzXMfIDeEadyb-30" value="&lt;font style=&quot;font-size: 20px;&quot;&gt;fifo_status&lt;/font&gt;" style="text;html=1;align=center;verticalAlign=middle;whiteSpace=wrap;rounded=0;" parent="1" vertex="1">
          <mxGeometry x="2220" y="2468" width="60" height="30" as="geometry" />
        </mxCell>
        <mxCell id="5zZxHuOXzXMfIDeEadyb-37" style="edgeStyle=orthogonalEdgeStyle;rounded=0;orthogonalLoop=1;jettySize=auto;html=1;exitX=1;exitY=0.5;exitDx=0;exitDy=0;" parent="1" source="5zZxHuOXzXMfIDeEadyb-31" target="_ncBwZEa-9cTrV1o3mGe-39" edge="1">
          <mxGeometry relative="1" as="geometry">
            <mxPoint x="2710" y="2560" as="targetPoint" />
            <Array as="points">
              <mxPoint x="2730" y="2335" />
              <mxPoint x="2730" y="2468" />
              <mxPoint x="2711" y="2468" />
            </Array>
          </mxGeometry>
        </mxCell>
        <mxCell id="5zZxHuOXzXMfIDeEadyb-31" value="&lt;font style=&quot;font-size: 22px;&quot;&gt;!=&lt;/font&gt;" style="ellipse;whiteSpace=wrap;html=1;aspect=fixed;" parent="1" vertex="1">
          <mxGeometry x="2630" y="2295" width="80" height="80" as="geometry" />
        </mxCell>
        <mxCell id="5zZxHuOXzXMfIDeEadyb-34" style="edgeStyle=orthogonalEdgeStyle;rounded=0;orthogonalLoop=1;jettySize=auto;html=1;entryX=0.5;entryY=0;entryDx=0;entryDy=0;" parent="1" source="5zZxHuOXzXMfIDeEadyb-32" target="5zZxHuOXzXMfIDeEadyb-31" edge="1">
          <mxGeometry relative="1" as="geometry" />
        </mxCell>
        <mxCell id="5zZxHuOXzXMfIDeEadyb-32" value="" style="shape=ellipse;fillColor=#000000;strokeColor=none;html=1;sketch=0;" parent="1" vertex="1">
          <mxGeometry x="2705" y="2200" width="10" height="10" as="geometry" />
        </mxCell>
        <mxCell id="5zZxHuOXzXMfIDeEadyb-36" style="edgeStyle=orthogonalEdgeStyle;rounded=0;orthogonalLoop=1;jettySize=auto;html=1;entryX=0.5;entryY=1;entryDx=0;entryDy=0;" parent="1" source="5zZxHuOXzXMfIDeEadyb-35" target="5zZxHuOXzXMfIDeEadyb-31" edge="1">
          <mxGeometry relative="1" as="geometry" />
        </mxCell>
        <mxCell id="5zZxHuOXzXMfIDeEadyb-35" value="&lt;font style=&quot;font-size: 20px;&quot;&gt;0&lt;/font&gt;" style="text;html=1;align=center;verticalAlign=middle;whiteSpace=wrap;rounded=0;" parent="1" vertex="1">
          <mxGeometry x="2640" y="2430" width="60" height="30" as="geometry" />
        </mxCell>
        <mxCell id="5zZxHuOXzXMfIDeEadyb-38" value="&lt;font style=&quot;font-size: 20px;&quot;&gt;Tx_status&lt;/font&gt;" style="text;html=1;align=center;verticalAlign=middle;whiteSpace=wrap;rounded=0;" parent="1" vertex="1">
          <mxGeometry x="2640" y="2515" width="60" height="30" as="geometry" />
        </mxCell>
        <mxCell id="Fd37esG7EBRqyy-um5Ju-1" value="&lt;span style=&quot;font-size: 20px;&quot;&gt;14&lt;/span&gt;" style="text;html=1;align=center;verticalAlign=middle;resizable=0;points=[];autosize=1;strokeColor=none;fillColor=none;" parent="1" vertex="1">
          <mxGeometry x="1575" y="1555" width="50" height="40" as="geometry" />
        </mxCell>
        <mxCell id="Fd37esG7EBRqyy-um5Ju-2" value="" style="endArrow=none;html=1;rounded=0;exitX=0.869;exitY=1.122;exitDx=0;exitDy=0;exitPerimeter=0;" parent="1" edge="1">
          <mxGeometry width="50" height="50" relative="1" as="geometry">
            <mxPoint x="1592" y="1613" as="sourcePoint" />
            <mxPoint x="1610" y="1595" as="targetPoint" />
          </mxGeometry>
        </mxCell>
        <mxCell id="Fd37esG7EBRqyy-um5Ju-3" value="" style="endArrow=none;html=1;rounded=0;exitX=0.869;exitY=1.122;exitDx=0;exitDy=0;exitPerimeter=0;" parent="1" edge="1">
          <mxGeometry width="50" height="50" relative="1" as="geometry">
            <mxPoint x="1851" y="1731" as="sourcePoint" />
            <mxPoint x="1869" y="1713" as="targetPoint" />
          </mxGeometry>
        </mxCell>
        <mxCell id="Fd37esG7EBRqyy-um5Ju-4" value="&lt;span style=&quot;font-size: 20px;&quot;&gt;14&lt;/span&gt;" style="text;html=1;align=center;verticalAlign=middle;resizable=0;points=[];autosize=1;strokeColor=none;fillColor=none;" parent="1" vertex="1">
          <mxGeometry x="1800" y="1710" width="50" height="40" as="geometry" />
        </mxCell>
      </root>
    </mxGraphModel>
  </diagram>
  <diagram name="Shift_Reg" id="f9JpHKTll7esbQ5uf-dy">
    <mxGraphModel dx="3000" dy="1514" grid="1" gridSize="10" guides="1" tooltips="1" connect="1" arrows="1" fold="1" page="1" pageScale="1" pageWidth="6000" pageHeight="6000" background="#ffffff" math="0" shadow="0">
      <root>
        <mxCell id="0" />
        <mxCell id="1" parent="0" />
        <mxCell id="LDRxqSCZ7-76HOvoV0_8-984" value="" style="group" vertex="1" connectable="0" parent="1">
          <mxGeometry x="600" y="820" width="2720" height="930" as="geometry" />
        </mxCell>
        <mxCell id="LDRxqSCZ7-76HOvoV0_8-982" value="" style="rounded=0;whiteSpace=wrap;html=1;fillColor=#dae8fc;strokeColor=#6c8ebf;" vertex="1" parent="LDRxqSCZ7-76HOvoV0_8-984">
          <mxGeometry x="110" width="2310" height="930" as="geometry" />
        </mxCell>
        <mxCell id="LDRxqSCZ7-76HOvoV0_8-451" value="" style="group" vertex="1" connectable="0" parent="LDRxqSCZ7-76HOvoV0_8-984">
          <mxGeometry y="110" width="2340" height="675" as="geometry" />
        </mxCell>
        <mxCell id="LDRxqSCZ7-76HOvoV0_8-102" value="" style="group" vertex="1" connectable="0" parent="LDRxqSCZ7-76HOvoV0_8-451">
          <mxGeometry x="210" y="290" width="100" height="95" as="geometry" />
        </mxCell>
        <mxCell id="LDRxqSCZ7-76HOvoV0_8-103" value="" style="group" vertex="1" connectable="0" parent="LDRxqSCZ7-76HOvoV0_8-102">
          <mxGeometry y="15" width="100" height="80" as="geometry" />
        </mxCell>
        <mxCell id="LDRxqSCZ7-76HOvoV0_8-104" value="&lt;font style=&quot;font-size: 24px;&quot;&gt;1&lt;/font&gt;" style="whiteSpace=wrap;html=1;aspect=fixed;" vertex="1" parent="LDRxqSCZ7-76HOvoV0_8-103">
          <mxGeometry y="-20" width="100" height="100" as="geometry" />
        </mxCell>
        <mxCell id="LDRxqSCZ7-76HOvoV0_8-105" value="" style="triangle;whiteSpace=wrap;html=1;" vertex="1" parent="LDRxqSCZ7-76HOvoV0_8-103">
          <mxGeometry y="50" width="10" height="20" as="geometry" />
        </mxCell>
        <mxCell id="LDRxqSCZ7-76HOvoV0_8-106" value="rst_n" style="text;html=1;align=center;verticalAlign=middle;whiteSpace=wrap;rounded=0;" vertex="1" parent="LDRxqSCZ7-76HOvoV0_8-103">
          <mxGeometry y="30" width="30" height="20" as="geometry" />
        </mxCell>
        <mxCell id="LDRxqSCZ7-76HOvoV0_8-107" value="en" style="text;html=1;align=center;verticalAlign=middle;whiteSpace=wrap;rounded=0;" vertex="1" parent="LDRxqSCZ7-76HOvoV0_8-103">
          <mxGeometry y="20" width="20" height="10" as="geometry" />
        </mxCell>
        <mxCell id="LDRxqSCZ7-76HOvoV0_8-108" value="&lt;font style=&quot;font-size: 16px;&quot;&gt;D&lt;/font&gt;" style="text;html=1;align=center;verticalAlign=middle;whiteSpace=wrap;rounded=0;" vertex="1" parent="LDRxqSCZ7-76HOvoV0_8-103">
          <mxGeometry x="10" y="-10" width="10" height="10" as="geometry" />
        </mxCell>
        <mxCell id="LDRxqSCZ7-76HOvoV0_8-109" value="&lt;font style=&quot;font-size: 16px;&quot;&gt;Q&lt;/font&gt;" style="text;html=1;align=center;verticalAlign=middle;whiteSpace=wrap;rounded=0;" vertex="1" parent="LDRxqSCZ7-76HOvoV0_8-102">
          <mxGeometry x="76" width="10" height="20" as="geometry" />
        </mxCell>
        <mxCell id="LDRxqSCZ7-76HOvoV0_8-118" value="" style="group" vertex="1" connectable="0" parent="LDRxqSCZ7-76HOvoV0_8-451">
          <mxGeometry x="610" y="290" width="100" height="95" as="geometry" />
        </mxCell>
        <mxCell id="LDRxqSCZ7-76HOvoV0_8-119" value="" style="group" vertex="1" connectable="0" parent="LDRxqSCZ7-76HOvoV0_8-118">
          <mxGeometry y="15" width="100" height="80" as="geometry" />
        </mxCell>
        <mxCell id="LDRxqSCZ7-76HOvoV0_8-120" value="&lt;font style=&quot;font-size: 24px;&quot;&gt;1&lt;/font&gt;" style="whiteSpace=wrap;html=1;aspect=fixed;" vertex="1" parent="LDRxqSCZ7-76HOvoV0_8-119">
          <mxGeometry y="-20" width="100" height="100" as="geometry" />
        </mxCell>
        <mxCell id="LDRxqSCZ7-76HOvoV0_8-121" value="" style="triangle;whiteSpace=wrap;html=1;" vertex="1" parent="LDRxqSCZ7-76HOvoV0_8-119">
          <mxGeometry y="50" width="10" height="20" as="geometry" />
        </mxCell>
        <mxCell id="LDRxqSCZ7-76HOvoV0_8-122" value="rst_n" style="text;html=1;align=center;verticalAlign=middle;whiteSpace=wrap;rounded=0;" vertex="1" parent="LDRxqSCZ7-76HOvoV0_8-119">
          <mxGeometry y="30" width="30" height="20" as="geometry" />
        </mxCell>
        <mxCell id="LDRxqSCZ7-76HOvoV0_8-123" value="en" style="text;html=1;align=center;verticalAlign=middle;whiteSpace=wrap;rounded=0;" vertex="1" parent="LDRxqSCZ7-76HOvoV0_8-119">
          <mxGeometry y="20" width="20" height="10" as="geometry" />
        </mxCell>
        <mxCell id="LDRxqSCZ7-76HOvoV0_8-124" value="&lt;font style=&quot;font-size: 16px;&quot;&gt;D&lt;/font&gt;" style="text;html=1;align=center;verticalAlign=middle;whiteSpace=wrap;rounded=0;" vertex="1" parent="LDRxqSCZ7-76HOvoV0_8-119">
          <mxGeometry x="10" y="-10" width="10" height="10" as="geometry" />
        </mxCell>
        <mxCell id="LDRxqSCZ7-76HOvoV0_8-125" value="&lt;font style=&quot;font-size: 16px;&quot;&gt;Q&lt;/font&gt;" style="text;html=1;align=center;verticalAlign=middle;whiteSpace=wrap;rounded=0;" vertex="1" parent="LDRxqSCZ7-76HOvoV0_8-118">
          <mxGeometry x="76" width="10" height="20" as="geometry" />
        </mxCell>
        <mxCell id="LDRxqSCZ7-76HOvoV0_8-126" value="" style="group" vertex="1" connectable="0" parent="LDRxqSCZ7-76HOvoV0_8-451">
          <mxGeometry x="410" y="290" width="100" height="95" as="geometry" />
        </mxCell>
        <mxCell id="LDRxqSCZ7-76HOvoV0_8-127" value="" style="group" vertex="1" connectable="0" parent="LDRxqSCZ7-76HOvoV0_8-126">
          <mxGeometry y="15" width="100" height="80" as="geometry" />
        </mxCell>
        <mxCell id="LDRxqSCZ7-76HOvoV0_8-128" value="&lt;font style=&quot;font-size: 24px;&quot;&gt;1&lt;/font&gt;" style="whiteSpace=wrap;html=1;aspect=fixed;" vertex="1" parent="LDRxqSCZ7-76HOvoV0_8-127">
          <mxGeometry y="-20" width="100" height="100" as="geometry" />
        </mxCell>
        <mxCell id="LDRxqSCZ7-76HOvoV0_8-129" value="" style="triangle;whiteSpace=wrap;html=1;" vertex="1" parent="LDRxqSCZ7-76HOvoV0_8-127">
          <mxGeometry y="50" width="10" height="20" as="geometry" />
        </mxCell>
        <mxCell id="LDRxqSCZ7-76HOvoV0_8-130" value="rst_n" style="text;html=1;align=center;verticalAlign=middle;whiteSpace=wrap;rounded=0;" vertex="1" parent="LDRxqSCZ7-76HOvoV0_8-127">
          <mxGeometry y="30" width="30" height="20" as="geometry" />
        </mxCell>
        <mxCell id="LDRxqSCZ7-76HOvoV0_8-131" value="en" style="text;html=1;align=center;verticalAlign=middle;whiteSpace=wrap;rounded=0;" vertex="1" parent="LDRxqSCZ7-76HOvoV0_8-127">
          <mxGeometry y="20" width="20" height="10" as="geometry" />
        </mxCell>
        <mxCell id="LDRxqSCZ7-76HOvoV0_8-132" value="&lt;font style=&quot;font-size: 16px;&quot;&gt;D&lt;/font&gt;" style="text;html=1;align=center;verticalAlign=middle;whiteSpace=wrap;rounded=0;" vertex="1" parent="LDRxqSCZ7-76HOvoV0_8-127">
          <mxGeometry x="10" y="-10" width="10" height="10" as="geometry" />
        </mxCell>
        <mxCell id="LDRxqSCZ7-76HOvoV0_8-133" value="&lt;font style=&quot;font-size: 16px;&quot;&gt;Q&lt;/font&gt;" style="text;html=1;align=center;verticalAlign=middle;whiteSpace=wrap;rounded=0;" vertex="1" parent="LDRxqSCZ7-76HOvoV0_8-126">
          <mxGeometry x="76" width="10" height="20" as="geometry" />
        </mxCell>
        <mxCell id="LDRxqSCZ7-76HOvoV0_8-134" value="" style="group" vertex="1" connectable="0" parent="LDRxqSCZ7-76HOvoV0_8-451">
          <mxGeometry x="1020" y="290" width="100" height="95" as="geometry" />
        </mxCell>
        <mxCell id="LDRxqSCZ7-76HOvoV0_8-135" value="" style="group" vertex="1" connectable="0" parent="LDRxqSCZ7-76HOvoV0_8-134">
          <mxGeometry y="15" width="100" height="80" as="geometry" />
        </mxCell>
        <mxCell id="LDRxqSCZ7-76HOvoV0_8-136" value="&lt;font style=&quot;font-size: 24px;&quot;&gt;1&lt;/font&gt;" style="whiteSpace=wrap;html=1;aspect=fixed;" vertex="1" parent="LDRxqSCZ7-76HOvoV0_8-135">
          <mxGeometry y="-20" width="100" height="100" as="geometry" />
        </mxCell>
        <mxCell id="LDRxqSCZ7-76HOvoV0_8-137" value="" style="triangle;whiteSpace=wrap;html=1;" vertex="1" parent="LDRxqSCZ7-76HOvoV0_8-135">
          <mxGeometry y="50" width="10" height="20" as="geometry" />
        </mxCell>
        <mxCell id="LDRxqSCZ7-76HOvoV0_8-138" value="rst_n" style="text;html=1;align=center;verticalAlign=middle;whiteSpace=wrap;rounded=0;" vertex="1" parent="LDRxqSCZ7-76HOvoV0_8-135">
          <mxGeometry y="30" width="30" height="20" as="geometry" />
        </mxCell>
        <mxCell id="LDRxqSCZ7-76HOvoV0_8-139" value="en" style="text;html=1;align=center;verticalAlign=middle;whiteSpace=wrap;rounded=0;" vertex="1" parent="LDRxqSCZ7-76HOvoV0_8-135">
          <mxGeometry y="20" width="20" height="10" as="geometry" />
        </mxCell>
        <mxCell id="LDRxqSCZ7-76HOvoV0_8-140" value="&lt;font style=&quot;font-size: 16px;&quot;&gt;D&lt;/font&gt;" style="text;html=1;align=center;verticalAlign=middle;whiteSpace=wrap;rounded=0;" vertex="1" parent="LDRxqSCZ7-76HOvoV0_8-135">
          <mxGeometry x="10" y="-10" width="10" height="10" as="geometry" />
        </mxCell>
        <mxCell id="LDRxqSCZ7-76HOvoV0_8-141" value="&lt;font style=&quot;font-size: 16px;&quot;&gt;Q&lt;/font&gt;" style="text;html=1;align=center;verticalAlign=middle;whiteSpace=wrap;rounded=0;" vertex="1" parent="LDRxqSCZ7-76HOvoV0_8-134">
          <mxGeometry x="76" width="10" height="20" as="geometry" />
        </mxCell>
        <mxCell id="LDRxqSCZ7-76HOvoV0_8-142" value="" style="group" vertex="1" connectable="0" parent="LDRxqSCZ7-76HOvoV0_8-451">
          <mxGeometry x="820" y="290" width="100" height="95" as="geometry" />
        </mxCell>
        <mxCell id="LDRxqSCZ7-76HOvoV0_8-143" value="" style="group" vertex="1" connectable="0" parent="LDRxqSCZ7-76HOvoV0_8-142">
          <mxGeometry y="15" width="100" height="80" as="geometry" />
        </mxCell>
        <mxCell id="LDRxqSCZ7-76HOvoV0_8-144" value="&lt;font style=&quot;font-size: 24px;&quot;&gt;1&lt;/font&gt;" style="whiteSpace=wrap;html=1;aspect=fixed;" vertex="1" parent="LDRxqSCZ7-76HOvoV0_8-143">
          <mxGeometry y="-20" width="100" height="100" as="geometry" />
        </mxCell>
        <mxCell id="LDRxqSCZ7-76HOvoV0_8-145" value="" style="triangle;whiteSpace=wrap;html=1;" vertex="1" parent="LDRxqSCZ7-76HOvoV0_8-143">
          <mxGeometry y="50" width="10" height="20" as="geometry" />
        </mxCell>
        <mxCell id="LDRxqSCZ7-76HOvoV0_8-146" value="rst_n" style="text;html=1;align=center;verticalAlign=middle;whiteSpace=wrap;rounded=0;" vertex="1" parent="LDRxqSCZ7-76HOvoV0_8-143">
          <mxGeometry y="30" width="30" height="20" as="geometry" />
        </mxCell>
        <mxCell id="LDRxqSCZ7-76HOvoV0_8-147" value="en" style="text;html=1;align=center;verticalAlign=middle;whiteSpace=wrap;rounded=0;" vertex="1" parent="LDRxqSCZ7-76HOvoV0_8-143">
          <mxGeometry y="20" width="20" height="10" as="geometry" />
        </mxCell>
        <mxCell id="LDRxqSCZ7-76HOvoV0_8-148" value="&lt;font style=&quot;font-size: 16px;&quot;&gt;D&lt;/font&gt;" style="text;html=1;align=center;verticalAlign=middle;whiteSpace=wrap;rounded=0;" vertex="1" parent="LDRxqSCZ7-76HOvoV0_8-143">
          <mxGeometry x="10" y="-10" width="10" height="10" as="geometry" />
        </mxCell>
        <mxCell id="LDRxqSCZ7-76HOvoV0_8-149" value="&lt;font style=&quot;font-size: 16px;&quot;&gt;Q&lt;/font&gt;" style="text;html=1;align=center;verticalAlign=middle;whiteSpace=wrap;rounded=0;" vertex="1" parent="LDRxqSCZ7-76HOvoV0_8-142">
          <mxGeometry x="76" width="10" height="20" as="geometry" />
        </mxCell>
        <mxCell id="LDRxqSCZ7-76HOvoV0_8-198" value="" style="group" vertex="1" connectable="0" parent="LDRxqSCZ7-76HOvoV0_8-451">
          <mxGeometry x="1430" y="290" width="100" height="95" as="geometry" />
        </mxCell>
        <mxCell id="LDRxqSCZ7-76HOvoV0_8-199" value="" style="group" vertex="1" connectable="0" parent="LDRxqSCZ7-76HOvoV0_8-198">
          <mxGeometry y="15" width="100" height="80" as="geometry" />
        </mxCell>
        <mxCell id="LDRxqSCZ7-76HOvoV0_8-200" value="&lt;font style=&quot;font-size: 24px;&quot;&gt;1&lt;/font&gt;" style="whiteSpace=wrap;html=1;aspect=fixed;" vertex="1" parent="LDRxqSCZ7-76HOvoV0_8-199">
          <mxGeometry y="-20" width="100" height="100" as="geometry" />
        </mxCell>
        <mxCell id="LDRxqSCZ7-76HOvoV0_8-201" value="" style="triangle;whiteSpace=wrap;html=1;" vertex="1" parent="LDRxqSCZ7-76HOvoV0_8-199">
          <mxGeometry y="50" width="10" height="20" as="geometry" />
        </mxCell>
        <mxCell id="LDRxqSCZ7-76HOvoV0_8-202" value="rst_n" style="text;html=1;align=center;verticalAlign=middle;whiteSpace=wrap;rounded=0;" vertex="1" parent="LDRxqSCZ7-76HOvoV0_8-199">
          <mxGeometry y="30" width="30" height="20" as="geometry" />
        </mxCell>
        <mxCell id="LDRxqSCZ7-76HOvoV0_8-203" value="en" style="text;html=1;align=center;verticalAlign=middle;whiteSpace=wrap;rounded=0;" vertex="1" parent="LDRxqSCZ7-76HOvoV0_8-199">
          <mxGeometry y="20" width="20" height="10" as="geometry" />
        </mxCell>
        <mxCell id="LDRxqSCZ7-76HOvoV0_8-204" value="&lt;font style=&quot;font-size: 16px;&quot;&gt;D&lt;/font&gt;" style="text;html=1;align=center;verticalAlign=middle;whiteSpace=wrap;rounded=0;" vertex="1" parent="LDRxqSCZ7-76HOvoV0_8-199">
          <mxGeometry x="10" y="-10" width="10" height="10" as="geometry" />
        </mxCell>
        <mxCell id="LDRxqSCZ7-76HOvoV0_8-205" value="&lt;font style=&quot;font-size: 16px;&quot;&gt;Q&lt;/font&gt;" style="text;html=1;align=center;verticalAlign=middle;whiteSpace=wrap;rounded=0;" vertex="1" parent="LDRxqSCZ7-76HOvoV0_8-198">
          <mxGeometry x="76" width="10" height="20" as="geometry" />
        </mxCell>
        <mxCell id="LDRxqSCZ7-76HOvoV0_8-206" value="" style="group" vertex="1" connectable="0" parent="LDRxqSCZ7-76HOvoV0_8-451">
          <mxGeometry x="1230" y="290" width="100" height="95" as="geometry" />
        </mxCell>
        <mxCell id="LDRxqSCZ7-76HOvoV0_8-207" value="" style="group" vertex="1" connectable="0" parent="LDRxqSCZ7-76HOvoV0_8-206">
          <mxGeometry y="15" width="100" height="80" as="geometry" />
        </mxCell>
        <mxCell id="LDRxqSCZ7-76HOvoV0_8-208" value="&lt;font style=&quot;font-size: 24px;&quot;&gt;1&lt;/font&gt;" style="whiteSpace=wrap;html=1;aspect=fixed;" vertex="1" parent="LDRxqSCZ7-76HOvoV0_8-207">
          <mxGeometry y="-20" width="100" height="100" as="geometry" />
        </mxCell>
        <mxCell id="LDRxqSCZ7-76HOvoV0_8-209" value="" style="triangle;whiteSpace=wrap;html=1;" vertex="1" parent="LDRxqSCZ7-76HOvoV0_8-207">
          <mxGeometry y="50" width="10" height="20" as="geometry" />
        </mxCell>
        <mxCell id="LDRxqSCZ7-76HOvoV0_8-210" value="rst_n" style="text;html=1;align=center;verticalAlign=middle;whiteSpace=wrap;rounded=0;" vertex="1" parent="LDRxqSCZ7-76HOvoV0_8-207">
          <mxGeometry y="30" width="30" height="20" as="geometry" />
        </mxCell>
        <mxCell id="LDRxqSCZ7-76HOvoV0_8-211" value="en" style="text;html=1;align=center;verticalAlign=middle;whiteSpace=wrap;rounded=0;" vertex="1" parent="LDRxqSCZ7-76HOvoV0_8-207">
          <mxGeometry y="20" width="20" height="10" as="geometry" />
        </mxCell>
        <mxCell id="LDRxqSCZ7-76HOvoV0_8-212" value="&lt;font style=&quot;font-size: 16px;&quot;&gt;D&lt;/font&gt;" style="text;html=1;align=center;verticalAlign=middle;whiteSpace=wrap;rounded=0;" vertex="1" parent="LDRxqSCZ7-76HOvoV0_8-207">
          <mxGeometry x="10" y="-10" width="10" height="10" as="geometry" />
        </mxCell>
        <mxCell id="LDRxqSCZ7-76HOvoV0_8-213" value="&lt;font style=&quot;font-size: 16px;&quot;&gt;Q&lt;/font&gt;" style="text;html=1;align=center;verticalAlign=middle;whiteSpace=wrap;rounded=0;" vertex="1" parent="LDRxqSCZ7-76HOvoV0_8-206">
          <mxGeometry x="76" width="10" height="20" as="geometry" />
        </mxCell>
        <mxCell id="LDRxqSCZ7-76HOvoV0_8-214" value="" style="group" vertex="1" connectable="0" parent="LDRxqSCZ7-76HOvoV0_8-451">
          <mxGeometry x="1830" y="290" width="100" height="95" as="geometry" />
        </mxCell>
        <mxCell id="LDRxqSCZ7-76HOvoV0_8-215" value="" style="group" vertex="1" connectable="0" parent="LDRxqSCZ7-76HOvoV0_8-214">
          <mxGeometry y="15" width="100" height="80" as="geometry" />
        </mxCell>
        <mxCell id="LDRxqSCZ7-76HOvoV0_8-216" value="&lt;font style=&quot;font-size: 24px;&quot;&gt;1&lt;/font&gt;" style="whiteSpace=wrap;html=1;aspect=fixed;" vertex="1" parent="LDRxqSCZ7-76HOvoV0_8-215">
          <mxGeometry y="-20" width="100" height="100" as="geometry" />
        </mxCell>
        <mxCell id="LDRxqSCZ7-76HOvoV0_8-217" value="" style="triangle;whiteSpace=wrap;html=1;" vertex="1" parent="LDRxqSCZ7-76HOvoV0_8-215">
          <mxGeometry y="50" width="10" height="20" as="geometry" />
        </mxCell>
        <mxCell id="LDRxqSCZ7-76HOvoV0_8-218" value="rst_n" style="text;html=1;align=center;verticalAlign=middle;whiteSpace=wrap;rounded=0;" vertex="1" parent="LDRxqSCZ7-76HOvoV0_8-215">
          <mxGeometry y="30" width="30" height="20" as="geometry" />
        </mxCell>
        <mxCell id="LDRxqSCZ7-76HOvoV0_8-219" value="en" style="text;html=1;align=center;verticalAlign=middle;whiteSpace=wrap;rounded=0;" vertex="1" parent="LDRxqSCZ7-76HOvoV0_8-215">
          <mxGeometry y="20" width="20" height="10" as="geometry" />
        </mxCell>
        <mxCell id="LDRxqSCZ7-76HOvoV0_8-220" value="&lt;font style=&quot;font-size: 16px;&quot;&gt;D&lt;/font&gt;" style="text;html=1;align=center;verticalAlign=middle;whiteSpace=wrap;rounded=0;" vertex="1" parent="LDRxqSCZ7-76HOvoV0_8-215">
          <mxGeometry x="10" y="-10" width="10" height="10" as="geometry" />
        </mxCell>
        <mxCell id="LDRxqSCZ7-76HOvoV0_8-221" value="&lt;font style=&quot;font-size: 16px;&quot;&gt;Q&lt;/font&gt;" style="text;html=1;align=center;verticalAlign=middle;whiteSpace=wrap;rounded=0;" vertex="1" parent="LDRxqSCZ7-76HOvoV0_8-214">
          <mxGeometry x="76" width="10" height="20" as="geometry" />
        </mxCell>
        <mxCell id="LDRxqSCZ7-76HOvoV0_8-222" value="" style="group" vertex="1" connectable="0" parent="LDRxqSCZ7-76HOvoV0_8-451">
          <mxGeometry x="1630" y="290" width="100" height="95" as="geometry" />
        </mxCell>
        <mxCell id="LDRxqSCZ7-76HOvoV0_8-223" value="" style="group" vertex="1" connectable="0" parent="LDRxqSCZ7-76HOvoV0_8-222">
          <mxGeometry y="15" width="100" height="80" as="geometry" />
        </mxCell>
        <mxCell id="LDRxqSCZ7-76HOvoV0_8-224" value="&lt;font style=&quot;font-size: 24px;&quot;&gt;1&lt;/font&gt;" style="whiteSpace=wrap;html=1;aspect=fixed;" vertex="1" parent="LDRxqSCZ7-76HOvoV0_8-223">
          <mxGeometry y="-20" width="100" height="100" as="geometry" />
        </mxCell>
        <mxCell id="LDRxqSCZ7-76HOvoV0_8-225" value="" style="triangle;whiteSpace=wrap;html=1;" vertex="1" parent="LDRxqSCZ7-76HOvoV0_8-223">
          <mxGeometry y="50" width="10" height="20" as="geometry" />
        </mxCell>
        <mxCell id="LDRxqSCZ7-76HOvoV0_8-226" value="rst_n" style="text;html=1;align=center;verticalAlign=middle;whiteSpace=wrap;rounded=0;" vertex="1" parent="LDRxqSCZ7-76HOvoV0_8-223">
          <mxGeometry y="30" width="30" height="20" as="geometry" />
        </mxCell>
        <mxCell id="LDRxqSCZ7-76HOvoV0_8-227" value="en" style="text;html=1;align=center;verticalAlign=middle;whiteSpace=wrap;rounded=0;" vertex="1" parent="LDRxqSCZ7-76HOvoV0_8-223">
          <mxGeometry y="20" width="20" height="10" as="geometry" />
        </mxCell>
        <mxCell id="LDRxqSCZ7-76HOvoV0_8-228" value="&lt;font style=&quot;font-size: 16px;&quot;&gt;D&lt;/font&gt;" style="text;html=1;align=center;verticalAlign=middle;whiteSpace=wrap;rounded=0;" vertex="1" parent="LDRxqSCZ7-76HOvoV0_8-223">
          <mxGeometry x="10" y="-10" width="10" height="10" as="geometry" />
        </mxCell>
        <mxCell id="LDRxqSCZ7-76HOvoV0_8-229" value="&lt;font style=&quot;font-size: 16px;&quot;&gt;Q&lt;/font&gt;" style="text;html=1;align=center;verticalAlign=middle;whiteSpace=wrap;rounded=0;" vertex="1" parent="LDRxqSCZ7-76HOvoV0_8-222">
          <mxGeometry x="76" width="10" height="20" as="geometry" />
        </mxCell>
        <mxCell id="LDRxqSCZ7-76HOvoV0_8-230" value="" style="group" vertex="1" connectable="0" parent="LDRxqSCZ7-76HOvoV0_8-451">
          <mxGeometry x="2240" y="290" width="100" height="95" as="geometry" />
        </mxCell>
        <mxCell id="LDRxqSCZ7-76HOvoV0_8-231" value="" style="group" vertex="1" connectable="0" parent="LDRxqSCZ7-76HOvoV0_8-230">
          <mxGeometry y="15" width="100" height="80" as="geometry" />
        </mxCell>
        <mxCell id="LDRxqSCZ7-76HOvoV0_8-980" style="edgeStyle=orthogonalEdgeStyle;rounded=0;orthogonalLoop=1;jettySize=auto;html=1;" edge="1" parent="LDRxqSCZ7-76HOvoV0_8-231" source="LDRxqSCZ7-76HOvoV0_8-232">
          <mxGeometry relative="1" as="geometry">
            <mxPoint x="230" y="30" as="targetPoint" />
          </mxGeometry>
        </mxCell>
        <mxCell id="LDRxqSCZ7-76HOvoV0_8-232" value="&lt;span style=&quot;font-size: 24px;&quot;&gt;0&lt;/span&gt;" style="whiteSpace=wrap;html=1;aspect=fixed;" vertex="1" parent="LDRxqSCZ7-76HOvoV0_8-231">
          <mxGeometry y="-20" width="100" height="100" as="geometry" />
        </mxCell>
        <mxCell id="LDRxqSCZ7-76HOvoV0_8-233" value="" style="triangle;whiteSpace=wrap;html=1;" vertex="1" parent="LDRxqSCZ7-76HOvoV0_8-231">
          <mxGeometry y="50" width="10" height="20" as="geometry" />
        </mxCell>
        <mxCell id="LDRxqSCZ7-76HOvoV0_8-234" value="rst_n" style="text;html=1;align=center;verticalAlign=middle;whiteSpace=wrap;rounded=0;" vertex="1" parent="LDRxqSCZ7-76HOvoV0_8-231">
          <mxGeometry y="30" width="30" height="20" as="geometry" />
        </mxCell>
        <mxCell id="LDRxqSCZ7-76HOvoV0_8-235" value="en" style="text;html=1;align=center;verticalAlign=middle;whiteSpace=wrap;rounded=0;" vertex="1" parent="LDRxqSCZ7-76HOvoV0_8-231">
          <mxGeometry y="20" width="20" height="10" as="geometry" />
        </mxCell>
        <mxCell id="LDRxqSCZ7-76HOvoV0_8-236" value="&lt;font style=&quot;font-size: 16px;&quot;&gt;D&lt;/font&gt;" style="text;html=1;align=center;verticalAlign=middle;whiteSpace=wrap;rounded=0;" vertex="1" parent="LDRxqSCZ7-76HOvoV0_8-231">
          <mxGeometry x="10" y="-10" width="10" height="10" as="geometry" />
        </mxCell>
        <mxCell id="LDRxqSCZ7-76HOvoV0_8-237" value="&lt;font style=&quot;font-size: 16px;&quot;&gt;Q&lt;/font&gt;" style="text;html=1;align=center;verticalAlign=middle;whiteSpace=wrap;rounded=0;" vertex="1" parent="LDRxqSCZ7-76HOvoV0_8-230">
          <mxGeometry x="76" width="10" height="20" as="geometry" />
        </mxCell>
        <mxCell id="LDRxqSCZ7-76HOvoV0_8-238" value="" style="group" vertex="1" connectable="0" parent="LDRxqSCZ7-76HOvoV0_8-451">
          <mxGeometry x="2040" y="290" width="100" height="95" as="geometry" />
        </mxCell>
        <mxCell id="LDRxqSCZ7-76HOvoV0_8-239" value="" style="group" vertex="1" connectable="0" parent="LDRxqSCZ7-76HOvoV0_8-238">
          <mxGeometry y="15" width="100" height="80" as="geometry" />
        </mxCell>
        <mxCell id="LDRxqSCZ7-76HOvoV0_8-240" value="&lt;font style=&quot;font-size: 24px;&quot;&gt;1&lt;/font&gt;" style="whiteSpace=wrap;html=1;aspect=fixed;" vertex="1" parent="LDRxqSCZ7-76HOvoV0_8-239">
          <mxGeometry y="-20" width="100" height="100" as="geometry" />
        </mxCell>
        <mxCell id="LDRxqSCZ7-76HOvoV0_8-241" value="" style="triangle;whiteSpace=wrap;html=1;" vertex="1" parent="LDRxqSCZ7-76HOvoV0_8-239">
          <mxGeometry y="50" width="10" height="20" as="geometry" />
        </mxCell>
        <mxCell id="LDRxqSCZ7-76HOvoV0_8-242" value="rst_n" style="text;html=1;align=center;verticalAlign=middle;whiteSpace=wrap;rounded=0;" vertex="1" parent="LDRxqSCZ7-76HOvoV0_8-239">
          <mxGeometry y="30" width="30" height="20" as="geometry" />
        </mxCell>
        <mxCell id="LDRxqSCZ7-76HOvoV0_8-243" value="en" style="text;html=1;align=center;verticalAlign=middle;whiteSpace=wrap;rounded=0;" vertex="1" parent="LDRxqSCZ7-76HOvoV0_8-239">
          <mxGeometry y="20" width="20" height="10" as="geometry" />
        </mxCell>
        <mxCell id="LDRxqSCZ7-76HOvoV0_8-244" value="&lt;font style=&quot;font-size: 16px;&quot;&gt;D&lt;/font&gt;" style="text;html=1;align=center;verticalAlign=middle;whiteSpace=wrap;rounded=0;" vertex="1" parent="LDRxqSCZ7-76HOvoV0_8-239">
          <mxGeometry x="10" y="-10" width="10" height="10" as="geometry" />
        </mxCell>
        <mxCell id="LDRxqSCZ7-76HOvoV0_8-245" value="&lt;font style=&quot;font-size: 16px;&quot;&gt;Q&lt;/font&gt;" style="text;html=1;align=center;verticalAlign=middle;whiteSpace=wrap;rounded=0;" vertex="1" parent="LDRxqSCZ7-76HOvoV0_8-238">
          <mxGeometry x="76" width="10" height="20" as="geometry" />
        </mxCell>
        <mxCell id="LDRxqSCZ7-76HOvoV0_8-246" value="" style="group" vertex="1" connectable="0" parent="LDRxqSCZ7-76HOvoV0_8-451">
          <mxGeometry x="550" y="370" width="20" height="120" as="geometry" />
        </mxCell>
        <mxCell id="LDRxqSCZ7-76HOvoV0_8-247" value="" style="shape=trapezoid;perimeter=trapezoidPerimeter;whiteSpace=wrap;html=1;fixedSize=1;direction=south;" vertex="1" parent="LDRxqSCZ7-76HOvoV0_8-246">
          <mxGeometry width="20" height="120" as="geometry" />
        </mxCell>
        <mxCell id="LDRxqSCZ7-76HOvoV0_8-248" value="0" style="text;html=1;align=center;verticalAlign=middle;whiteSpace=wrap;rounded=0;" vertex="1" parent="LDRxqSCZ7-76HOvoV0_8-246">
          <mxGeometry y="20" width="20" height="30" as="geometry" />
        </mxCell>
        <mxCell id="LDRxqSCZ7-76HOvoV0_8-249" value="1" style="text;html=1;align=center;verticalAlign=middle;whiteSpace=wrap;rounded=0;" vertex="1" parent="LDRxqSCZ7-76HOvoV0_8-246">
          <mxGeometry y="70" width="20" height="30" as="geometry" />
        </mxCell>
        <mxCell id="LDRxqSCZ7-76HOvoV0_8-250" value="" style="group" vertex="1" connectable="0" parent="LDRxqSCZ7-76HOvoV0_8-451">
          <mxGeometry x="350" y="370" width="20" height="120" as="geometry" />
        </mxCell>
        <mxCell id="LDRxqSCZ7-76HOvoV0_8-251" value="" style="shape=trapezoid;perimeter=trapezoidPerimeter;whiteSpace=wrap;html=1;fixedSize=1;direction=south;" vertex="1" parent="LDRxqSCZ7-76HOvoV0_8-250">
          <mxGeometry width="20" height="120" as="geometry" />
        </mxCell>
        <mxCell id="LDRxqSCZ7-76HOvoV0_8-252" value="&lt;font style=&quot;font-size: 14px;&quot;&gt;0&lt;/font&gt;" style="text;html=1;align=center;verticalAlign=middle;whiteSpace=wrap;rounded=0;" vertex="1" parent="LDRxqSCZ7-76HOvoV0_8-250">
          <mxGeometry y="20" width="20" height="30" as="geometry" />
        </mxCell>
        <mxCell id="LDRxqSCZ7-76HOvoV0_8-253" value="&lt;font style=&quot;font-size: 14px;&quot;&gt;1&lt;/font&gt;" style="text;html=1;align=center;verticalAlign=middle;whiteSpace=wrap;rounded=0;" vertex="1" parent="LDRxqSCZ7-76HOvoV0_8-250">
          <mxGeometry y="70" width="20" height="30" as="geometry" />
        </mxCell>
        <mxCell id="LDRxqSCZ7-76HOvoV0_8-254" value="" style="group" vertex="1" connectable="0" parent="LDRxqSCZ7-76HOvoV0_8-451">
          <mxGeometry x="760" y="370" width="20" height="120" as="geometry" />
        </mxCell>
        <mxCell id="LDRxqSCZ7-76HOvoV0_8-255" value="" style="shape=trapezoid;perimeter=trapezoidPerimeter;whiteSpace=wrap;html=1;fixedSize=1;direction=south;" vertex="1" parent="LDRxqSCZ7-76HOvoV0_8-254">
          <mxGeometry width="20" height="120" as="geometry" />
        </mxCell>
        <mxCell id="LDRxqSCZ7-76HOvoV0_8-256" value="0" style="text;html=1;align=center;verticalAlign=middle;whiteSpace=wrap;rounded=0;" vertex="1" parent="LDRxqSCZ7-76HOvoV0_8-254">
          <mxGeometry y="20" width="20" height="30" as="geometry" />
        </mxCell>
        <mxCell id="LDRxqSCZ7-76HOvoV0_8-257" value="1" style="text;html=1;align=center;verticalAlign=middle;whiteSpace=wrap;rounded=0;" vertex="1" parent="LDRxqSCZ7-76HOvoV0_8-254">
          <mxGeometry y="70" width="20" height="30" as="geometry" />
        </mxCell>
        <mxCell id="LDRxqSCZ7-76HOvoV0_8-258" value="" style="group" vertex="1" connectable="0" parent="LDRxqSCZ7-76HOvoV0_8-451">
          <mxGeometry x="760" y="370" width="20" height="120" as="geometry" />
        </mxCell>
        <mxCell id="LDRxqSCZ7-76HOvoV0_8-259" value="" style="shape=trapezoid;perimeter=trapezoidPerimeter;whiteSpace=wrap;html=1;fixedSize=1;direction=south;" vertex="1" parent="LDRxqSCZ7-76HOvoV0_8-258">
          <mxGeometry width="20" height="120" as="geometry" />
        </mxCell>
        <mxCell id="LDRxqSCZ7-76HOvoV0_8-260" value="&lt;font style=&quot;font-size: 14px;&quot;&gt;0&lt;/font&gt;" style="text;html=1;align=center;verticalAlign=middle;whiteSpace=wrap;rounded=0;" vertex="1" parent="LDRxqSCZ7-76HOvoV0_8-258">
          <mxGeometry y="20" width="20" height="30" as="geometry" />
        </mxCell>
        <mxCell id="LDRxqSCZ7-76HOvoV0_8-261" value="&lt;font style=&quot;font-size: 14px;&quot;&gt;1&lt;/font&gt;" style="text;html=1;align=center;verticalAlign=middle;whiteSpace=wrap;rounded=0;" vertex="1" parent="LDRxqSCZ7-76HOvoV0_8-258">
          <mxGeometry y="70" width="20" height="30" as="geometry" />
        </mxCell>
        <mxCell id="LDRxqSCZ7-76HOvoV0_8-262" value="" style="group" vertex="1" connectable="0" parent="LDRxqSCZ7-76HOvoV0_8-451">
          <mxGeometry x="960" y="370" width="20" height="120" as="geometry" />
        </mxCell>
        <mxCell id="LDRxqSCZ7-76HOvoV0_8-263" value="" style="shape=trapezoid;perimeter=trapezoidPerimeter;whiteSpace=wrap;html=1;fixedSize=1;direction=south;" vertex="1" parent="LDRxqSCZ7-76HOvoV0_8-262">
          <mxGeometry width="20" height="120" as="geometry" />
        </mxCell>
        <mxCell id="LDRxqSCZ7-76HOvoV0_8-264" value="0" style="text;html=1;align=center;verticalAlign=middle;whiteSpace=wrap;rounded=0;" vertex="1" parent="LDRxqSCZ7-76HOvoV0_8-262">
          <mxGeometry y="20" width="20" height="30" as="geometry" />
        </mxCell>
        <mxCell id="LDRxqSCZ7-76HOvoV0_8-265" value="1" style="text;html=1;align=center;verticalAlign=middle;whiteSpace=wrap;rounded=0;" vertex="1" parent="LDRxqSCZ7-76HOvoV0_8-262">
          <mxGeometry y="70" width="20" height="30" as="geometry" />
        </mxCell>
        <mxCell id="LDRxqSCZ7-76HOvoV0_8-266" value="" style="group" vertex="1" connectable="0" parent="LDRxqSCZ7-76HOvoV0_8-451">
          <mxGeometry x="960" y="370" width="20" height="120" as="geometry" />
        </mxCell>
        <mxCell id="LDRxqSCZ7-76HOvoV0_8-267" value="" style="shape=trapezoid;perimeter=trapezoidPerimeter;whiteSpace=wrap;html=1;fixedSize=1;direction=south;" vertex="1" parent="LDRxqSCZ7-76HOvoV0_8-266">
          <mxGeometry width="20" height="120" as="geometry" />
        </mxCell>
        <mxCell id="LDRxqSCZ7-76HOvoV0_8-268" value="&lt;font style=&quot;font-size: 14px;&quot;&gt;0&lt;/font&gt;" style="text;html=1;align=center;verticalAlign=middle;whiteSpace=wrap;rounded=0;" vertex="1" parent="LDRxqSCZ7-76HOvoV0_8-266">
          <mxGeometry y="20" width="20" height="30" as="geometry" />
        </mxCell>
        <mxCell id="LDRxqSCZ7-76HOvoV0_8-269" value="&lt;font style=&quot;font-size: 14px;&quot;&gt;1&lt;/font&gt;" style="text;html=1;align=center;verticalAlign=middle;whiteSpace=wrap;rounded=0;" vertex="1" parent="LDRxqSCZ7-76HOvoV0_8-266">
          <mxGeometry y="70" width="20" height="30" as="geometry" />
        </mxCell>
        <mxCell id="LDRxqSCZ7-76HOvoV0_8-270" value="" style="group" vertex="1" connectable="0" parent="LDRxqSCZ7-76HOvoV0_8-451">
          <mxGeometry x="1170" y="370" width="20" height="120" as="geometry" />
        </mxCell>
        <mxCell id="LDRxqSCZ7-76HOvoV0_8-271" value="" style="shape=trapezoid;perimeter=trapezoidPerimeter;whiteSpace=wrap;html=1;fixedSize=1;direction=south;" vertex="1" parent="LDRxqSCZ7-76HOvoV0_8-270">
          <mxGeometry width="20" height="120" as="geometry" />
        </mxCell>
        <mxCell id="LDRxqSCZ7-76HOvoV0_8-272" value="0" style="text;html=1;align=center;verticalAlign=middle;whiteSpace=wrap;rounded=0;" vertex="1" parent="LDRxqSCZ7-76HOvoV0_8-270">
          <mxGeometry y="20" width="20" height="30" as="geometry" />
        </mxCell>
        <mxCell id="LDRxqSCZ7-76HOvoV0_8-273" value="1" style="text;html=1;align=center;verticalAlign=middle;whiteSpace=wrap;rounded=0;" vertex="1" parent="LDRxqSCZ7-76HOvoV0_8-270">
          <mxGeometry y="70" width="20" height="30" as="geometry" />
        </mxCell>
        <mxCell id="LDRxqSCZ7-76HOvoV0_8-274" value="" style="group" vertex="1" connectable="0" parent="LDRxqSCZ7-76HOvoV0_8-451">
          <mxGeometry x="1170" y="370" width="20" height="120" as="geometry" />
        </mxCell>
        <mxCell id="LDRxqSCZ7-76HOvoV0_8-275" value="" style="shape=trapezoid;perimeter=trapezoidPerimeter;whiteSpace=wrap;html=1;fixedSize=1;direction=south;" vertex="1" parent="LDRxqSCZ7-76HOvoV0_8-274">
          <mxGeometry width="20" height="120" as="geometry" />
        </mxCell>
        <mxCell id="LDRxqSCZ7-76HOvoV0_8-276" value="&lt;font style=&quot;font-size: 14px;&quot;&gt;0&lt;/font&gt;" style="text;html=1;align=center;verticalAlign=middle;whiteSpace=wrap;rounded=0;" vertex="1" parent="LDRxqSCZ7-76HOvoV0_8-274">
          <mxGeometry y="20" width="20" height="30" as="geometry" />
        </mxCell>
        <mxCell id="LDRxqSCZ7-76HOvoV0_8-277" value="&lt;font style=&quot;font-size: 14px;&quot;&gt;1&lt;/font&gt;" style="text;html=1;align=center;verticalAlign=middle;whiteSpace=wrap;rounded=0;" vertex="1" parent="LDRxqSCZ7-76HOvoV0_8-274">
          <mxGeometry y="70" width="20" height="30" as="geometry" />
        </mxCell>
        <mxCell id="LDRxqSCZ7-76HOvoV0_8-278" value="" style="group" vertex="1" connectable="0" parent="LDRxqSCZ7-76HOvoV0_8-451">
          <mxGeometry x="1370" y="370" width="20" height="120" as="geometry" />
        </mxCell>
        <mxCell id="LDRxqSCZ7-76HOvoV0_8-279" value="" style="shape=trapezoid;perimeter=trapezoidPerimeter;whiteSpace=wrap;html=1;fixedSize=1;direction=south;" vertex="1" parent="LDRxqSCZ7-76HOvoV0_8-278">
          <mxGeometry width="20" height="120" as="geometry" />
        </mxCell>
        <mxCell id="LDRxqSCZ7-76HOvoV0_8-280" value="0" style="text;html=1;align=center;verticalAlign=middle;whiteSpace=wrap;rounded=0;" vertex="1" parent="LDRxqSCZ7-76HOvoV0_8-278">
          <mxGeometry y="20" width="20" height="30" as="geometry" />
        </mxCell>
        <mxCell id="LDRxqSCZ7-76HOvoV0_8-281" value="1" style="text;html=1;align=center;verticalAlign=middle;whiteSpace=wrap;rounded=0;" vertex="1" parent="LDRxqSCZ7-76HOvoV0_8-278">
          <mxGeometry y="70" width="20" height="30" as="geometry" />
        </mxCell>
        <mxCell id="LDRxqSCZ7-76HOvoV0_8-282" value="" style="group" vertex="1" connectable="0" parent="LDRxqSCZ7-76HOvoV0_8-451">
          <mxGeometry x="1370" y="370" width="20" height="120" as="geometry" />
        </mxCell>
        <mxCell id="LDRxqSCZ7-76HOvoV0_8-283" value="" style="shape=trapezoid;perimeter=trapezoidPerimeter;whiteSpace=wrap;html=1;fixedSize=1;direction=south;" vertex="1" parent="LDRxqSCZ7-76HOvoV0_8-282">
          <mxGeometry width="20" height="120" as="geometry" />
        </mxCell>
        <mxCell id="LDRxqSCZ7-76HOvoV0_8-284" value="&lt;font style=&quot;font-size: 14px;&quot;&gt;0&lt;/font&gt;" style="text;html=1;align=center;verticalAlign=middle;whiteSpace=wrap;rounded=0;" vertex="1" parent="LDRxqSCZ7-76HOvoV0_8-282">
          <mxGeometry y="20" width="20" height="30" as="geometry" />
        </mxCell>
        <mxCell id="LDRxqSCZ7-76HOvoV0_8-285" value="&lt;font style=&quot;font-size: 14px;&quot;&gt;1&lt;/font&gt;" style="text;html=1;align=center;verticalAlign=middle;whiteSpace=wrap;rounded=0;" vertex="1" parent="LDRxqSCZ7-76HOvoV0_8-282">
          <mxGeometry y="70" width="20" height="30" as="geometry" />
        </mxCell>
        <mxCell id="LDRxqSCZ7-76HOvoV0_8-286" value="" style="group" vertex="1" connectable="0" parent="LDRxqSCZ7-76HOvoV0_8-451">
          <mxGeometry x="1570" y="370" width="20" height="120" as="geometry" />
        </mxCell>
        <mxCell id="LDRxqSCZ7-76HOvoV0_8-287" value="" style="shape=trapezoid;perimeter=trapezoidPerimeter;whiteSpace=wrap;html=1;fixedSize=1;direction=south;" vertex="1" parent="LDRxqSCZ7-76HOvoV0_8-286">
          <mxGeometry width="20" height="120" as="geometry" />
        </mxCell>
        <mxCell id="LDRxqSCZ7-76HOvoV0_8-288" value="0" style="text;html=1;align=center;verticalAlign=middle;whiteSpace=wrap;rounded=0;" vertex="1" parent="LDRxqSCZ7-76HOvoV0_8-286">
          <mxGeometry y="20" width="20" height="30" as="geometry" />
        </mxCell>
        <mxCell id="LDRxqSCZ7-76HOvoV0_8-289" value="1" style="text;html=1;align=center;verticalAlign=middle;whiteSpace=wrap;rounded=0;" vertex="1" parent="LDRxqSCZ7-76HOvoV0_8-286">
          <mxGeometry y="70" width="20" height="30" as="geometry" />
        </mxCell>
        <mxCell id="LDRxqSCZ7-76HOvoV0_8-290" value="" style="group" vertex="1" connectable="0" parent="LDRxqSCZ7-76HOvoV0_8-451">
          <mxGeometry x="1570" y="370" width="20" height="120" as="geometry" />
        </mxCell>
        <mxCell id="LDRxqSCZ7-76HOvoV0_8-291" value="" style="shape=trapezoid;perimeter=trapezoidPerimeter;whiteSpace=wrap;html=1;fixedSize=1;direction=south;" vertex="1" parent="LDRxqSCZ7-76HOvoV0_8-290">
          <mxGeometry width="20" height="120" as="geometry" />
        </mxCell>
        <mxCell id="LDRxqSCZ7-76HOvoV0_8-292" value="&lt;font style=&quot;font-size: 14px;&quot;&gt;0&lt;/font&gt;" style="text;html=1;align=center;verticalAlign=middle;whiteSpace=wrap;rounded=0;" vertex="1" parent="LDRxqSCZ7-76HOvoV0_8-290">
          <mxGeometry y="20" width="20" height="30" as="geometry" />
        </mxCell>
        <mxCell id="LDRxqSCZ7-76HOvoV0_8-293" value="&lt;font style=&quot;font-size: 14px;&quot;&gt;1&lt;/font&gt;" style="text;html=1;align=center;verticalAlign=middle;whiteSpace=wrap;rounded=0;" vertex="1" parent="LDRxqSCZ7-76HOvoV0_8-290">
          <mxGeometry y="70" width="20" height="30" as="geometry" />
        </mxCell>
        <mxCell id="LDRxqSCZ7-76HOvoV0_8-294" value="" style="group" vertex="1" connectable="0" parent="LDRxqSCZ7-76HOvoV0_8-451">
          <mxGeometry x="1770" y="370" width="20" height="120" as="geometry" />
        </mxCell>
        <mxCell id="LDRxqSCZ7-76HOvoV0_8-295" value="" style="shape=trapezoid;perimeter=trapezoidPerimeter;whiteSpace=wrap;html=1;fixedSize=1;direction=south;" vertex="1" parent="LDRxqSCZ7-76HOvoV0_8-294">
          <mxGeometry width="20" height="120" as="geometry" />
        </mxCell>
        <mxCell id="LDRxqSCZ7-76HOvoV0_8-296" value="0" style="text;html=1;align=center;verticalAlign=middle;whiteSpace=wrap;rounded=0;" vertex="1" parent="LDRxqSCZ7-76HOvoV0_8-294">
          <mxGeometry y="20" width="20" height="30" as="geometry" />
        </mxCell>
        <mxCell id="LDRxqSCZ7-76HOvoV0_8-297" value="1" style="text;html=1;align=center;verticalAlign=middle;whiteSpace=wrap;rounded=0;" vertex="1" parent="LDRxqSCZ7-76HOvoV0_8-294">
          <mxGeometry y="70" width="20" height="30" as="geometry" />
        </mxCell>
        <mxCell id="LDRxqSCZ7-76HOvoV0_8-298" value="" style="group" vertex="1" connectable="0" parent="LDRxqSCZ7-76HOvoV0_8-451">
          <mxGeometry x="1770" y="370" width="20" height="120" as="geometry" />
        </mxCell>
        <mxCell id="LDRxqSCZ7-76HOvoV0_8-299" value="" style="shape=trapezoid;perimeter=trapezoidPerimeter;whiteSpace=wrap;html=1;fixedSize=1;direction=south;" vertex="1" parent="LDRxqSCZ7-76HOvoV0_8-298">
          <mxGeometry width="20" height="120" as="geometry" />
        </mxCell>
        <mxCell id="LDRxqSCZ7-76HOvoV0_8-300" value="&lt;font style=&quot;font-size: 14px;&quot;&gt;0&lt;/font&gt;" style="text;html=1;align=center;verticalAlign=middle;whiteSpace=wrap;rounded=0;" vertex="1" parent="LDRxqSCZ7-76HOvoV0_8-298">
          <mxGeometry y="20" width="20" height="30" as="geometry" />
        </mxCell>
        <mxCell id="LDRxqSCZ7-76HOvoV0_8-301" value="&lt;font style=&quot;font-size: 14px;&quot;&gt;1&lt;/font&gt;" style="text;html=1;align=center;verticalAlign=middle;whiteSpace=wrap;rounded=0;" vertex="1" parent="LDRxqSCZ7-76HOvoV0_8-298">
          <mxGeometry y="70" width="20" height="30" as="geometry" />
        </mxCell>
        <mxCell id="LDRxqSCZ7-76HOvoV0_8-302" value="" style="group" vertex="1" connectable="0" parent="LDRxqSCZ7-76HOvoV0_8-451">
          <mxGeometry x="1980" y="370" width="20" height="120" as="geometry" />
        </mxCell>
        <mxCell id="LDRxqSCZ7-76HOvoV0_8-303" value="" style="shape=trapezoid;perimeter=trapezoidPerimeter;whiteSpace=wrap;html=1;fixedSize=1;direction=south;" vertex="1" parent="LDRxqSCZ7-76HOvoV0_8-302">
          <mxGeometry width="20" height="120" as="geometry" />
        </mxCell>
        <mxCell id="LDRxqSCZ7-76HOvoV0_8-304" value="0" style="text;html=1;align=center;verticalAlign=middle;whiteSpace=wrap;rounded=0;" vertex="1" parent="LDRxqSCZ7-76HOvoV0_8-302">
          <mxGeometry y="20" width="20" height="30" as="geometry" />
        </mxCell>
        <mxCell id="LDRxqSCZ7-76HOvoV0_8-305" value="1" style="text;html=1;align=center;verticalAlign=middle;whiteSpace=wrap;rounded=0;" vertex="1" parent="LDRxqSCZ7-76HOvoV0_8-302">
          <mxGeometry y="70" width="20" height="30" as="geometry" />
        </mxCell>
        <mxCell id="LDRxqSCZ7-76HOvoV0_8-306" value="" style="group" vertex="1" connectable="0" parent="LDRxqSCZ7-76HOvoV0_8-451">
          <mxGeometry x="1980" y="370" width="20" height="120" as="geometry" />
        </mxCell>
        <mxCell id="LDRxqSCZ7-76HOvoV0_8-307" value="" style="shape=trapezoid;perimeter=trapezoidPerimeter;whiteSpace=wrap;html=1;fixedSize=1;direction=south;" vertex="1" parent="LDRxqSCZ7-76HOvoV0_8-306">
          <mxGeometry width="20" height="120" as="geometry" />
        </mxCell>
        <mxCell id="LDRxqSCZ7-76HOvoV0_8-308" value="&lt;font style=&quot;font-size: 14px;&quot;&gt;0&lt;/font&gt;" style="text;html=1;align=center;verticalAlign=middle;whiteSpace=wrap;rounded=0;" vertex="1" parent="LDRxqSCZ7-76HOvoV0_8-306">
          <mxGeometry y="20" width="20" height="30" as="geometry" />
        </mxCell>
        <mxCell id="LDRxqSCZ7-76HOvoV0_8-309" value="&lt;font style=&quot;font-size: 14px;&quot;&gt;1&lt;/font&gt;" style="text;html=1;align=center;verticalAlign=middle;whiteSpace=wrap;rounded=0;" vertex="1" parent="LDRxqSCZ7-76HOvoV0_8-306">
          <mxGeometry y="70" width="20" height="30" as="geometry" />
        </mxCell>
        <mxCell id="LDRxqSCZ7-76HOvoV0_8-319" style="edgeStyle=orthogonalEdgeStyle;rounded=0;orthogonalLoop=1;jettySize=auto;html=1;entryX=0;entryY=0.5;entryDx=0;entryDy=0;" edge="1" parent="LDRxqSCZ7-76HOvoV0_8-451" source="LDRxqSCZ7-76HOvoV0_8-104" target="LDRxqSCZ7-76HOvoV0_8-252">
          <mxGeometry relative="1" as="geometry">
            <Array as="points">
              <mxPoint x="330" y="300" />
              <mxPoint x="330" y="405" />
            </Array>
          </mxGeometry>
        </mxCell>
        <mxCell id="LDRxqSCZ7-76HOvoV0_8-321" style="edgeStyle=orthogonalEdgeStyle;rounded=0;orthogonalLoop=1;jettySize=auto;html=1;entryX=0;entryY=0.5;entryDx=0;entryDy=0;" edge="1" parent="LDRxqSCZ7-76HOvoV0_8-451" source="LDRxqSCZ7-76HOvoV0_8-128" target="LDRxqSCZ7-76HOvoV0_8-248">
          <mxGeometry relative="1" as="geometry">
            <Array as="points">
              <mxPoint x="530" y="300" />
              <mxPoint x="530" y="405" />
            </Array>
          </mxGeometry>
        </mxCell>
        <mxCell id="LDRxqSCZ7-76HOvoV0_8-322" style="edgeStyle=orthogonalEdgeStyle;rounded=0;orthogonalLoop=1;jettySize=auto;html=1;entryX=0;entryY=0.5;entryDx=0;entryDy=0;" edge="1" parent="LDRxqSCZ7-76HOvoV0_8-451" source="LDRxqSCZ7-76HOvoV0_8-120" target="LDRxqSCZ7-76HOvoV0_8-260">
          <mxGeometry relative="1" as="geometry">
            <Array as="points">
              <mxPoint x="735" y="300" />
              <mxPoint x="735" y="405" />
            </Array>
          </mxGeometry>
        </mxCell>
        <mxCell id="LDRxqSCZ7-76HOvoV0_8-323" style="edgeStyle=orthogonalEdgeStyle;rounded=0;orthogonalLoop=1;jettySize=auto;html=1;entryX=0;entryY=0.5;entryDx=0;entryDy=0;" edge="1" parent="LDRxqSCZ7-76HOvoV0_8-451" source="LDRxqSCZ7-76HOvoV0_8-144" target="LDRxqSCZ7-76HOvoV0_8-268">
          <mxGeometry relative="1" as="geometry">
            <Array as="points">
              <mxPoint x="940" y="300" />
              <mxPoint x="940" y="405" />
            </Array>
          </mxGeometry>
        </mxCell>
        <mxCell id="LDRxqSCZ7-76HOvoV0_8-324" style="edgeStyle=orthogonalEdgeStyle;rounded=0;orthogonalLoop=1;jettySize=auto;html=1;entryX=0;entryY=0.5;entryDx=0;entryDy=0;" edge="1" parent="LDRxqSCZ7-76HOvoV0_8-451" source="LDRxqSCZ7-76HOvoV0_8-136" target="LDRxqSCZ7-76HOvoV0_8-276">
          <mxGeometry relative="1" as="geometry">
            <Array as="points">
              <mxPoint x="1145" y="300" />
              <mxPoint x="1145" y="405" />
            </Array>
          </mxGeometry>
        </mxCell>
        <mxCell id="LDRxqSCZ7-76HOvoV0_8-325" style="edgeStyle=orthogonalEdgeStyle;rounded=0;orthogonalLoop=1;jettySize=auto;html=1;entryX=0.25;entryY=1;entryDx=0;entryDy=0;" edge="1" parent="LDRxqSCZ7-76HOvoV0_8-451" source="LDRxqSCZ7-76HOvoV0_8-208" target="LDRxqSCZ7-76HOvoV0_8-283">
          <mxGeometry relative="1" as="geometry">
            <Array as="points">
              <mxPoint x="1350" y="300" />
              <mxPoint x="1350" y="400" />
            </Array>
          </mxGeometry>
        </mxCell>
        <mxCell id="LDRxqSCZ7-76HOvoV0_8-326" style="edgeStyle=orthogonalEdgeStyle;rounded=0;orthogonalLoop=1;jettySize=auto;html=1;entryX=0;entryY=0.5;entryDx=0;entryDy=0;" edge="1" parent="LDRxqSCZ7-76HOvoV0_8-451" source="LDRxqSCZ7-76HOvoV0_8-200" target="LDRxqSCZ7-76HOvoV0_8-292">
          <mxGeometry relative="1" as="geometry">
            <Array as="points">
              <mxPoint x="1550" y="300" />
              <mxPoint x="1550" y="405" />
            </Array>
          </mxGeometry>
        </mxCell>
        <mxCell id="LDRxqSCZ7-76HOvoV0_8-327" style="edgeStyle=orthogonalEdgeStyle;rounded=0;orthogonalLoop=1;jettySize=auto;html=1;entryX=0;entryY=0.5;entryDx=0;entryDy=0;" edge="1" parent="LDRxqSCZ7-76HOvoV0_8-451" source="LDRxqSCZ7-76HOvoV0_8-224" target="LDRxqSCZ7-76HOvoV0_8-300">
          <mxGeometry relative="1" as="geometry">
            <Array as="points">
              <mxPoint x="1750" y="300" />
              <mxPoint x="1750" y="405" />
            </Array>
          </mxGeometry>
        </mxCell>
        <mxCell id="LDRxqSCZ7-76HOvoV0_8-328" style="edgeStyle=orthogonalEdgeStyle;rounded=0;orthogonalLoop=1;jettySize=auto;html=1;entryX=0;entryY=0.5;entryDx=0;entryDy=0;" edge="1" parent="LDRxqSCZ7-76HOvoV0_8-451" source="LDRxqSCZ7-76HOvoV0_8-216" target="LDRxqSCZ7-76HOvoV0_8-308">
          <mxGeometry relative="1" as="geometry">
            <Array as="points">
              <mxPoint x="1955" y="300" />
              <mxPoint x="1955" y="405" />
            </Array>
          </mxGeometry>
        </mxCell>
        <mxCell id="LDRxqSCZ7-76HOvoV0_8-331" style="edgeStyle=orthogonalEdgeStyle;rounded=0;orthogonalLoop=1;jettySize=auto;html=1;entryX=0;entryY=0.5;entryDx=0;entryDy=0;" edge="1" parent="LDRxqSCZ7-76HOvoV0_8-451" source="LDRxqSCZ7-76HOvoV0_8-251" target="LDRxqSCZ7-76HOvoV0_8-132">
          <mxGeometry relative="1" as="geometry" />
        </mxCell>
        <mxCell id="LDRxqSCZ7-76HOvoV0_8-332" style="edgeStyle=orthogonalEdgeStyle;rounded=0;orthogonalLoop=1;jettySize=auto;html=1;entryX=0;entryY=0.5;entryDx=0;entryDy=0;" edge="1" parent="LDRxqSCZ7-76HOvoV0_8-451" source="LDRxqSCZ7-76HOvoV0_8-247" target="LDRxqSCZ7-76HOvoV0_8-124">
          <mxGeometry relative="1" as="geometry" />
        </mxCell>
        <mxCell id="LDRxqSCZ7-76HOvoV0_8-333" style="edgeStyle=orthogonalEdgeStyle;rounded=0;orthogonalLoop=1;jettySize=auto;html=1;entryX=0;entryY=0.5;entryDx=0;entryDy=0;" edge="1" parent="LDRxqSCZ7-76HOvoV0_8-451" source="LDRxqSCZ7-76HOvoV0_8-259" target="LDRxqSCZ7-76HOvoV0_8-148">
          <mxGeometry relative="1" as="geometry" />
        </mxCell>
        <mxCell id="LDRxqSCZ7-76HOvoV0_8-334" style="edgeStyle=orthogonalEdgeStyle;rounded=0;orthogonalLoop=1;jettySize=auto;html=1;entryX=0;entryY=0.5;entryDx=0;entryDy=0;" edge="1" parent="LDRxqSCZ7-76HOvoV0_8-451" source="LDRxqSCZ7-76HOvoV0_8-267" target="LDRxqSCZ7-76HOvoV0_8-140">
          <mxGeometry relative="1" as="geometry" />
        </mxCell>
        <mxCell id="LDRxqSCZ7-76HOvoV0_8-335" style="edgeStyle=orthogonalEdgeStyle;rounded=0;orthogonalLoop=1;jettySize=auto;html=1;entryX=0;entryY=0.75;entryDx=0;entryDy=0;" edge="1" parent="LDRxqSCZ7-76HOvoV0_8-451" source="LDRxqSCZ7-76HOvoV0_8-275" target="LDRxqSCZ7-76HOvoV0_8-212">
          <mxGeometry relative="1" as="geometry" />
        </mxCell>
        <mxCell id="LDRxqSCZ7-76HOvoV0_8-336" style="edgeStyle=orthogonalEdgeStyle;rounded=0;orthogonalLoop=1;jettySize=auto;html=1;entryX=0;entryY=0.5;entryDx=0;entryDy=0;" edge="1" parent="LDRxqSCZ7-76HOvoV0_8-451" source="LDRxqSCZ7-76HOvoV0_8-283" target="LDRxqSCZ7-76HOvoV0_8-204">
          <mxGeometry relative="1" as="geometry" />
        </mxCell>
        <mxCell id="LDRxqSCZ7-76HOvoV0_8-337" style="edgeStyle=orthogonalEdgeStyle;rounded=0;orthogonalLoop=1;jettySize=auto;html=1;entryX=0;entryY=0.75;entryDx=0;entryDy=0;" edge="1" parent="LDRxqSCZ7-76HOvoV0_8-451" source="LDRxqSCZ7-76HOvoV0_8-291" target="LDRxqSCZ7-76HOvoV0_8-228">
          <mxGeometry relative="1" as="geometry" />
        </mxCell>
        <mxCell id="LDRxqSCZ7-76HOvoV0_8-338" style="edgeStyle=orthogonalEdgeStyle;rounded=0;orthogonalLoop=1;jettySize=auto;html=1;entryX=0;entryY=0.5;entryDx=0;entryDy=0;" edge="1" parent="LDRxqSCZ7-76HOvoV0_8-451" source="LDRxqSCZ7-76HOvoV0_8-299" target="LDRxqSCZ7-76HOvoV0_8-220">
          <mxGeometry relative="1" as="geometry" />
        </mxCell>
        <mxCell id="LDRxqSCZ7-76HOvoV0_8-339" style="edgeStyle=orthogonalEdgeStyle;rounded=0;orthogonalLoop=1;jettySize=auto;html=1;entryX=0;entryY=0.25;entryDx=0;entryDy=0;" edge="1" parent="LDRxqSCZ7-76HOvoV0_8-451" source="LDRxqSCZ7-76HOvoV0_8-307" target="LDRxqSCZ7-76HOvoV0_8-244">
          <mxGeometry relative="1" as="geometry" />
        </mxCell>
        <mxCell id="LDRxqSCZ7-76HOvoV0_8-342" value="" style="endArrow=classic;html=1;rounded=0;" edge="1" parent="LDRxqSCZ7-76HOvoV0_8-451">
          <mxGeometry width="50" height="50" relative="1" as="geometry">
            <mxPoint x="50" y="460" as="sourcePoint" />
            <mxPoint x="350" y="460" as="targetPoint" />
          </mxGeometry>
        </mxCell>
        <mxCell id="LDRxqSCZ7-76HOvoV0_8-344" value="" style="endArrow=none;html=1;rounded=0;exitX=0.99;exitY=0.6;exitDx=0;exitDy=0;exitPerimeter=0;" edge="1" parent="LDRxqSCZ7-76HOvoV0_8-451" source="LDRxqSCZ7-76HOvoV0_8-365">
          <mxGeometry width="50" height="50" relative="1" as="geometry">
            <mxPoint x="90" y="660" as="sourcePoint" />
            <mxPoint x="1950" y="660" as="targetPoint" />
          </mxGeometry>
        </mxCell>
        <mxCell id="LDRxqSCZ7-76HOvoV0_8-346" style="edgeStyle=orthogonalEdgeStyle;rounded=0;orthogonalLoop=1;jettySize=auto;html=1;" edge="1" parent="LDRxqSCZ7-76HOvoV0_8-451" source="LDRxqSCZ7-76HOvoV0_8-240" target="LDRxqSCZ7-76HOvoV0_8-236">
          <mxGeometry relative="1" as="geometry">
            <Array as="points">
              <mxPoint x="2160" y="300" />
              <mxPoint x="2160" y="300" />
            </Array>
          </mxGeometry>
        </mxCell>
        <mxCell id="LDRxqSCZ7-76HOvoV0_8-347" value="" style="endArrow=none;html=1;rounded=0;" edge="1" parent="LDRxqSCZ7-76HOvoV0_8-451">
          <mxGeometry width="50" height="50" relative="1" as="geometry">
            <mxPoint x="1950" y="660" as="sourcePoint" />
            <mxPoint x="1950" y="460" as="targetPoint" />
          </mxGeometry>
        </mxCell>
        <mxCell id="LDRxqSCZ7-76HOvoV0_8-348" value="" style="endArrow=classic;html=1;rounded=0;entryX=-0.033;entryY=0.65;entryDx=0;entryDy=0;entryPerimeter=0;" edge="1" parent="LDRxqSCZ7-76HOvoV0_8-451" target="LDRxqSCZ7-76HOvoV0_8-309">
          <mxGeometry width="50" height="50" relative="1" as="geometry">
            <mxPoint x="1950" y="460" as="sourcePoint" />
            <mxPoint x="2000" y="410" as="targetPoint" />
          </mxGeometry>
        </mxCell>
        <mxCell id="LDRxqSCZ7-76HOvoV0_8-349" value="" style="endArrow=none;html=1;rounded=0;" edge="1" parent="LDRxqSCZ7-76HOvoV0_8-451" source="LDRxqSCZ7-76HOvoV0_8-406">
          <mxGeometry width="50" height="50" relative="1" as="geometry">
            <mxPoint x="1741" y="660" as="sourcePoint" />
            <mxPoint x="1741" y="460" as="targetPoint" />
          </mxGeometry>
        </mxCell>
        <mxCell id="LDRxqSCZ7-76HOvoV0_8-350" value="" style="endArrow=classic;html=1;rounded=0;entryX=-0.033;entryY=0.65;entryDx=0;entryDy=0;entryPerimeter=0;" edge="1" parent="LDRxqSCZ7-76HOvoV0_8-451">
          <mxGeometry width="50" height="50" relative="1" as="geometry">
            <mxPoint x="1741" y="460" as="sourcePoint" />
            <mxPoint x="1770" y="460" as="targetPoint" />
          </mxGeometry>
        </mxCell>
        <mxCell id="LDRxqSCZ7-76HOvoV0_8-351" value="" style="endArrow=none;html=1;rounded=0;" edge="1" parent="LDRxqSCZ7-76HOvoV0_8-451" source="LDRxqSCZ7-76HOvoV0_8-405">
          <mxGeometry width="50" height="50" relative="1" as="geometry">
            <mxPoint x="1541" y="660" as="sourcePoint" />
            <mxPoint x="1541" y="460" as="targetPoint" />
          </mxGeometry>
        </mxCell>
        <mxCell id="LDRxqSCZ7-76HOvoV0_8-352" value="" style="endArrow=classic;html=1;rounded=0;entryX=-0.033;entryY=0.65;entryDx=0;entryDy=0;entryPerimeter=0;" edge="1" parent="LDRxqSCZ7-76HOvoV0_8-451">
          <mxGeometry width="50" height="50" relative="1" as="geometry">
            <mxPoint x="1541" y="460" as="sourcePoint" />
            <mxPoint x="1570" y="460" as="targetPoint" />
          </mxGeometry>
        </mxCell>
        <mxCell id="LDRxqSCZ7-76HOvoV0_8-353" value="" style="endArrow=none;html=1;rounded=0;" edge="1" parent="LDRxqSCZ7-76HOvoV0_8-451" source="LDRxqSCZ7-76HOvoV0_8-404">
          <mxGeometry width="50" height="50" relative="1" as="geometry">
            <mxPoint x="1341" y="660" as="sourcePoint" />
            <mxPoint x="1341" y="460" as="targetPoint" />
          </mxGeometry>
        </mxCell>
        <mxCell id="LDRxqSCZ7-76HOvoV0_8-354" value="" style="endArrow=classic;html=1;rounded=0;entryX=-0.033;entryY=0.65;entryDx=0;entryDy=0;entryPerimeter=0;" edge="1" parent="LDRxqSCZ7-76HOvoV0_8-451">
          <mxGeometry width="50" height="50" relative="1" as="geometry">
            <mxPoint x="1341" y="460" as="sourcePoint" />
            <mxPoint x="1370" y="460" as="targetPoint" />
          </mxGeometry>
        </mxCell>
        <mxCell id="LDRxqSCZ7-76HOvoV0_8-355" value="" style="endArrow=none;html=1;rounded=0;" edge="1" parent="LDRxqSCZ7-76HOvoV0_8-451" source="LDRxqSCZ7-76HOvoV0_8-403">
          <mxGeometry width="50" height="50" relative="1" as="geometry">
            <mxPoint x="1141" y="660" as="sourcePoint" />
            <mxPoint x="1141" y="460" as="targetPoint" />
          </mxGeometry>
        </mxCell>
        <mxCell id="LDRxqSCZ7-76HOvoV0_8-356" value="" style="endArrow=classic;html=1;rounded=0;entryX=-0.033;entryY=0.65;entryDx=0;entryDy=0;entryPerimeter=0;" edge="1" parent="LDRxqSCZ7-76HOvoV0_8-451">
          <mxGeometry width="50" height="50" relative="1" as="geometry">
            <mxPoint x="1141" y="460" as="sourcePoint" />
            <mxPoint x="1170" y="460" as="targetPoint" />
          </mxGeometry>
        </mxCell>
        <mxCell id="LDRxqSCZ7-76HOvoV0_8-357" value="" style="endArrow=none;html=1;rounded=0;" edge="1" parent="LDRxqSCZ7-76HOvoV0_8-451" source="LDRxqSCZ7-76HOvoV0_8-402">
          <mxGeometry width="50" height="50" relative="1" as="geometry">
            <mxPoint x="931" y="660" as="sourcePoint" />
            <mxPoint x="931" y="460" as="targetPoint" />
          </mxGeometry>
        </mxCell>
        <mxCell id="LDRxqSCZ7-76HOvoV0_8-358" value="" style="endArrow=classic;html=1;rounded=0;entryX=-0.033;entryY=0.65;entryDx=0;entryDy=0;entryPerimeter=0;" edge="1" parent="LDRxqSCZ7-76HOvoV0_8-451">
          <mxGeometry width="50" height="50" relative="1" as="geometry">
            <mxPoint x="931" y="460" as="sourcePoint" />
            <mxPoint x="960" y="460" as="targetPoint" />
          </mxGeometry>
        </mxCell>
        <mxCell id="LDRxqSCZ7-76HOvoV0_8-359" value="" style="endArrow=none;html=1;rounded=0;" edge="1" parent="LDRxqSCZ7-76HOvoV0_8-451" source="LDRxqSCZ7-76HOvoV0_8-401">
          <mxGeometry width="50" height="50" relative="1" as="geometry">
            <mxPoint x="731" y="660" as="sourcePoint" />
            <mxPoint x="731" y="460" as="targetPoint" />
          </mxGeometry>
        </mxCell>
        <mxCell id="LDRxqSCZ7-76HOvoV0_8-360" value="" style="endArrow=classic;html=1;rounded=0;entryX=-0.033;entryY=0.65;entryDx=0;entryDy=0;entryPerimeter=0;" edge="1" parent="LDRxqSCZ7-76HOvoV0_8-451">
          <mxGeometry width="50" height="50" relative="1" as="geometry">
            <mxPoint x="731" y="460" as="sourcePoint" />
            <mxPoint x="760" y="460" as="targetPoint" />
          </mxGeometry>
        </mxCell>
        <mxCell id="LDRxqSCZ7-76HOvoV0_8-361" value="" style="endArrow=none;html=1;rounded=0;" edge="1" parent="LDRxqSCZ7-76HOvoV0_8-451" source="LDRxqSCZ7-76HOvoV0_8-400">
          <mxGeometry width="50" height="50" relative="1" as="geometry">
            <mxPoint x="521" y="660" as="sourcePoint" />
            <mxPoint x="521" y="460" as="targetPoint" />
          </mxGeometry>
        </mxCell>
        <mxCell id="LDRxqSCZ7-76HOvoV0_8-362" value="" style="endArrow=classic;html=1;rounded=0;entryX=-0.033;entryY=0.65;entryDx=0;entryDy=0;entryPerimeter=0;" edge="1" parent="LDRxqSCZ7-76HOvoV0_8-451">
          <mxGeometry width="50" height="50" relative="1" as="geometry">
            <mxPoint x="521" y="460" as="sourcePoint" />
            <mxPoint x="550" y="460" as="targetPoint" />
          </mxGeometry>
        </mxCell>
        <mxCell id="LDRxqSCZ7-76HOvoV0_8-363" value="" style="endArrow=none;html=1;rounded=0;" edge="1" parent="LDRxqSCZ7-76HOvoV0_8-451">
          <mxGeometry width="50" height="50" relative="1" as="geometry">
            <mxPoint x="170" y="670" as="sourcePoint" />
            <mxPoint x="190" y="650" as="targetPoint" />
          </mxGeometry>
        </mxCell>
        <mxCell id="LDRxqSCZ7-76HOvoV0_8-364" value="&lt;font style=&quot;font-size: 20px;&quot;&gt;8&lt;/font&gt;" style="text;html=1;align=center;verticalAlign=middle;resizable=0;points=[];autosize=1;strokeColor=none;fillColor=none;" vertex="1" parent="LDRxqSCZ7-76HOvoV0_8-451">
          <mxGeometry x="170" y="615" width="30" height="40" as="geometry" />
        </mxCell>
        <mxCell id="LDRxqSCZ7-76HOvoV0_8-366" value="&lt;font style=&quot;font-size: 20px;&quot;&gt;data[0]&lt;/font&gt;" style="text;html=1;align=center;verticalAlign=middle;resizable=0;points=[];autosize=1;strokeColor=none;fillColor=none;" vertex="1" parent="LDRxqSCZ7-76HOvoV0_8-451">
          <mxGeometry x="1950" y="563" width="80" height="40" as="geometry" />
        </mxCell>
        <mxCell id="LDRxqSCZ7-76HOvoV0_8-367" value="&lt;font style=&quot;font-size: 20px;&quot;&gt;data[1]&lt;/font&gt;" style="text;html=1;align=center;verticalAlign=middle;resizable=0;points=[];autosize=1;strokeColor=none;fillColor=none;" vertex="1" parent="LDRxqSCZ7-76HOvoV0_8-451">
          <mxGeometry x="1740" y="563" width="80" height="40" as="geometry" />
        </mxCell>
        <mxCell id="LDRxqSCZ7-76HOvoV0_8-368" value="&lt;font style=&quot;font-size: 20px;&quot;&gt;data[2]&lt;/font&gt;" style="text;html=1;align=center;verticalAlign=middle;resizable=0;points=[];autosize=1;strokeColor=none;fillColor=none;" vertex="1" parent="LDRxqSCZ7-76HOvoV0_8-451">
          <mxGeometry x="1540" y="563" width="80" height="40" as="geometry" />
        </mxCell>
        <mxCell id="LDRxqSCZ7-76HOvoV0_8-369" value="&lt;font style=&quot;font-size: 20px;&quot;&gt;data[3]&lt;/font&gt;" style="text;html=1;align=center;verticalAlign=middle;resizable=0;points=[];autosize=1;strokeColor=none;fillColor=none;" vertex="1" parent="LDRxqSCZ7-76HOvoV0_8-451">
          <mxGeometry x="1340" y="563" width="80" height="40" as="geometry" />
        </mxCell>
        <mxCell id="LDRxqSCZ7-76HOvoV0_8-370" value="&lt;font style=&quot;font-size: 20px;&quot;&gt;data[4]&lt;/font&gt;" style="text;html=1;align=center;verticalAlign=middle;resizable=0;points=[];autosize=1;strokeColor=none;fillColor=none;" vertex="1" parent="LDRxqSCZ7-76HOvoV0_8-451">
          <mxGeometry x="1140" y="563" width="80" height="40" as="geometry" />
        </mxCell>
        <mxCell id="LDRxqSCZ7-76HOvoV0_8-371" value="&lt;font style=&quot;font-size: 20px;&quot;&gt;data[5]&lt;/font&gt;" style="text;html=1;align=center;verticalAlign=middle;resizable=0;points=[];autosize=1;strokeColor=none;fillColor=none;" vertex="1" parent="LDRxqSCZ7-76HOvoV0_8-451">
          <mxGeometry x="930" y="563" width="80" height="40" as="geometry" />
        </mxCell>
        <mxCell id="LDRxqSCZ7-76HOvoV0_8-372" value="&lt;font style=&quot;font-size: 20px;&quot;&gt;data[6]&lt;/font&gt;" style="text;html=1;align=center;verticalAlign=middle;resizable=0;points=[];autosize=1;strokeColor=none;fillColor=none;" vertex="1" parent="LDRxqSCZ7-76HOvoV0_8-451">
          <mxGeometry x="730" y="563" width="80" height="40" as="geometry" />
        </mxCell>
        <mxCell id="LDRxqSCZ7-76HOvoV0_8-373" value="&lt;font style=&quot;font-size: 20px;&quot;&gt;data[7]&lt;/font&gt;" style="text;html=1;align=center;verticalAlign=middle;resizable=0;points=[];autosize=1;strokeColor=none;fillColor=none;" vertex="1" parent="LDRxqSCZ7-76HOvoV0_8-451">
          <mxGeometry x="520" y="563" width="80" height="40" as="geometry" />
        </mxCell>
        <mxCell id="LDRxqSCZ7-76HOvoV0_8-375" value="" style="endArrow=none;html=1;rounded=0;" edge="1" parent="LDRxqSCZ7-76HOvoV0_8-451" source="LDRxqSCZ7-76HOvoV0_8-391">
          <mxGeometry width="50" height="50" relative="1" as="geometry">
            <mxPoint x="90" y="20" as="sourcePoint" />
            <mxPoint x="1990" y="20" as="targetPoint" />
          </mxGeometry>
        </mxCell>
        <mxCell id="LDRxqSCZ7-76HOvoV0_8-379" value="" style="endArrow=classic;html=1;rounded=0;" edge="1" parent="LDRxqSCZ7-76HOvoV0_8-451">
          <mxGeometry width="50" height="50" relative="1" as="geometry">
            <mxPoint x="360" y="20" as="sourcePoint" />
            <mxPoint x="360" y="380" as="targetPoint" />
          </mxGeometry>
        </mxCell>
        <mxCell id="LDRxqSCZ7-76HOvoV0_8-380" value="" style="endArrow=classic;html=1;rounded=0;" edge="1" parent="LDRxqSCZ7-76HOvoV0_8-451" source="LDRxqSCZ7-76HOvoV0_8-393">
          <mxGeometry width="50" height="50" relative="1" as="geometry">
            <mxPoint x="559.3800000000001" y="20" as="sourcePoint" />
            <mxPoint x="559.3800000000001" y="380" as="targetPoint" />
          </mxGeometry>
        </mxCell>
        <mxCell id="LDRxqSCZ7-76HOvoV0_8-381" value="" style="endArrow=classic;html=1;rounded=0;" edge="1" parent="LDRxqSCZ7-76HOvoV0_8-451" source="LDRxqSCZ7-76HOvoV0_8-394">
          <mxGeometry width="50" height="50" relative="1" as="geometry">
            <mxPoint x="769.3800000000001" y="20" as="sourcePoint" />
            <mxPoint x="769.3800000000001" y="380" as="targetPoint" />
          </mxGeometry>
        </mxCell>
        <mxCell id="LDRxqSCZ7-76HOvoV0_8-382" value="" style="endArrow=classic;html=1;rounded=0;" edge="1" parent="LDRxqSCZ7-76HOvoV0_8-451" source="LDRxqSCZ7-76HOvoV0_8-395">
          <mxGeometry width="50" height="50" relative="1" as="geometry">
            <mxPoint x="969.3800000000001" y="20" as="sourcePoint" />
            <mxPoint x="969.3800000000001" y="380" as="targetPoint" />
          </mxGeometry>
        </mxCell>
        <mxCell id="LDRxqSCZ7-76HOvoV0_8-383" value="" style="endArrow=classic;html=1;rounded=0;" edge="1" parent="LDRxqSCZ7-76HOvoV0_8-451" source="LDRxqSCZ7-76HOvoV0_8-396">
          <mxGeometry width="50" height="50" relative="1" as="geometry">
            <mxPoint x="1179.38" y="20" as="sourcePoint" />
            <mxPoint x="1179.38" y="380" as="targetPoint" />
          </mxGeometry>
        </mxCell>
        <mxCell id="LDRxqSCZ7-76HOvoV0_8-384" value="" style="endArrow=classic;html=1;rounded=0;" edge="1" parent="LDRxqSCZ7-76HOvoV0_8-451" source="LDRxqSCZ7-76HOvoV0_8-397">
          <mxGeometry width="50" height="50" relative="1" as="geometry">
            <mxPoint x="1379.38" y="20" as="sourcePoint" />
            <mxPoint x="1379.38" y="380" as="targetPoint" />
          </mxGeometry>
        </mxCell>
        <mxCell id="LDRxqSCZ7-76HOvoV0_8-385" value="" style="endArrow=classic;html=1;rounded=0;" edge="1" parent="LDRxqSCZ7-76HOvoV0_8-451" source="LDRxqSCZ7-76HOvoV0_8-398">
          <mxGeometry width="50" height="50" relative="1" as="geometry">
            <mxPoint x="1579.38" y="20" as="sourcePoint" />
            <mxPoint x="1579.38" y="380" as="targetPoint" />
          </mxGeometry>
        </mxCell>
        <mxCell id="LDRxqSCZ7-76HOvoV0_8-386" value="" style="endArrow=classic;html=1;rounded=0;" edge="1" parent="LDRxqSCZ7-76HOvoV0_8-451" source="LDRxqSCZ7-76HOvoV0_8-399">
          <mxGeometry width="50" height="50" relative="1" as="geometry">
            <mxPoint x="1779.38" y="20" as="sourcePoint" />
            <mxPoint x="1779.38" y="380" as="targetPoint" />
          </mxGeometry>
        </mxCell>
        <mxCell id="LDRxqSCZ7-76HOvoV0_8-387" value="" style="endArrow=classic;html=1;rounded=0;" edge="1" parent="LDRxqSCZ7-76HOvoV0_8-451">
          <mxGeometry width="50" height="50" relative="1" as="geometry">
            <mxPoint x="1989.38" y="20" as="sourcePoint" />
            <mxPoint x="1989.38" y="380" as="targetPoint" />
          </mxGeometry>
        </mxCell>
        <mxCell id="LDRxqSCZ7-76HOvoV0_8-391" value="" style="shape=ellipse;fillColor=#000000;strokeColor=none;html=1;sketch=0;" vertex="1" parent="LDRxqSCZ7-76HOvoV0_8-451">
          <mxGeometry x="355" y="15" width="10" height="10" as="geometry" />
        </mxCell>
        <mxCell id="LDRxqSCZ7-76HOvoV0_8-393" value="" style="shape=ellipse;fillColor=#000000;strokeColor=none;html=1;sketch=0;" vertex="1" parent="LDRxqSCZ7-76HOvoV0_8-451">
          <mxGeometry x="554.3800000000001" y="15" width="10" height="10" as="geometry" />
        </mxCell>
        <mxCell id="LDRxqSCZ7-76HOvoV0_8-394" value="" style="shape=ellipse;fillColor=#000000;strokeColor=none;html=1;sketch=0;" vertex="1" parent="LDRxqSCZ7-76HOvoV0_8-451">
          <mxGeometry x="764.3800000000001" y="15" width="10" height="10" as="geometry" />
        </mxCell>
        <mxCell id="LDRxqSCZ7-76HOvoV0_8-395" value="" style="shape=ellipse;fillColor=#000000;strokeColor=none;html=1;sketch=0;" vertex="1" parent="LDRxqSCZ7-76HOvoV0_8-451">
          <mxGeometry x="964.3799999999997" y="15" width="10" height="10" as="geometry" />
        </mxCell>
        <mxCell id="LDRxqSCZ7-76HOvoV0_8-396" value="" style="shape=ellipse;fillColor=#000000;strokeColor=none;html=1;sketch=0;" vertex="1" parent="LDRxqSCZ7-76HOvoV0_8-451">
          <mxGeometry x="1174.3799999999997" y="15" width="10" height="10" as="geometry" />
        </mxCell>
        <mxCell id="LDRxqSCZ7-76HOvoV0_8-397" value="" style="shape=ellipse;fillColor=#000000;strokeColor=none;html=1;sketch=0;" vertex="1" parent="LDRxqSCZ7-76HOvoV0_8-451">
          <mxGeometry x="1374.3799999999997" y="15" width="10" height="10" as="geometry" />
        </mxCell>
        <mxCell id="LDRxqSCZ7-76HOvoV0_8-398" value="" style="shape=ellipse;fillColor=#000000;strokeColor=none;html=1;sketch=0;" vertex="1" parent="LDRxqSCZ7-76HOvoV0_8-451">
          <mxGeometry x="1574.3799999999997" y="15" width="10" height="10" as="geometry" />
        </mxCell>
        <mxCell id="LDRxqSCZ7-76HOvoV0_8-399" value="" style="shape=ellipse;fillColor=#000000;strokeColor=none;html=1;sketch=0;" vertex="1" parent="LDRxqSCZ7-76HOvoV0_8-451">
          <mxGeometry x="1774.3799999999997" y="15" width="10" height="10" as="geometry" />
        </mxCell>
        <mxCell id="LDRxqSCZ7-76HOvoV0_8-400" value="" style="shape=ellipse;fillColor=#000000;strokeColor=none;html=1;sketch=0;" vertex="1" parent="LDRxqSCZ7-76HOvoV0_8-451">
          <mxGeometry x="516" y="655" width="10" height="10" as="geometry" />
        </mxCell>
        <mxCell id="LDRxqSCZ7-76HOvoV0_8-401" value="" style="shape=ellipse;fillColor=#000000;strokeColor=none;html=1;sketch=0;" vertex="1" parent="LDRxqSCZ7-76HOvoV0_8-451">
          <mxGeometry x="726" y="655" width="10" height="10" as="geometry" />
        </mxCell>
        <mxCell id="LDRxqSCZ7-76HOvoV0_8-402" value="" style="shape=ellipse;fillColor=#000000;strokeColor=none;html=1;sketch=0;" vertex="1" parent="LDRxqSCZ7-76HOvoV0_8-451">
          <mxGeometry x="926" y="655" width="10" height="10" as="geometry" />
        </mxCell>
        <mxCell id="LDRxqSCZ7-76HOvoV0_8-403" value="" style="shape=ellipse;fillColor=#000000;strokeColor=none;html=1;sketch=0;" vertex="1" parent="LDRxqSCZ7-76HOvoV0_8-451">
          <mxGeometry x="1136" y="655" width="10" height="10" as="geometry" />
        </mxCell>
        <mxCell id="LDRxqSCZ7-76HOvoV0_8-404" value="" style="shape=ellipse;fillColor=#000000;strokeColor=none;html=1;sketch=0;" vertex="1" parent="LDRxqSCZ7-76HOvoV0_8-451">
          <mxGeometry x="1336" y="655" width="10" height="10" as="geometry" />
        </mxCell>
        <mxCell id="LDRxqSCZ7-76HOvoV0_8-405" value="" style="shape=ellipse;fillColor=#000000;strokeColor=none;html=1;sketch=0;" vertex="1" parent="LDRxqSCZ7-76HOvoV0_8-451">
          <mxGeometry x="1536" y="655" width="10" height="10" as="geometry" />
        </mxCell>
        <mxCell id="LDRxqSCZ7-76HOvoV0_8-406" value="" style="shape=ellipse;fillColor=#000000;strokeColor=none;html=1;sketch=0;" vertex="1" parent="LDRxqSCZ7-76HOvoV0_8-451">
          <mxGeometry x="1736" y="655" width="10" height="10" as="geometry" />
        </mxCell>
        <mxCell id="LDRxqSCZ7-76HOvoV0_8-408" value="" style="endArrow=none;html=1;rounded=0;" edge="1" parent="LDRxqSCZ7-76HOvoV0_8-451" target="LDRxqSCZ7-76HOvoV0_8-414">
          <mxGeometry width="50" height="50" relative="1" as="geometry">
            <mxPoint x="140" y="330" as="sourcePoint" />
            <mxPoint x="140" y="110" as="targetPoint" />
          </mxGeometry>
        </mxCell>
        <mxCell id="LDRxqSCZ7-76HOvoV0_8-410" value="" style="endArrow=classic;html=1;rounded=0;entryX=0;entryY=0.5;entryDx=0;entryDy=0;" edge="1" parent="LDRxqSCZ7-76HOvoV0_8-451" target="LDRxqSCZ7-76HOvoV0_8-107">
          <mxGeometry width="50" height="50" relative="1" as="geometry">
            <mxPoint x="140" y="330" as="sourcePoint" />
            <mxPoint x="189" y="330" as="targetPoint" />
          </mxGeometry>
        </mxCell>
        <mxCell id="LDRxqSCZ7-76HOvoV0_8-414" value="" style="shape=ellipse;fillColor=#000000;strokeColor=none;html=1;sketch=0;" vertex="1" parent="LDRxqSCZ7-76HOvoV0_8-451">
          <mxGeometry x="135" y="105" width="10" height="10" as="geometry" />
        </mxCell>
        <mxCell id="LDRxqSCZ7-76HOvoV0_8-415" value="" style="endArrow=none;html=1;rounded=0;" edge="1" parent="LDRxqSCZ7-76HOvoV0_8-451" target="LDRxqSCZ7-76HOvoV0_8-417">
          <mxGeometry width="50" height="50" relative="1" as="geometry">
            <mxPoint x="345" y="330" as="sourcePoint" />
            <mxPoint x="345" y="110" as="targetPoint" />
          </mxGeometry>
        </mxCell>
        <mxCell id="LDRxqSCZ7-76HOvoV0_8-416" value="" style="endArrow=classic;html=1;rounded=0;entryX=0;entryY=0.5;entryDx=0;entryDy=0;" edge="1" parent="LDRxqSCZ7-76HOvoV0_8-451">
          <mxGeometry width="50" height="50" relative="1" as="geometry">
            <mxPoint x="345" y="330" as="sourcePoint" />
            <mxPoint x="415" y="330" as="targetPoint" />
          </mxGeometry>
        </mxCell>
        <mxCell id="LDRxqSCZ7-76HOvoV0_8-417" value="" style="shape=ellipse;fillColor=#000000;strokeColor=none;html=1;sketch=0;" vertex="1" parent="LDRxqSCZ7-76HOvoV0_8-451">
          <mxGeometry x="340" y="105" width="10" height="10" as="geometry" />
        </mxCell>
        <mxCell id="LDRxqSCZ7-76HOvoV0_8-418" value="" style="endArrow=none;html=1;rounded=0;" edge="1" parent="LDRxqSCZ7-76HOvoV0_8-451" target="LDRxqSCZ7-76HOvoV0_8-420">
          <mxGeometry width="50" height="50" relative="1" as="geometry">
            <mxPoint x="540" y="330" as="sourcePoint" />
            <mxPoint x="540" y="110" as="targetPoint" />
          </mxGeometry>
        </mxCell>
        <mxCell id="LDRxqSCZ7-76HOvoV0_8-419" value="" style="endArrow=classic;html=1;rounded=0;entryX=0;entryY=0.5;entryDx=0;entryDy=0;" edge="1" parent="LDRxqSCZ7-76HOvoV0_8-451">
          <mxGeometry width="50" height="50" relative="1" as="geometry">
            <mxPoint x="540" y="330" as="sourcePoint" />
            <mxPoint x="610" y="330" as="targetPoint" />
          </mxGeometry>
        </mxCell>
        <mxCell id="LDRxqSCZ7-76HOvoV0_8-420" value="" style="shape=ellipse;fillColor=#000000;strokeColor=none;html=1;sketch=0;" vertex="1" parent="LDRxqSCZ7-76HOvoV0_8-451">
          <mxGeometry x="535" y="105" width="10" height="10" as="geometry" />
        </mxCell>
        <mxCell id="LDRxqSCZ7-76HOvoV0_8-421" value="" style="endArrow=none;html=1;rounded=0;" edge="1" parent="LDRxqSCZ7-76HOvoV0_8-451" target="LDRxqSCZ7-76HOvoV0_8-423">
          <mxGeometry width="50" height="50" relative="1" as="geometry">
            <mxPoint x="750" y="330" as="sourcePoint" />
            <mxPoint x="750" y="110" as="targetPoint" />
          </mxGeometry>
        </mxCell>
        <mxCell id="LDRxqSCZ7-76HOvoV0_8-422" value="" style="endArrow=classic;html=1;rounded=0;entryX=0;entryY=0.5;entryDx=0;entryDy=0;" edge="1" parent="LDRxqSCZ7-76HOvoV0_8-451">
          <mxGeometry width="50" height="50" relative="1" as="geometry">
            <mxPoint x="750" y="330" as="sourcePoint" />
            <mxPoint x="820" y="330" as="targetPoint" />
          </mxGeometry>
        </mxCell>
        <mxCell id="LDRxqSCZ7-76HOvoV0_8-423" value="" style="shape=ellipse;fillColor=#000000;strokeColor=none;html=1;sketch=0;" vertex="1" parent="LDRxqSCZ7-76HOvoV0_8-451">
          <mxGeometry x="745" y="105" width="10" height="10" as="geometry" />
        </mxCell>
        <mxCell id="LDRxqSCZ7-76HOvoV0_8-424" value="" style="endArrow=none;html=1;rounded=0;" edge="1" parent="LDRxqSCZ7-76HOvoV0_8-451" target="LDRxqSCZ7-76HOvoV0_8-426">
          <mxGeometry width="50" height="50" relative="1" as="geometry">
            <mxPoint x="950" y="330" as="sourcePoint" />
            <mxPoint x="950" y="110" as="targetPoint" />
          </mxGeometry>
        </mxCell>
        <mxCell id="LDRxqSCZ7-76HOvoV0_8-425" value="" style="endArrow=classic;html=1;rounded=0;entryX=0;entryY=0.5;entryDx=0;entryDy=0;" edge="1" parent="LDRxqSCZ7-76HOvoV0_8-451">
          <mxGeometry width="50" height="50" relative="1" as="geometry">
            <mxPoint x="950" y="330" as="sourcePoint" />
            <mxPoint x="1020" y="330" as="targetPoint" />
          </mxGeometry>
        </mxCell>
        <mxCell id="LDRxqSCZ7-76HOvoV0_8-426" value="" style="shape=ellipse;fillColor=#000000;strokeColor=none;html=1;sketch=0;" vertex="1" parent="LDRxqSCZ7-76HOvoV0_8-451">
          <mxGeometry x="945" y="105" width="10" height="10" as="geometry" />
        </mxCell>
        <mxCell id="LDRxqSCZ7-76HOvoV0_8-427" value="" style="endArrow=none;html=1;rounded=0;" edge="1" parent="LDRxqSCZ7-76HOvoV0_8-451" target="LDRxqSCZ7-76HOvoV0_8-429">
          <mxGeometry width="50" height="50" relative="1" as="geometry">
            <mxPoint x="1165" y="330" as="sourcePoint" />
            <mxPoint x="1165" y="110" as="targetPoint" />
          </mxGeometry>
        </mxCell>
        <mxCell id="LDRxqSCZ7-76HOvoV0_8-428" value="" style="endArrow=classic;html=1;rounded=0;entryX=0;entryY=0.5;entryDx=0;entryDy=0;" edge="1" parent="LDRxqSCZ7-76HOvoV0_8-451">
          <mxGeometry width="50" height="50" relative="1" as="geometry">
            <mxPoint x="1165" y="330" as="sourcePoint" />
            <mxPoint x="1235" y="330" as="targetPoint" />
          </mxGeometry>
        </mxCell>
        <mxCell id="LDRxqSCZ7-76HOvoV0_8-429" value="" style="shape=ellipse;fillColor=#000000;strokeColor=none;html=1;sketch=0;" vertex="1" parent="LDRxqSCZ7-76HOvoV0_8-451">
          <mxGeometry x="1160" y="105" width="10" height="10" as="geometry" />
        </mxCell>
        <mxCell id="LDRxqSCZ7-76HOvoV0_8-430" value="" style="endArrow=none;html=1;rounded=0;" edge="1" parent="LDRxqSCZ7-76HOvoV0_8-451" target="LDRxqSCZ7-76HOvoV0_8-432">
          <mxGeometry width="50" height="50" relative="1" as="geometry">
            <mxPoint x="1365" y="330" as="sourcePoint" />
            <mxPoint x="1365" y="110" as="targetPoint" />
          </mxGeometry>
        </mxCell>
        <mxCell id="LDRxqSCZ7-76HOvoV0_8-431" value="" style="endArrow=classic;html=1;rounded=0;entryX=0;entryY=0.5;entryDx=0;entryDy=0;" edge="1" parent="LDRxqSCZ7-76HOvoV0_8-451">
          <mxGeometry width="50" height="50" relative="1" as="geometry">
            <mxPoint x="1365" y="330" as="sourcePoint" />
            <mxPoint x="1435" y="330" as="targetPoint" />
          </mxGeometry>
        </mxCell>
        <mxCell id="LDRxqSCZ7-76HOvoV0_8-432" value="" style="shape=ellipse;fillColor=#000000;strokeColor=none;html=1;sketch=0;" vertex="1" parent="LDRxqSCZ7-76HOvoV0_8-451">
          <mxGeometry x="1360" y="105" width="10" height="10" as="geometry" />
        </mxCell>
        <mxCell id="LDRxqSCZ7-76HOvoV0_8-433" value="" style="endArrow=none;html=1;rounded=0;" edge="1" parent="LDRxqSCZ7-76HOvoV0_8-451" target="LDRxqSCZ7-76HOvoV0_8-435">
          <mxGeometry width="50" height="50" relative="1" as="geometry">
            <mxPoint x="1560" y="330" as="sourcePoint" />
            <mxPoint x="1560" y="110" as="targetPoint" />
          </mxGeometry>
        </mxCell>
        <mxCell id="LDRxqSCZ7-76HOvoV0_8-434" value="" style="endArrow=classic;html=1;rounded=0;entryX=0;entryY=0.5;entryDx=0;entryDy=0;" edge="1" parent="LDRxqSCZ7-76HOvoV0_8-451">
          <mxGeometry width="50" height="50" relative="1" as="geometry">
            <mxPoint x="1560" y="330" as="sourcePoint" />
            <mxPoint x="1630" y="330" as="targetPoint" />
          </mxGeometry>
        </mxCell>
        <mxCell id="LDRxqSCZ7-76HOvoV0_8-435" value="" style="shape=ellipse;fillColor=#000000;strokeColor=none;html=1;sketch=0;" vertex="1" parent="LDRxqSCZ7-76HOvoV0_8-451">
          <mxGeometry x="1555" y="105" width="10" height="10" as="geometry" />
        </mxCell>
        <mxCell id="LDRxqSCZ7-76HOvoV0_8-436" value="" style="endArrow=none;html=1;rounded=0;" edge="1" parent="LDRxqSCZ7-76HOvoV0_8-451" target="LDRxqSCZ7-76HOvoV0_8-438">
          <mxGeometry width="50" height="50" relative="1" as="geometry">
            <mxPoint x="1760" y="330" as="sourcePoint" />
            <mxPoint x="1760" y="110" as="targetPoint" />
          </mxGeometry>
        </mxCell>
        <mxCell id="LDRxqSCZ7-76HOvoV0_8-437" value="" style="endArrow=classic;html=1;rounded=0;entryX=0;entryY=0.5;entryDx=0;entryDy=0;" edge="1" parent="LDRxqSCZ7-76HOvoV0_8-451">
          <mxGeometry width="50" height="50" relative="1" as="geometry">
            <mxPoint x="1760" y="330" as="sourcePoint" />
            <mxPoint x="1830" y="330" as="targetPoint" />
          </mxGeometry>
        </mxCell>
        <mxCell id="LDRxqSCZ7-76HOvoV0_8-438" value="" style="shape=ellipse;fillColor=#000000;strokeColor=none;html=1;sketch=0;" vertex="1" parent="LDRxqSCZ7-76HOvoV0_8-451">
          <mxGeometry x="1755" y="105" width="10" height="10" as="geometry" />
        </mxCell>
        <mxCell id="LDRxqSCZ7-76HOvoV0_8-442" value="" style="endArrow=none;html=1;rounded=0;" edge="1" parent="LDRxqSCZ7-76HOvoV0_8-451" target="LDRxqSCZ7-76HOvoV0_8-444">
          <mxGeometry width="50" height="50" relative="1" as="geometry">
            <mxPoint x="1970" y="330" as="sourcePoint" />
            <mxPoint x="1970" y="110" as="targetPoint" />
          </mxGeometry>
        </mxCell>
        <mxCell id="LDRxqSCZ7-76HOvoV0_8-443" value="" style="endArrow=classic;html=1;rounded=0;entryX=0;entryY=0.5;entryDx=0;entryDy=0;" edge="1" parent="LDRxqSCZ7-76HOvoV0_8-451">
          <mxGeometry width="50" height="50" relative="1" as="geometry">
            <mxPoint x="1970" y="330" as="sourcePoint" />
            <mxPoint x="2040" y="330" as="targetPoint" />
          </mxGeometry>
        </mxCell>
        <mxCell id="LDRxqSCZ7-76HOvoV0_8-444" value="" style="shape=ellipse;fillColor=#000000;strokeColor=none;html=1;sketch=0;" vertex="1" parent="LDRxqSCZ7-76HOvoV0_8-451">
          <mxGeometry x="1965" y="105" width="10" height="10" as="geometry" />
        </mxCell>
        <mxCell id="LDRxqSCZ7-76HOvoV0_8-448" value="" style="endArrow=none;html=1;rounded=0;" edge="1" parent="LDRxqSCZ7-76HOvoV0_8-451" target="LDRxqSCZ7-76HOvoV0_8-450">
          <mxGeometry width="50" height="50" relative="1" as="geometry">
            <mxPoint x="2175" y="330" as="sourcePoint" />
            <mxPoint x="2175" y="110" as="targetPoint" />
          </mxGeometry>
        </mxCell>
        <mxCell id="LDRxqSCZ7-76HOvoV0_8-449" value="" style="endArrow=classic;html=1;rounded=0;entryX=0;entryY=0.5;entryDx=0;entryDy=0;" edge="1" parent="LDRxqSCZ7-76HOvoV0_8-451">
          <mxGeometry width="50" height="50" relative="1" as="geometry">
            <mxPoint x="2175" y="330" as="sourcePoint" />
            <mxPoint x="2245" y="330" as="targetPoint" />
          </mxGeometry>
        </mxCell>
        <mxCell id="LDRxqSCZ7-76HOvoV0_8-450" value="" style="shape=ellipse;fillColor=#000000;strokeColor=none;html=1;sketch=0;" vertex="1" parent="LDRxqSCZ7-76HOvoV0_8-451">
          <mxGeometry x="2170" y="105" width="10" height="10" as="geometry" />
        </mxCell>
        <mxCell id="LDRxqSCZ7-76HOvoV0_8-343" value="&lt;font style=&quot;font-size: 20px;&quot;&gt;parity&lt;/font&gt;" style="text;html=1;align=center;verticalAlign=middle;whiteSpace=wrap;rounded=0;" vertex="1" parent="LDRxqSCZ7-76HOvoV0_8-451">
          <mxGeometry x="-20" y="440" width="60" height="30" as="geometry" />
        </mxCell>
        <mxCell id="LDRxqSCZ7-76HOvoV0_8-981" value="&lt;font style=&quot;font-size: 20px;&quot;&gt;serial_out&lt;/font&gt;" style="text;html=1;align=center;verticalAlign=middle;resizable=0;points=[];autosize=1;strokeColor=none;fillColor=none;" vertex="1" parent="LDRxqSCZ7-76HOvoV0_8-984">
          <mxGeometry x="2470" y="420" width="110" height="40" as="geometry" />
        </mxCell>
        <mxCell id="LDRxqSCZ7-76HOvoV0_8-983" value="&lt;font style=&quot;font-size: 45px;&quot;&gt;&lt;b&gt;Shift Register&lt;/b&gt;&lt;/font&gt;" style="text;html=1;align=center;verticalAlign=middle;whiteSpace=wrap;rounded=0;" vertex="1" parent="LDRxqSCZ7-76HOvoV0_8-984">
          <mxGeometry x="930" y="60" width="610" height="30" as="geometry" />
        </mxCell>
        <mxCell id="LDRxqSCZ7-76HOvoV0_8-365" value="&lt;font style=&quot;font-size: 20px;&quot;&gt;fifo_data&lt;/font&gt;" style="text;html=1;align=center;verticalAlign=middle;resizable=0;points=[];autosize=1;strokeColor=none;fillColor=none;" vertex="1" parent="1">
          <mxGeometry x="550" y="1565" width="100" height="40" as="geometry" />
        </mxCell>
        <mxCell id="LDRxqSCZ7-76HOvoV0_8-388" value="&lt;font style=&quot;font-size: 20px;&quot;&gt;load_en&lt;/font&gt;" style="text;html=1;align=center;verticalAlign=middle;resizable=0;points=[];autosize=1;strokeColor=none;fillColor=none;" vertex="1" parent="1">
          <mxGeometry x="540" y="930" width="90" height="40" as="geometry" />
        </mxCell>
        <mxCell id="LDRxqSCZ7-76HOvoV0_8-407" value="&lt;font style=&quot;font-size: 20px;&quot;&gt;shift_en&lt;/font&gt;" style="text;html=1;align=center;verticalAlign=middle;resizable=0;points=[];autosize=1;strokeColor=none;fillColor=none;" vertex="1" parent="1">
          <mxGeometry x="545" y="1020" width="90" height="40" as="geometry" />
        </mxCell>
        <mxCell id="LDRxqSCZ7-76HOvoV0_8-389" value="" style="endArrow=none;html=1;rounded=0;entryX=1;entryY=0.5;entryDx=0;entryDy=0;exitX=1.086;exitY=0.442;exitDx=0;exitDy=0;exitPerimeter=0;" edge="1" parent="1" source="LDRxqSCZ7-76HOvoV0_8-407" target="LDRxqSCZ7-76HOvoV0_8-450">
          <mxGeometry width="50" height="50" relative="1" as="geometry">
            <mxPoint x="690" y="1040" as="sourcePoint" />
            <mxPoint x="2800" y="1040" as="targetPoint" />
          </mxGeometry>
        </mxCell>
        <mxCell id="LDRxqSCZ7-76HOvoV0_8-392" value="" style="endArrow=none;html=1;rounded=0;exitX=1.102;exitY=0.492;exitDx=0;exitDy=0;exitPerimeter=0;" edge="1" parent="1" source="LDRxqSCZ7-76HOvoV0_8-388" target="LDRxqSCZ7-76HOvoV0_8-391">
          <mxGeometry width="50" height="50" relative="1" as="geometry">
            <mxPoint x="690" y="950" as="sourcePoint" />
            <mxPoint x="2590" y="950" as="targetPoint" />
          </mxGeometry>
        </mxCell>
      </root>
    </mxGraphModel>
  </diagram>
  <diagram id="3_3e_sWiordwwPaz-a1j" name="Parity_Gen">
    <mxGraphModel dx="1500" dy="757" grid="1" gridSize="10" guides="1" tooltips="1" connect="1" arrows="1" fold="1" page="1" pageScale="1" pageWidth="6000" pageHeight="6000" math="0" shadow="0">
      <root>
        <mxCell id="0" />
        <mxCell id="1" parent="0" />
        <mxCell id="Z_YKeeFXhaAmt2HOkao5-2" value="" style="rounded=0;whiteSpace=wrap;html=1;fillColor=#dae8fc;strokeColor=#6c8ebf;" vertex="1" parent="1">
          <mxGeometry x="280" y="140" width="600" height="500" as="geometry" />
        </mxCell>
        <mxCell id="nrkM1JjMpznVdjE7jikB-1" value="" style="group" vertex="1" connectable="0" parent="1">
          <mxGeometry x="460" y="210" width="160" height="100" as="geometry" />
        </mxCell>
        <mxCell id="nrkM1JjMpznVdjE7jikB-2" value="" style="shape=xor;whiteSpace=wrap;html=1;" vertex="1" parent="nrkM1JjMpznVdjE7jikB-1">
          <mxGeometry x="90" y="10" width="70" height="80" as="geometry" />
        </mxCell>
        <mxCell id="nrkM1JjMpznVdjE7jikB-3" value="" style="verticalLabelPosition=bottom;verticalAlign=top;html=1;shape=mxgraph.basic.arc;startAngle=0.6189590441260832;endAngle=0.8761449798372287;direction=west;" vertex="1" parent="nrkM1JjMpznVdjE7jikB-1">
          <mxGeometry width="100" height="100" as="geometry" />
        </mxCell>
        <mxCell id="nrkM1JjMpznVdjE7jikB-7" value="" style="endArrow=classic;html=1;rounded=0;" edge="1" parent="nrkM1JjMpznVdjE7jikB-1">
          <mxGeometry width="50" height="50" relative="1" as="geometry">
            <mxPoint x="-60" y="49.5" as="sourcePoint" />
            <mxPoint x="100" y="49.5" as="targetPoint" />
          </mxGeometry>
        </mxCell>
        <mxCell id="nrkM1JjMpznVdjE7jikB-4" value="" style="group" vertex="1" connectable="0" parent="1">
          <mxGeometry x="460" y="400" width="160" height="100" as="geometry" />
        </mxCell>
        <mxCell id="nrkM1JjMpznVdjE7jikB-5" value="" style="shape=xor;whiteSpace=wrap;html=1;" vertex="1" parent="nrkM1JjMpznVdjE7jikB-4">
          <mxGeometry x="90" y="10" width="70" height="80" as="geometry" />
        </mxCell>
        <mxCell id="nrkM1JjMpznVdjE7jikB-6" value="" style="verticalLabelPosition=bottom;verticalAlign=top;html=1;shape=mxgraph.basic.arc;startAngle=0.6189590441260832;endAngle=0.8761449798372287;direction=west;" vertex="1" parent="nrkM1JjMpznVdjE7jikB-4">
          <mxGeometry width="100" height="100" as="geometry" />
        </mxCell>
        <mxCell id="nrkM1JjMpznVdjE7jikB-8" value="" style="endArrow=classic;html=1;rounded=0;" edge="1" parent="1">
          <mxGeometry width="50" height="50" relative="1" as="geometry">
            <mxPoint x="400" y="449.5" as="sourcePoint" />
            <mxPoint x="560" y="449.5" as="targetPoint" />
          </mxGeometry>
        </mxCell>
        <mxCell id="nrkM1JjMpznVdjE7jikB-9" value="" style="endArrow=none;html=1;rounded=0;" edge="1" parent="1">
          <mxGeometry width="50" height="50" relative="1" as="geometry">
            <mxPoint x="400" y="450" as="sourcePoint" />
            <mxPoint x="400" y="260" as="targetPoint" />
          </mxGeometry>
        </mxCell>
        <mxCell id="nrkM1JjMpznVdjE7jikB-10" value="" style="endArrow=none;html=1;rounded=0;" edge="1" parent="1">
          <mxGeometry width="50" height="50" relative="1" as="geometry">
            <mxPoint x="220" y="350" as="sourcePoint" />
            <mxPoint x="400" y="350" as="targetPoint" />
          </mxGeometry>
        </mxCell>
        <mxCell id="nrkM1JjMpznVdjE7jikB-11" value="" style="endArrow=none;html=1;rounded=0;" edge="1" parent="1">
          <mxGeometry width="50" height="50" relative="1" as="geometry">
            <mxPoint x="300" y="360" as="sourcePoint" />
            <mxPoint x="320" y="340" as="targetPoint" />
          </mxGeometry>
        </mxCell>
        <mxCell id="nrkM1JjMpznVdjE7jikB-12" value="&lt;font style=&quot;font-size: 20px;&quot;&gt;8&lt;/font&gt;" style="text;html=1;align=center;verticalAlign=middle;resizable=0;points=[];autosize=1;strokeColor=none;fillColor=none;" vertex="1" parent="1">
          <mxGeometry x="300" y="300" width="30" height="40" as="geometry" />
        </mxCell>
        <mxCell id="nrkM1JjMpznVdjE7jikB-13" value="fifo_data" style="text;html=1;align=center;verticalAlign=middle;resizable=0;points=[];autosize=1;strokeColor=none;fillColor=none;" vertex="1" parent="1">
          <mxGeometry x="160" y="330" width="70" height="30" as="geometry" />
        </mxCell>
        <mxCell id="O-HBrHQGV5syB4tyxZ9I-3" value="" style="group" vertex="1" connectable="0" parent="1">
          <mxGeometry x="730" y="300" width="20" height="120" as="geometry" />
        </mxCell>
        <mxCell id="O-HBrHQGV5syB4tyxZ9I-4" value="" style="shape=trapezoid;perimeter=trapezoidPerimeter;whiteSpace=wrap;html=1;fixedSize=1;direction=south;" vertex="1" parent="O-HBrHQGV5syB4tyxZ9I-3">
          <mxGeometry width="20" height="120" as="geometry" />
        </mxCell>
        <mxCell id="O-HBrHQGV5syB4tyxZ9I-5" value="0" style="text;html=1;align=center;verticalAlign=middle;whiteSpace=wrap;rounded=0;" vertex="1" parent="O-HBrHQGV5syB4tyxZ9I-3">
          <mxGeometry y="20" width="20" height="30" as="geometry" />
        </mxCell>
        <mxCell id="O-HBrHQGV5syB4tyxZ9I-6" value="1" style="text;html=1;align=center;verticalAlign=middle;whiteSpace=wrap;rounded=0;" vertex="1" parent="O-HBrHQGV5syB4tyxZ9I-3">
          <mxGeometry y="70" width="20" height="30" as="geometry" />
        </mxCell>
        <mxCell id="O-HBrHQGV5syB4tyxZ9I-7" value="" style="group" vertex="1" connectable="0" parent="1">
          <mxGeometry x="730" y="300" width="20" height="120" as="geometry" />
        </mxCell>
        <mxCell id="O-HBrHQGV5syB4tyxZ9I-14" style="edgeStyle=orthogonalEdgeStyle;rounded=0;orthogonalLoop=1;jettySize=auto;html=1;" edge="1" parent="O-HBrHQGV5syB4tyxZ9I-7" source="O-HBrHQGV5syB4tyxZ9I-8">
          <mxGeometry relative="1" as="geometry">
            <mxPoint x="190" y="60" as="targetPoint" />
          </mxGeometry>
        </mxCell>
        <mxCell id="O-HBrHQGV5syB4tyxZ9I-8" value="" style="shape=trapezoid;perimeter=trapezoidPerimeter;whiteSpace=wrap;html=1;fixedSize=1;direction=south;" vertex="1" parent="O-HBrHQGV5syB4tyxZ9I-7">
          <mxGeometry width="20" height="120" as="geometry" />
        </mxCell>
        <mxCell id="O-HBrHQGV5syB4tyxZ9I-9" value="&lt;font style=&quot;font-size: 14px;&quot;&gt;0&lt;/font&gt;" style="text;html=1;align=center;verticalAlign=middle;whiteSpace=wrap;rounded=0;" vertex="1" parent="O-HBrHQGV5syB4tyxZ9I-7">
          <mxGeometry y="20" width="20" height="30" as="geometry" />
        </mxCell>
        <mxCell id="O-HBrHQGV5syB4tyxZ9I-10" value="&lt;font style=&quot;font-size: 14px;&quot;&gt;1&lt;/font&gt;" style="text;html=1;align=center;verticalAlign=middle;whiteSpace=wrap;rounded=0;" vertex="1" parent="O-HBrHQGV5syB4tyxZ9I-7">
          <mxGeometry y="70" width="20" height="30" as="geometry" />
        </mxCell>
        <mxCell id="O-HBrHQGV5syB4tyxZ9I-11" style="edgeStyle=orthogonalEdgeStyle;rounded=0;orthogonalLoop=1;jettySize=auto;html=1;entryX=0;entryY=0.5;entryDx=0;entryDy=0;" edge="1" parent="1" source="nrkM1JjMpznVdjE7jikB-2" target="O-HBrHQGV5syB4tyxZ9I-9">
          <mxGeometry relative="1" as="geometry" />
        </mxCell>
        <mxCell id="O-HBrHQGV5syB4tyxZ9I-13" style="edgeStyle=orthogonalEdgeStyle;rounded=0;orthogonalLoop=1;jettySize=auto;html=1;entryX=0;entryY=0.5;entryDx=0;entryDy=0;" edge="1" parent="1" source="O-HBrHQGV5syB4tyxZ9I-12" target="O-HBrHQGV5syB4tyxZ9I-10">
          <mxGeometry relative="1" as="geometry" />
        </mxCell>
        <mxCell id="O-HBrHQGV5syB4tyxZ9I-12" value="" style="ellipse;whiteSpace=wrap;html=1;aspect=fixed;" vertex="1" parent="1">
          <mxGeometry x="620" y="445" width="10" height="10" as="geometry" />
        </mxCell>
        <mxCell id="qkC-0CjlJGEy50MayuFr-1" value="&lt;font style=&quot;font-size: 20px;&quot;&gt;parity_bit&lt;/font&gt;" style="text;html=1;align=center;verticalAlign=middle;resizable=0;points=[];autosize=1;strokeColor=none;fillColor=none;" vertex="1" parent="1">
          <mxGeometry x="915" y="340" width="100" height="40" as="geometry" />
        </mxCell>
        <mxCell id="Z_YKeeFXhaAmt2HOkao5-1" style="edgeStyle=orthogonalEdgeStyle;rounded=0;orthogonalLoop=1;jettySize=auto;html=1;" edge="1" parent="1" source="qkC-0CjlJGEy50MayuFr-2">
          <mxGeometry relative="1" as="geometry">
            <mxPoint x="740" y="410" as="targetPoint" />
          </mxGeometry>
        </mxCell>
        <mxCell id="qkC-0CjlJGEy50MayuFr-2" value="Odd_parity_r" style="text;html=1;align=center;verticalAlign=middle;resizable=0;points=[];autosize=1;strokeColor=none;fillColor=none;" vertex="1" parent="1">
          <mxGeometry x="145" y="558" width="90" height="30" as="geometry" />
        </mxCell>
        <mxCell id="Z_YKeeFXhaAmt2HOkao5-3" value="&lt;font style=&quot;font-size: 30px;&quot;&gt;&lt;b&gt;Parity Generator&lt;/b&gt;&lt;/font&gt;" style="text;html=1;align=center;verticalAlign=middle;whiteSpace=wrap;rounded=0;" vertex="1" parent="1">
          <mxGeometry x="410" y="160" width="310" height="30" as="geometry" />
        </mxCell>
      </root>
    </mxGraphModel>
  </diagram>
</mxfile>
